%TF.GenerationSoftware,KiCad,Pcbnew,5.1.6+dfsg1-1*%
%TF.CreationDate,2021-04-07T14:27:39-04:00*%
%TF.ProjectId,uSDX-x,75534458-2d78-42e6-9b69-6361645f7063,rev?*%
%TF.SameCoordinates,Original*%
%TF.FileFunction,Soldermask,Top*%
%TF.FilePolarity,Negative*%
%FSLAX46Y46*%
G04 Gerber Fmt 4.6, Leading zero omitted, Abs format (unit mm)*
G04 Created by KiCad (PCBNEW 5.1.6+dfsg1-1) date 2021-04-07 14:27:39*
%MOMM*%
%LPD*%
G01*
G04 APERTURE LIST*
%TA.AperFunction,Profile*%
%ADD10C,0.050000*%
%TD*%
%ADD11R,2.500000X2.900000*%
%ADD12C,1.900000*%
%ADD13C,1.700000*%
%ADD14C,2.440000*%
%ADD15R,2.440000X2.440000*%
%ADD16O,2.700000X1.900000*%
%ADD17R,2.700000X1.900000*%
%ADD18R,2.100000X2.100000*%
%ADD19C,2.100000*%
%ADD20R,2.100000X3.300000*%
%ADD21O,1.800000X1.800000*%
%ADD22R,1.800000X1.800000*%
%ADD23R,1.400000X1.650000*%
%ADD24R,1.100000X1.700000*%
%ADD25R,1.000000X0.900000*%
%ADD26R,0.900000X1.000000*%
%ADD27O,4.100000X2.300000*%
%ADD28O,2.300000X4.100000*%
%ADD29R,2.300000X4.100000*%
%ADD30O,1.700000X1.700000*%
%ADD31R,1.700000X1.700000*%
G04 APERTURE END LIST*
D10*
X89350000Y-143150000D02*
X89350000Y-53400000D01*
X189350000Y-143150000D02*
X89350000Y-143150000D01*
X189350000Y-53400000D02*
X189350000Y-143150000D01*
X89350000Y-53400000D02*
X189350000Y-53400000D01*
D11*
%TO.C,J1*%
X99300000Y-57300000D03*
X99300000Y-63400000D03*
X110700000Y-63400000D03*
X110700000Y-57300000D03*
D12*
X105000000Y-61800000D03*
D13*
X105000000Y-57300000D03*
%TD*%
D14*
%TO.C,J3*%
X93380000Y-139740000D03*
X98460000Y-139740000D03*
X93380000Y-134660000D03*
X98460000Y-134660000D03*
D15*
X95920000Y-137200000D03*
%TD*%
D16*
%TO.C,J10*%
X184005000Y-65090000D03*
X184005000Y-67630000D03*
X184005000Y-70170000D03*
X184005000Y-72710000D03*
X184005000Y-75250000D03*
X184005000Y-77790000D03*
X184005000Y-80330000D03*
X184005000Y-82870000D03*
X184005000Y-85410000D03*
X184005000Y-87950000D03*
X184005000Y-90490000D03*
X184005000Y-93030000D03*
X184005000Y-95570000D03*
X184005000Y-98110000D03*
X184005000Y-100650000D03*
D17*
X184005000Y-103190000D03*
%TD*%
D18*
%TO.C,SW4*%
X153850000Y-93320000D03*
D19*
X151350000Y-93320000D03*
X148850000Y-93320000D03*
D20*
X156950000Y-100820000D03*
X145750000Y-100820000D03*
D19*
X153850000Y-107820000D03*
X148850000Y-107820000D03*
%TD*%
D21*
%TO.C,J9*%
X177850000Y-86270000D03*
X177850000Y-83730000D03*
X177850000Y-81190000D03*
D22*
X177850000Y-78650000D03*
%TD*%
%TO.C,U2*%
G36*
G01*
X104183600Y-80690000D02*
X104183600Y-80340000D01*
G75*
G02*
X104358600Y-80165000I175000J0D01*
G01*
X105708600Y-80165000D01*
G75*
G02*
X105883600Y-80340000I0J-175000D01*
G01*
X105883600Y-80690000D01*
G75*
G02*
X105708600Y-80865000I-175000J0D01*
G01*
X104358600Y-80865000D01*
G75*
G02*
X104183600Y-80690000I0J175000D01*
G01*
G37*
G36*
G01*
X104183600Y-81960000D02*
X104183600Y-81610000D01*
G75*
G02*
X104358600Y-81435000I175000J0D01*
G01*
X105708600Y-81435000D01*
G75*
G02*
X105883600Y-81610000I0J-175000D01*
G01*
X105883600Y-81960000D01*
G75*
G02*
X105708600Y-82135000I-175000J0D01*
G01*
X104358600Y-82135000D01*
G75*
G02*
X104183600Y-81960000I0J175000D01*
G01*
G37*
G36*
G01*
X104183600Y-83230000D02*
X104183600Y-82880000D01*
G75*
G02*
X104358600Y-82705000I175000J0D01*
G01*
X105708600Y-82705000D01*
G75*
G02*
X105883600Y-82880000I0J-175000D01*
G01*
X105883600Y-83230000D01*
G75*
G02*
X105708600Y-83405000I-175000J0D01*
G01*
X104358600Y-83405000D01*
G75*
G02*
X104183600Y-83230000I0J175000D01*
G01*
G37*
G36*
G01*
X104183600Y-84500000D02*
X104183600Y-84150000D01*
G75*
G02*
X104358600Y-83975000I175000J0D01*
G01*
X105708600Y-83975000D01*
G75*
G02*
X105883600Y-84150000I0J-175000D01*
G01*
X105883600Y-84500000D01*
G75*
G02*
X105708600Y-84675000I-175000J0D01*
G01*
X104358600Y-84675000D01*
G75*
G02*
X104183600Y-84500000I0J175000D01*
G01*
G37*
G36*
G01*
X96983600Y-84500000D02*
X96983600Y-84150000D01*
G75*
G02*
X97158600Y-83975000I175000J0D01*
G01*
X98508600Y-83975000D01*
G75*
G02*
X98683600Y-84150000I0J-175000D01*
G01*
X98683600Y-84500000D01*
G75*
G02*
X98508600Y-84675000I-175000J0D01*
G01*
X97158600Y-84675000D01*
G75*
G02*
X96983600Y-84500000I0J175000D01*
G01*
G37*
G36*
G01*
X96983600Y-83230000D02*
X96983600Y-82880000D01*
G75*
G02*
X97158600Y-82705000I175000J0D01*
G01*
X98508600Y-82705000D01*
G75*
G02*
X98683600Y-82880000I0J-175000D01*
G01*
X98683600Y-83230000D01*
G75*
G02*
X98508600Y-83405000I-175000J0D01*
G01*
X97158600Y-83405000D01*
G75*
G02*
X96983600Y-83230000I0J175000D01*
G01*
G37*
G36*
G01*
X96983600Y-81960000D02*
X96983600Y-81610000D01*
G75*
G02*
X97158600Y-81435000I175000J0D01*
G01*
X98508600Y-81435000D01*
G75*
G02*
X98683600Y-81610000I0J-175000D01*
G01*
X98683600Y-81960000D01*
G75*
G02*
X98508600Y-82135000I-175000J0D01*
G01*
X97158600Y-82135000D01*
G75*
G02*
X96983600Y-81960000I0J175000D01*
G01*
G37*
G36*
G01*
X96983600Y-80690000D02*
X96983600Y-80340000D01*
G75*
G02*
X97158600Y-80165000I175000J0D01*
G01*
X98508600Y-80165000D01*
G75*
G02*
X98683600Y-80340000I0J-175000D01*
G01*
X98683600Y-80690000D01*
G75*
G02*
X98508600Y-80865000I-175000J0D01*
G01*
X97158600Y-80865000D01*
G75*
G02*
X96983600Y-80690000I0J175000D01*
G01*
G37*
%TD*%
%TO.C,U1*%
G36*
G01*
X100222600Y-118253600D02*
X100222600Y-118503600D01*
G75*
G02*
X100097600Y-118628600I-125000J0D01*
G01*
X98772600Y-118628600D01*
G75*
G02*
X98647600Y-118503600I0J125000D01*
G01*
X98647600Y-118253600D01*
G75*
G02*
X98772600Y-118128600I125000J0D01*
G01*
X100097600Y-118128600D01*
G75*
G02*
X100222600Y-118253600I0J-125000D01*
G01*
G37*
G36*
G01*
X100222600Y-117603600D02*
X100222600Y-117853600D01*
G75*
G02*
X100097600Y-117978600I-125000J0D01*
G01*
X98772600Y-117978600D01*
G75*
G02*
X98647600Y-117853600I0J125000D01*
G01*
X98647600Y-117603600D01*
G75*
G02*
X98772600Y-117478600I125000J0D01*
G01*
X100097600Y-117478600D01*
G75*
G02*
X100222600Y-117603600I0J-125000D01*
G01*
G37*
G36*
G01*
X100222600Y-116953600D02*
X100222600Y-117203600D01*
G75*
G02*
X100097600Y-117328600I-125000J0D01*
G01*
X98772600Y-117328600D01*
G75*
G02*
X98647600Y-117203600I0J125000D01*
G01*
X98647600Y-116953600D01*
G75*
G02*
X98772600Y-116828600I125000J0D01*
G01*
X100097600Y-116828600D01*
G75*
G02*
X100222600Y-116953600I0J-125000D01*
G01*
G37*
G36*
G01*
X100222600Y-116303600D02*
X100222600Y-116553600D01*
G75*
G02*
X100097600Y-116678600I-125000J0D01*
G01*
X98772600Y-116678600D01*
G75*
G02*
X98647600Y-116553600I0J125000D01*
G01*
X98647600Y-116303600D01*
G75*
G02*
X98772600Y-116178600I125000J0D01*
G01*
X100097600Y-116178600D01*
G75*
G02*
X100222600Y-116303600I0J-125000D01*
G01*
G37*
G36*
G01*
X100222600Y-115653600D02*
X100222600Y-115903600D01*
G75*
G02*
X100097600Y-116028600I-125000J0D01*
G01*
X98772600Y-116028600D01*
G75*
G02*
X98647600Y-115903600I0J125000D01*
G01*
X98647600Y-115653600D01*
G75*
G02*
X98772600Y-115528600I125000J0D01*
G01*
X100097600Y-115528600D01*
G75*
G02*
X100222600Y-115653600I0J-125000D01*
G01*
G37*
G36*
G01*
X100222600Y-115003600D02*
X100222600Y-115253600D01*
G75*
G02*
X100097600Y-115378600I-125000J0D01*
G01*
X98772600Y-115378600D01*
G75*
G02*
X98647600Y-115253600I0J125000D01*
G01*
X98647600Y-115003600D01*
G75*
G02*
X98772600Y-114878600I125000J0D01*
G01*
X100097600Y-114878600D01*
G75*
G02*
X100222600Y-115003600I0J-125000D01*
G01*
G37*
G36*
G01*
X100222600Y-114353600D02*
X100222600Y-114603600D01*
G75*
G02*
X100097600Y-114728600I-125000J0D01*
G01*
X98772600Y-114728600D01*
G75*
G02*
X98647600Y-114603600I0J125000D01*
G01*
X98647600Y-114353600D01*
G75*
G02*
X98772600Y-114228600I125000J0D01*
G01*
X100097600Y-114228600D01*
G75*
G02*
X100222600Y-114353600I0J-125000D01*
G01*
G37*
G36*
G01*
X100222600Y-113703600D02*
X100222600Y-113953600D01*
G75*
G02*
X100097600Y-114078600I-125000J0D01*
G01*
X98772600Y-114078600D01*
G75*
G02*
X98647600Y-113953600I0J125000D01*
G01*
X98647600Y-113703600D01*
G75*
G02*
X98772600Y-113578600I125000J0D01*
G01*
X100097600Y-113578600D01*
G75*
G02*
X100222600Y-113703600I0J-125000D01*
G01*
G37*
G36*
G01*
X105947600Y-113703600D02*
X105947600Y-113953600D01*
G75*
G02*
X105822600Y-114078600I-125000J0D01*
G01*
X104497600Y-114078600D01*
G75*
G02*
X104372600Y-113953600I0J125000D01*
G01*
X104372600Y-113703600D01*
G75*
G02*
X104497600Y-113578600I125000J0D01*
G01*
X105822600Y-113578600D01*
G75*
G02*
X105947600Y-113703600I0J-125000D01*
G01*
G37*
G36*
G01*
X105947600Y-114353600D02*
X105947600Y-114603600D01*
G75*
G02*
X105822600Y-114728600I-125000J0D01*
G01*
X104497600Y-114728600D01*
G75*
G02*
X104372600Y-114603600I0J125000D01*
G01*
X104372600Y-114353600D01*
G75*
G02*
X104497600Y-114228600I125000J0D01*
G01*
X105822600Y-114228600D01*
G75*
G02*
X105947600Y-114353600I0J-125000D01*
G01*
G37*
G36*
G01*
X105947600Y-115003600D02*
X105947600Y-115253600D01*
G75*
G02*
X105822600Y-115378600I-125000J0D01*
G01*
X104497600Y-115378600D01*
G75*
G02*
X104372600Y-115253600I0J125000D01*
G01*
X104372600Y-115003600D01*
G75*
G02*
X104497600Y-114878600I125000J0D01*
G01*
X105822600Y-114878600D01*
G75*
G02*
X105947600Y-115003600I0J-125000D01*
G01*
G37*
G36*
G01*
X105947600Y-115653600D02*
X105947600Y-115903600D01*
G75*
G02*
X105822600Y-116028600I-125000J0D01*
G01*
X104497600Y-116028600D01*
G75*
G02*
X104372600Y-115903600I0J125000D01*
G01*
X104372600Y-115653600D01*
G75*
G02*
X104497600Y-115528600I125000J0D01*
G01*
X105822600Y-115528600D01*
G75*
G02*
X105947600Y-115653600I0J-125000D01*
G01*
G37*
G36*
G01*
X105947600Y-116303600D02*
X105947600Y-116553600D01*
G75*
G02*
X105822600Y-116678600I-125000J0D01*
G01*
X104497600Y-116678600D01*
G75*
G02*
X104372600Y-116553600I0J125000D01*
G01*
X104372600Y-116303600D01*
G75*
G02*
X104497600Y-116178600I125000J0D01*
G01*
X105822600Y-116178600D01*
G75*
G02*
X105947600Y-116303600I0J-125000D01*
G01*
G37*
G36*
G01*
X105947600Y-116953600D02*
X105947600Y-117203600D01*
G75*
G02*
X105822600Y-117328600I-125000J0D01*
G01*
X104497600Y-117328600D01*
G75*
G02*
X104372600Y-117203600I0J125000D01*
G01*
X104372600Y-116953600D01*
G75*
G02*
X104497600Y-116828600I125000J0D01*
G01*
X105822600Y-116828600D01*
G75*
G02*
X105947600Y-116953600I0J-125000D01*
G01*
G37*
G36*
G01*
X105947600Y-117603600D02*
X105947600Y-117853600D01*
G75*
G02*
X105822600Y-117978600I-125000J0D01*
G01*
X104497600Y-117978600D01*
G75*
G02*
X104372600Y-117853600I0J125000D01*
G01*
X104372600Y-117603600D01*
G75*
G02*
X104497600Y-117478600I125000J0D01*
G01*
X105822600Y-117478600D01*
G75*
G02*
X105947600Y-117603600I0J-125000D01*
G01*
G37*
G36*
G01*
X105947600Y-118253600D02*
X105947600Y-118503600D01*
G75*
G02*
X105822600Y-118628600I-125000J0D01*
G01*
X104497600Y-118628600D01*
G75*
G02*
X104372600Y-118503600I0J125000D01*
G01*
X104372600Y-118253600D01*
G75*
G02*
X104497600Y-118128600I125000J0D01*
G01*
X105822600Y-118128600D01*
G75*
G02*
X105947600Y-118253600I0J-125000D01*
G01*
G37*
%TD*%
D23*
%TO.C,SW3*%
X167530000Y-91885000D03*
X163030000Y-91885000D03*
X163030000Y-99835000D03*
X167530000Y-99835000D03*
%TD*%
%TO.C,SW2*%
X167530000Y-103315000D03*
X163030000Y-103315000D03*
X163030000Y-111265000D03*
X167530000Y-111265000D03*
%TD*%
D24*
%TO.C,SW1*%
X128600000Y-138420000D03*
X126100000Y-138420000D03*
X123600000Y-138420000D03*
X128600000Y-140820000D03*
X126100000Y-140820000D03*
X123600000Y-140820000D03*
%TD*%
%TO.C,R30*%
G36*
G01*
X143100000Y-74904338D02*
X143100000Y-75860862D01*
G75*
G02*
X142828262Y-76132600I-271738J0D01*
G01*
X142121738Y-76132600D01*
G75*
G02*
X141850000Y-75860862I0J271738D01*
G01*
X141850000Y-74904338D01*
G75*
G02*
X142121738Y-74632600I271738J0D01*
G01*
X142828262Y-74632600D01*
G75*
G02*
X143100000Y-74904338I0J-271738D01*
G01*
G37*
G36*
G01*
X145150000Y-74904338D02*
X145150000Y-75860862D01*
G75*
G02*
X144878262Y-76132600I-271738J0D01*
G01*
X144171738Y-76132600D01*
G75*
G02*
X143900000Y-75860862I0J271738D01*
G01*
X143900000Y-74904338D01*
G75*
G02*
X144171738Y-74632600I271738J0D01*
G01*
X144878262Y-74632600D01*
G75*
G02*
X145150000Y-74904338I0J-271738D01*
G01*
G37*
%TD*%
%TO.C,R29*%
G36*
G01*
X143925000Y-73778262D02*
X143925000Y-72821738D01*
G75*
G02*
X144196738Y-72550000I271738J0D01*
G01*
X144903262Y-72550000D01*
G75*
G02*
X145175000Y-72821738I0J-271738D01*
G01*
X145175000Y-73778262D01*
G75*
G02*
X144903262Y-74050000I-271738J0D01*
G01*
X144196738Y-74050000D01*
G75*
G02*
X143925000Y-73778262I0J271738D01*
G01*
G37*
G36*
G01*
X141875000Y-73778262D02*
X141875000Y-72821738D01*
G75*
G02*
X142146738Y-72550000I271738J0D01*
G01*
X142853262Y-72550000D01*
G75*
G02*
X143125000Y-72821738I0J-271738D01*
G01*
X143125000Y-73778262D01*
G75*
G02*
X142853262Y-74050000I-271738J0D01*
G01*
X142146738Y-74050000D01*
G75*
G02*
X141875000Y-73778262I0J271738D01*
G01*
G37*
%TD*%
%TO.C,R28*%
G36*
G01*
X143100000Y-70721738D02*
X143100000Y-71678262D01*
G75*
G02*
X142828262Y-71950000I-271738J0D01*
G01*
X142121738Y-71950000D01*
G75*
G02*
X141850000Y-71678262I0J271738D01*
G01*
X141850000Y-70721738D01*
G75*
G02*
X142121738Y-70450000I271738J0D01*
G01*
X142828262Y-70450000D01*
G75*
G02*
X143100000Y-70721738I0J-271738D01*
G01*
G37*
G36*
G01*
X145150000Y-70721738D02*
X145150000Y-71678262D01*
G75*
G02*
X144878262Y-71950000I-271738J0D01*
G01*
X144171738Y-71950000D01*
G75*
G02*
X143900000Y-71678262I0J271738D01*
G01*
X143900000Y-70721738D01*
G75*
G02*
X144171738Y-70450000I271738J0D01*
G01*
X144878262Y-70450000D01*
G75*
G02*
X145150000Y-70721738I0J-271738D01*
G01*
G37*
%TD*%
%TO.C,R27*%
G36*
G01*
X161510000Y-73671738D02*
X161510000Y-74628262D01*
G75*
G02*
X161238262Y-74900000I-271738J0D01*
G01*
X160531738Y-74900000D01*
G75*
G02*
X160260000Y-74628262I0J271738D01*
G01*
X160260000Y-73671738D01*
G75*
G02*
X160531738Y-73400000I271738J0D01*
G01*
X161238262Y-73400000D01*
G75*
G02*
X161510000Y-73671738I0J-271738D01*
G01*
G37*
G36*
G01*
X163560000Y-73671738D02*
X163560000Y-74628262D01*
G75*
G02*
X163288262Y-74900000I-271738J0D01*
G01*
X162581738Y-74900000D01*
G75*
G02*
X162310000Y-74628262I0J271738D01*
G01*
X162310000Y-73671738D01*
G75*
G02*
X162581738Y-73400000I271738J0D01*
G01*
X163288262Y-73400000D01*
G75*
G02*
X163560000Y-73671738I0J-271738D01*
G01*
G37*
%TD*%
%TO.C,R26*%
G36*
G01*
X178499600Y-67100938D02*
X178499600Y-68057462D01*
G75*
G02*
X178227862Y-68329200I-271738J0D01*
G01*
X177521338Y-68329200D01*
G75*
G02*
X177249600Y-68057462I0J271738D01*
G01*
X177249600Y-67100938D01*
G75*
G02*
X177521338Y-66829200I271738J0D01*
G01*
X178227862Y-66829200D01*
G75*
G02*
X178499600Y-67100938I0J-271738D01*
G01*
G37*
G36*
G01*
X180549600Y-67100938D02*
X180549600Y-68057462D01*
G75*
G02*
X180277862Y-68329200I-271738J0D01*
G01*
X179571338Y-68329200D01*
G75*
G02*
X179299600Y-68057462I0J271738D01*
G01*
X179299600Y-67100938D01*
G75*
G02*
X179571338Y-66829200I271738J0D01*
G01*
X180277862Y-66829200D01*
G75*
G02*
X180549600Y-67100938I0J-271738D01*
G01*
G37*
%TD*%
%TO.C,R25*%
G36*
G01*
X177255000Y-101441738D02*
X177255000Y-102398262D01*
G75*
G02*
X176983262Y-102670000I-271738J0D01*
G01*
X176276738Y-102670000D01*
G75*
G02*
X176005000Y-102398262I0J271738D01*
G01*
X176005000Y-101441738D01*
G75*
G02*
X176276738Y-101170000I271738J0D01*
G01*
X176983262Y-101170000D01*
G75*
G02*
X177255000Y-101441738I0J-271738D01*
G01*
G37*
G36*
G01*
X179305000Y-101441738D02*
X179305000Y-102398262D01*
G75*
G02*
X179033262Y-102670000I-271738J0D01*
G01*
X178326738Y-102670000D01*
G75*
G02*
X178055000Y-102398262I0J271738D01*
G01*
X178055000Y-101441738D01*
G75*
G02*
X178326738Y-101170000I271738J0D01*
G01*
X179033262Y-101170000D01*
G75*
G02*
X179305000Y-101441738I0J-271738D01*
G01*
G37*
%TD*%
%TO.C,R24*%
G36*
G01*
X177255000Y-97631738D02*
X177255000Y-98588262D01*
G75*
G02*
X176983262Y-98860000I-271738J0D01*
G01*
X176276738Y-98860000D01*
G75*
G02*
X176005000Y-98588262I0J271738D01*
G01*
X176005000Y-97631738D01*
G75*
G02*
X176276738Y-97360000I271738J0D01*
G01*
X176983262Y-97360000D01*
G75*
G02*
X177255000Y-97631738I0J-271738D01*
G01*
G37*
G36*
G01*
X179305000Y-97631738D02*
X179305000Y-98588262D01*
G75*
G02*
X179033262Y-98860000I-271738J0D01*
G01*
X178326738Y-98860000D01*
G75*
G02*
X178055000Y-98588262I0J271738D01*
G01*
X178055000Y-97631738D01*
G75*
G02*
X178326738Y-97360000I271738J0D01*
G01*
X179033262Y-97360000D01*
G75*
G02*
X179305000Y-97631738I0J-271738D01*
G01*
G37*
%TD*%
%TO.C,R23*%
G36*
G01*
X160043262Y-111725000D02*
X159086738Y-111725000D01*
G75*
G02*
X158815000Y-111453262I0J271738D01*
G01*
X158815000Y-110746738D01*
G75*
G02*
X159086738Y-110475000I271738J0D01*
G01*
X160043262Y-110475000D01*
G75*
G02*
X160315000Y-110746738I0J-271738D01*
G01*
X160315000Y-111453262D01*
G75*
G02*
X160043262Y-111725000I-271738J0D01*
G01*
G37*
G36*
G01*
X160043262Y-113775000D02*
X159086738Y-113775000D01*
G75*
G02*
X158815000Y-113503262I0J271738D01*
G01*
X158815000Y-112796738D01*
G75*
G02*
X159086738Y-112525000I271738J0D01*
G01*
X160043262Y-112525000D01*
G75*
G02*
X160315000Y-112796738I0J-271738D01*
G01*
X160315000Y-113503262D01*
G75*
G02*
X160043262Y-113775000I-271738J0D01*
G01*
G37*
%TD*%
%TO.C,R22*%
G36*
G01*
X170838262Y-98635000D02*
X169881738Y-98635000D01*
G75*
G02*
X169610000Y-98363262I0J271738D01*
G01*
X169610000Y-97656738D01*
G75*
G02*
X169881738Y-97385000I271738J0D01*
G01*
X170838262Y-97385000D01*
G75*
G02*
X171110000Y-97656738I0J-271738D01*
G01*
X171110000Y-98363262D01*
G75*
G02*
X170838262Y-98635000I-271738J0D01*
G01*
G37*
G36*
G01*
X170838262Y-100685000D02*
X169881738Y-100685000D01*
G75*
G02*
X169610000Y-100413262I0J271738D01*
G01*
X169610000Y-99706738D01*
G75*
G02*
X169881738Y-99435000I271738J0D01*
G01*
X170838262Y-99435000D01*
G75*
G02*
X171110000Y-99706738I0J-271738D01*
G01*
X171110000Y-100413262D01*
G75*
G02*
X170838262Y-100685000I-271738J0D01*
G01*
G37*
%TD*%
%TO.C,R21*%
G36*
G01*
X169881738Y-104515000D02*
X170838262Y-104515000D01*
G75*
G02*
X171110000Y-104786738I0J-271738D01*
G01*
X171110000Y-105493262D01*
G75*
G02*
X170838262Y-105765000I-271738J0D01*
G01*
X169881738Y-105765000D01*
G75*
G02*
X169610000Y-105493262I0J271738D01*
G01*
X169610000Y-104786738D01*
G75*
G02*
X169881738Y-104515000I271738J0D01*
G01*
G37*
G36*
G01*
X169881738Y-102465000D02*
X170838262Y-102465000D01*
G75*
G02*
X171110000Y-102736738I0J-271738D01*
G01*
X171110000Y-103443262D01*
G75*
G02*
X170838262Y-103715000I-271738J0D01*
G01*
X169881738Y-103715000D01*
G75*
G02*
X169610000Y-103443262I0J271738D01*
G01*
X169610000Y-102736738D01*
G75*
G02*
X169881738Y-102465000I271738J0D01*
G01*
G37*
%TD*%
%TO.C,R20*%
G36*
G01*
X116827600Y-78829462D02*
X116827600Y-77872938D01*
G75*
G02*
X117099338Y-77601200I271738J0D01*
G01*
X117805862Y-77601200D01*
G75*
G02*
X118077600Y-77872938I0J-271738D01*
G01*
X118077600Y-78829462D01*
G75*
G02*
X117805862Y-79101200I-271738J0D01*
G01*
X117099338Y-79101200D01*
G75*
G02*
X116827600Y-78829462I0J271738D01*
G01*
G37*
G36*
G01*
X114777600Y-78829462D02*
X114777600Y-77872938D01*
G75*
G02*
X115049338Y-77601200I271738J0D01*
G01*
X115755862Y-77601200D01*
G75*
G02*
X116027600Y-77872938I0J-271738D01*
G01*
X116027600Y-78829462D01*
G75*
G02*
X115755862Y-79101200I-271738J0D01*
G01*
X115049338Y-79101200D01*
G75*
G02*
X114777600Y-78829462I0J271738D01*
G01*
G37*
%TD*%
%TO.C,R19*%
G36*
G01*
X116878400Y-76238662D02*
X116878400Y-75282138D01*
G75*
G02*
X117150138Y-75010400I271738J0D01*
G01*
X117856662Y-75010400D01*
G75*
G02*
X118128400Y-75282138I0J-271738D01*
G01*
X118128400Y-76238662D01*
G75*
G02*
X117856662Y-76510400I-271738J0D01*
G01*
X117150138Y-76510400D01*
G75*
G02*
X116878400Y-76238662I0J271738D01*
G01*
G37*
G36*
G01*
X114828400Y-76238662D02*
X114828400Y-75282138D01*
G75*
G02*
X115100138Y-75010400I271738J0D01*
G01*
X115806662Y-75010400D01*
G75*
G02*
X116078400Y-75282138I0J-271738D01*
G01*
X116078400Y-76238662D01*
G75*
G02*
X115806662Y-76510400I-271738J0D01*
G01*
X115100138Y-76510400D01*
G75*
G02*
X114828400Y-76238662I0J271738D01*
G01*
G37*
%TD*%
%TO.C,R18*%
G36*
G01*
X94046538Y-77444200D02*
X95003062Y-77444200D01*
G75*
G02*
X95274800Y-77715938I0J-271738D01*
G01*
X95274800Y-78422462D01*
G75*
G02*
X95003062Y-78694200I-271738J0D01*
G01*
X94046538Y-78694200D01*
G75*
G02*
X93774800Y-78422462I0J271738D01*
G01*
X93774800Y-77715938D01*
G75*
G02*
X94046538Y-77444200I271738J0D01*
G01*
G37*
G36*
G01*
X94046538Y-75394200D02*
X95003062Y-75394200D01*
G75*
G02*
X95274800Y-75665938I0J-271738D01*
G01*
X95274800Y-76372462D01*
G75*
G02*
X95003062Y-76644200I-271738J0D01*
G01*
X94046538Y-76644200D01*
G75*
G02*
X93774800Y-76372462I0J271738D01*
G01*
X93774800Y-75665938D01*
G75*
G02*
X94046538Y-75394200I271738J0D01*
G01*
G37*
%TD*%
%TO.C,R17*%
G36*
G01*
X92905600Y-73559738D02*
X92905600Y-74516262D01*
G75*
G02*
X92633862Y-74788000I-271738J0D01*
G01*
X91927338Y-74788000D01*
G75*
G02*
X91655600Y-74516262I0J271738D01*
G01*
X91655600Y-73559738D01*
G75*
G02*
X91927338Y-73288000I271738J0D01*
G01*
X92633862Y-73288000D01*
G75*
G02*
X92905600Y-73559738I0J-271738D01*
G01*
G37*
G36*
G01*
X94955600Y-73559738D02*
X94955600Y-74516262D01*
G75*
G02*
X94683862Y-74788000I-271738J0D01*
G01*
X93977338Y-74788000D01*
G75*
G02*
X93705600Y-74516262I0J271738D01*
G01*
X93705600Y-73559738D01*
G75*
G02*
X93977338Y-73288000I271738J0D01*
G01*
X94683862Y-73288000D01*
G75*
G02*
X94955600Y-73559738I0J-271738D01*
G01*
G37*
%TD*%
%TO.C,R16*%
G36*
G01*
X107864138Y-78806800D02*
X108820662Y-78806800D01*
G75*
G02*
X109092400Y-79078538I0J-271738D01*
G01*
X109092400Y-79785062D01*
G75*
G02*
X108820662Y-80056800I-271738J0D01*
G01*
X107864138Y-80056800D01*
G75*
G02*
X107592400Y-79785062I0J271738D01*
G01*
X107592400Y-79078538D01*
G75*
G02*
X107864138Y-78806800I271738J0D01*
G01*
G37*
G36*
G01*
X107864138Y-76756800D02*
X108820662Y-76756800D01*
G75*
G02*
X109092400Y-77028538I0J-271738D01*
G01*
X109092400Y-77735062D01*
G75*
G02*
X108820662Y-78006800I-271738J0D01*
G01*
X107864138Y-78006800D01*
G75*
G02*
X107592400Y-77735062I0J271738D01*
G01*
X107592400Y-77028538D01*
G75*
G02*
X107864138Y-76756800I271738J0D01*
G01*
G37*
%TD*%
%TO.C,R15*%
G36*
G01*
X110105000Y-75684662D02*
X110105000Y-74728138D01*
G75*
G02*
X110376738Y-74456400I271738J0D01*
G01*
X111083262Y-74456400D01*
G75*
G02*
X111355000Y-74728138I0J-271738D01*
G01*
X111355000Y-75684662D01*
G75*
G02*
X111083262Y-75956400I-271738J0D01*
G01*
X110376738Y-75956400D01*
G75*
G02*
X110105000Y-75684662I0J271738D01*
G01*
G37*
G36*
G01*
X108055000Y-75684662D02*
X108055000Y-74728138D01*
G75*
G02*
X108326738Y-74456400I271738J0D01*
G01*
X109033262Y-74456400D01*
G75*
G02*
X109305000Y-74728138I0J-271738D01*
G01*
X109305000Y-75684662D01*
G75*
G02*
X109033262Y-75956400I-271738J0D01*
G01*
X108326738Y-75956400D01*
G75*
G02*
X108055000Y-75684662I0J271738D01*
G01*
G37*
%TD*%
%TO.C,R14*%
G36*
G01*
X95003062Y-80648400D02*
X94046538Y-80648400D01*
G75*
G02*
X93774800Y-80376662I0J271738D01*
G01*
X93774800Y-79670138D01*
G75*
G02*
X94046538Y-79398400I271738J0D01*
G01*
X95003062Y-79398400D01*
G75*
G02*
X95274800Y-79670138I0J-271738D01*
G01*
X95274800Y-80376662D01*
G75*
G02*
X95003062Y-80648400I-271738J0D01*
G01*
G37*
G36*
G01*
X95003062Y-82698400D02*
X94046538Y-82698400D01*
G75*
G02*
X93774800Y-82426662I0J271738D01*
G01*
X93774800Y-81720138D01*
G75*
G02*
X94046538Y-81448400I271738J0D01*
G01*
X95003062Y-81448400D01*
G75*
G02*
X95274800Y-81720138I0J-271738D01*
G01*
X95274800Y-82426662D01*
G75*
G02*
X95003062Y-82698400I-271738J0D01*
G01*
G37*
%TD*%
%TO.C,R13*%
G36*
G01*
X108922262Y-82020000D02*
X107965738Y-82020000D01*
G75*
G02*
X107694000Y-81748262I0J271738D01*
G01*
X107694000Y-81041738D01*
G75*
G02*
X107965738Y-80770000I271738J0D01*
G01*
X108922262Y-80770000D01*
G75*
G02*
X109194000Y-81041738I0J-271738D01*
G01*
X109194000Y-81748262D01*
G75*
G02*
X108922262Y-82020000I-271738J0D01*
G01*
G37*
G36*
G01*
X108922262Y-84070000D02*
X107965738Y-84070000D01*
G75*
G02*
X107694000Y-83798262I0J271738D01*
G01*
X107694000Y-83091738D01*
G75*
G02*
X107965738Y-82820000I271738J0D01*
G01*
X108922262Y-82820000D01*
G75*
G02*
X109194000Y-83091738I0J-271738D01*
G01*
X109194000Y-83798262D01*
G75*
G02*
X108922262Y-84070000I-271738J0D01*
G01*
G37*
%TD*%
%TO.C,R12*%
G36*
G01*
X106578262Y-87700000D02*
X105621738Y-87700000D01*
G75*
G02*
X105350000Y-87428262I0J271738D01*
G01*
X105350000Y-86721738D01*
G75*
G02*
X105621738Y-86450000I271738J0D01*
G01*
X106578262Y-86450000D01*
G75*
G02*
X106850000Y-86721738I0J-271738D01*
G01*
X106850000Y-87428262D01*
G75*
G02*
X106578262Y-87700000I-271738J0D01*
G01*
G37*
G36*
G01*
X106578262Y-89750000D02*
X105621738Y-89750000D01*
G75*
G02*
X105350000Y-89478262I0J271738D01*
G01*
X105350000Y-88771738D01*
G75*
G02*
X105621738Y-88500000I271738J0D01*
G01*
X106578262Y-88500000D01*
G75*
G02*
X106850000Y-88771738I0J-271738D01*
G01*
X106850000Y-89478262D01*
G75*
G02*
X106578262Y-89750000I-271738J0D01*
G01*
G37*
%TD*%
%TO.C,R11*%
G36*
G01*
X95378262Y-87700000D02*
X94421738Y-87700000D01*
G75*
G02*
X94150000Y-87428262I0J271738D01*
G01*
X94150000Y-86721738D01*
G75*
G02*
X94421738Y-86450000I271738J0D01*
G01*
X95378262Y-86450000D01*
G75*
G02*
X95650000Y-86721738I0J-271738D01*
G01*
X95650000Y-87428262D01*
G75*
G02*
X95378262Y-87700000I-271738J0D01*
G01*
G37*
G36*
G01*
X95378262Y-89750000D02*
X94421738Y-89750000D01*
G75*
G02*
X94150000Y-89478262I0J271738D01*
G01*
X94150000Y-88771738D01*
G75*
G02*
X94421738Y-88500000I271738J0D01*
G01*
X95378262Y-88500000D01*
G75*
G02*
X95650000Y-88771738I0J-271738D01*
G01*
X95650000Y-89478262D01*
G75*
G02*
X95378262Y-89750000I-271738J0D01*
G01*
G37*
%TD*%
%TO.C,R10*%
G36*
G01*
X102878262Y-87650000D02*
X101921738Y-87650000D01*
G75*
G02*
X101650000Y-87378262I0J271738D01*
G01*
X101650000Y-86671738D01*
G75*
G02*
X101921738Y-86400000I271738J0D01*
G01*
X102878262Y-86400000D01*
G75*
G02*
X103150000Y-86671738I0J-271738D01*
G01*
X103150000Y-87378262D01*
G75*
G02*
X102878262Y-87650000I-271738J0D01*
G01*
G37*
G36*
G01*
X102878262Y-89700000D02*
X101921738Y-89700000D01*
G75*
G02*
X101650000Y-89428262I0J271738D01*
G01*
X101650000Y-88721738D01*
G75*
G02*
X101921738Y-88450000I271738J0D01*
G01*
X102878262Y-88450000D01*
G75*
G02*
X103150000Y-88721738I0J-271738D01*
G01*
X103150000Y-89428262D01*
G75*
G02*
X102878262Y-89700000I-271738J0D01*
G01*
G37*
%TD*%
%TO.C,R9*%
G36*
G01*
X99178262Y-87700000D02*
X98221738Y-87700000D01*
G75*
G02*
X97950000Y-87428262I0J271738D01*
G01*
X97950000Y-86721738D01*
G75*
G02*
X98221738Y-86450000I271738J0D01*
G01*
X99178262Y-86450000D01*
G75*
G02*
X99450000Y-86721738I0J-271738D01*
G01*
X99450000Y-87428262D01*
G75*
G02*
X99178262Y-87700000I-271738J0D01*
G01*
G37*
G36*
G01*
X99178262Y-89750000D02*
X98221738Y-89750000D01*
G75*
G02*
X97950000Y-89478262I0J271738D01*
G01*
X97950000Y-88771738D01*
G75*
G02*
X98221738Y-88500000I271738J0D01*
G01*
X99178262Y-88500000D01*
G75*
G02*
X99450000Y-88771738I0J-271738D01*
G01*
X99450000Y-89478262D01*
G75*
G02*
X99178262Y-89750000I-271738J0D01*
G01*
G37*
%TD*%
%TO.C,R8*%
G36*
G01*
X110490800Y-105136662D02*
X110490800Y-104180138D01*
G75*
G02*
X110762538Y-103908400I271738J0D01*
G01*
X111469062Y-103908400D01*
G75*
G02*
X111740800Y-104180138I0J-271738D01*
G01*
X111740800Y-105136662D01*
G75*
G02*
X111469062Y-105408400I-271738J0D01*
G01*
X110762538Y-105408400D01*
G75*
G02*
X110490800Y-105136662I0J271738D01*
G01*
G37*
G36*
G01*
X108440800Y-105136662D02*
X108440800Y-104180138D01*
G75*
G02*
X108712538Y-103908400I271738J0D01*
G01*
X109419062Y-103908400D01*
G75*
G02*
X109690800Y-104180138I0J-271738D01*
G01*
X109690800Y-105136662D01*
G75*
G02*
X109419062Y-105408400I-271738J0D01*
G01*
X108712538Y-105408400D01*
G75*
G02*
X108440800Y-105136662I0J271738D01*
G01*
G37*
%TD*%
%TO.C,R7*%
G36*
G01*
X137493400Y-109533862D02*
X137493400Y-108577338D01*
G75*
G02*
X137765138Y-108305600I271738J0D01*
G01*
X138471662Y-108305600D01*
G75*
G02*
X138743400Y-108577338I0J-271738D01*
G01*
X138743400Y-109533862D01*
G75*
G02*
X138471662Y-109805600I-271738J0D01*
G01*
X137765138Y-109805600D01*
G75*
G02*
X137493400Y-109533862I0J271738D01*
G01*
G37*
G36*
G01*
X135443400Y-109533862D02*
X135443400Y-108577338D01*
G75*
G02*
X135715138Y-108305600I271738J0D01*
G01*
X136421662Y-108305600D01*
G75*
G02*
X136693400Y-108577338I0J-271738D01*
G01*
X136693400Y-109533862D01*
G75*
G02*
X136421662Y-109805600I-271738J0D01*
G01*
X135715138Y-109805600D01*
G75*
G02*
X135443400Y-109533862I0J271738D01*
G01*
G37*
%TD*%
%TO.C,R6*%
G36*
G01*
X132700000Y-112621738D02*
X132700000Y-113578262D01*
G75*
G02*
X132428262Y-113850000I-271738J0D01*
G01*
X131721738Y-113850000D01*
G75*
G02*
X131450000Y-113578262I0J271738D01*
G01*
X131450000Y-112621738D01*
G75*
G02*
X131721738Y-112350000I271738J0D01*
G01*
X132428262Y-112350000D01*
G75*
G02*
X132700000Y-112621738I0J-271738D01*
G01*
G37*
G36*
G01*
X134750000Y-112621738D02*
X134750000Y-113578262D01*
G75*
G02*
X134478262Y-113850000I-271738J0D01*
G01*
X133771738Y-113850000D01*
G75*
G02*
X133500000Y-113578262I0J271738D01*
G01*
X133500000Y-112621738D01*
G75*
G02*
X133771738Y-112350000I271738J0D01*
G01*
X134478262Y-112350000D01*
G75*
G02*
X134750000Y-112621738I0J-271738D01*
G01*
G37*
%TD*%
%TO.C,R5*%
G36*
G01*
X136744200Y-113036938D02*
X136744200Y-113993462D01*
G75*
G02*
X136472462Y-114265200I-271738J0D01*
G01*
X135765938Y-114265200D01*
G75*
G02*
X135494200Y-113993462I0J271738D01*
G01*
X135494200Y-113036938D01*
G75*
G02*
X135765938Y-112765200I271738J0D01*
G01*
X136472462Y-112765200D01*
G75*
G02*
X136744200Y-113036938I0J-271738D01*
G01*
G37*
G36*
G01*
X138794200Y-113036938D02*
X138794200Y-113993462D01*
G75*
G02*
X138522462Y-114265200I-271738J0D01*
G01*
X137815938Y-114265200D01*
G75*
G02*
X137544200Y-113993462I0J271738D01*
G01*
X137544200Y-113036938D01*
G75*
G02*
X137815938Y-112765200I271738J0D01*
G01*
X138522462Y-112765200D01*
G75*
G02*
X138794200Y-113036938I0J-271738D01*
G01*
G37*
%TD*%
%TO.C,R4*%
G36*
G01*
X129000000Y-109921738D02*
X129000000Y-110878262D01*
G75*
G02*
X128728262Y-111150000I-271738J0D01*
G01*
X128021738Y-111150000D01*
G75*
G02*
X127750000Y-110878262I0J271738D01*
G01*
X127750000Y-109921738D01*
G75*
G02*
X128021738Y-109650000I271738J0D01*
G01*
X128728262Y-109650000D01*
G75*
G02*
X129000000Y-109921738I0J-271738D01*
G01*
G37*
G36*
G01*
X131050000Y-109921738D02*
X131050000Y-110878262D01*
G75*
G02*
X130778262Y-111150000I-271738J0D01*
G01*
X130071738Y-111150000D01*
G75*
G02*
X129800000Y-110878262I0J271738D01*
G01*
X129800000Y-109921738D01*
G75*
G02*
X130071738Y-109650000I271738J0D01*
G01*
X130778262Y-109650000D01*
G75*
G02*
X131050000Y-109921738I0J-271738D01*
G01*
G37*
%TD*%
%TO.C,R3*%
G36*
G01*
X101000000Y-112378262D02*
X101000000Y-111421738D01*
G75*
G02*
X101271738Y-111150000I271738J0D01*
G01*
X101978262Y-111150000D01*
G75*
G02*
X102250000Y-111421738I0J-271738D01*
G01*
X102250000Y-112378262D01*
G75*
G02*
X101978262Y-112650000I-271738J0D01*
G01*
X101271738Y-112650000D01*
G75*
G02*
X101000000Y-112378262I0J271738D01*
G01*
G37*
G36*
G01*
X98950000Y-112378262D02*
X98950000Y-111421738D01*
G75*
G02*
X99221738Y-111150000I271738J0D01*
G01*
X99928262Y-111150000D01*
G75*
G02*
X100200000Y-111421738I0J-271738D01*
G01*
X100200000Y-112378262D01*
G75*
G02*
X99928262Y-112650000I-271738J0D01*
G01*
X99221738Y-112650000D01*
G75*
G02*
X98950000Y-112378262I0J271738D01*
G01*
G37*
%TD*%
%TO.C,R2*%
G36*
G01*
X98189200Y-106989338D02*
X98189200Y-107945862D01*
G75*
G02*
X97917462Y-108217600I-271738J0D01*
G01*
X97210938Y-108217600D01*
G75*
G02*
X96939200Y-107945862I0J271738D01*
G01*
X96939200Y-106989338D01*
G75*
G02*
X97210938Y-106717600I271738J0D01*
G01*
X97917462Y-106717600D01*
G75*
G02*
X98189200Y-106989338I0J-271738D01*
G01*
G37*
G36*
G01*
X100239200Y-106989338D02*
X100239200Y-107945862D01*
G75*
G02*
X99967462Y-108217600I-271738J0D01*
G01*
X99260938Y-108217600D01*
G75*
G02*
X98989200Y-107945862I0J271738D01*
G01*
X98989200Y-106989338D01*
G75*
G02*
X99260938Y-106717600I271738J0D01*
G01*
X99967462Y-106717600D01*
G75*
G02*
X100239200Y-106989338I0J-271738D01*
G01*
G37*
%TD*%
%TO.C,R1*%
G36*
G01*
X102253200Y-106989338D02*
X102253200Y-107945862D01*
G75*
G02*
X101981462Y-108217600I-271738J0D01*
G01*
X101274938Y-108217600D01*
G75*
G02*
X101003200Y-107945862I0J271738D01*
G01*
X101003200Y-106989338D01*
G75*
G02*
X101274938Y-106717600I271738J0D01*
G01*
X101981462Y-106717600D01*
G75*
G02*
X102253200Y-106989338I0J-271738D01*
G01*
G37*
G36*
G01*
X104303200Y-106989338D02*
X104303200Y-107945862D01*
G75*
G02*
X104031462Y-108217600I-271738J0D01*
G01*
X103324938Y-108217600D01*
G75*
G02*
X103053200Y-107945862I0J271738D01*
G01*
X103053200Y-106989338D01*
G75*
G02*
X103324938Y-106717600I271738J0D01*
G01*
X104031462Y-106717600D01*
G75*
G02*
X104303200Y-106989338I0J-271738D01*
G01*
G37*
%TD*%
D25*
%TO.C,Q5*%
X160057600Y-134519200D03*
X162057600Y-133569200D03*
X162057600Y-135469200D03*
%TD*%
D26*
%TO.C,Q4*%
X112326000Y-108630200D03*
X111376000Y-106630200D03*
X113276000Y-106630200D03*
%TD*%
%TO.C,Q3*%
X133325200Y-109224000D03*
X134275200Y-111224000D03*
X132375200Y-111224000D03*
%TD*%
%TO.C,Q2*%
X133274400Y-105261600D03*
X134224400Y-107261600D03*
X132324400Y-107261600D03*
%TD*%
D25*
%TO.C,Q1*%
X132200000Y-116500000D03*
X134200000Y-115550000D03*
X134200000Y-117450000D03*
%TD*%
D21*
%TO.C,MK1*%
X151505000Y-78910000D03*
D22*
X148965000Y-78910000D03*
%TD*%
D19*
%TO.C,L3*%
X160346400Y-126950000D03*
X165426400Y-126950000D03*
%TD*%
%TO.C,L2*%
X111770000Y-124142800D03*
X116850000Y-124142800D03*
%TD*%
%TO.C,L1*%
X122520000Y-124150000D03*
X127600000Y-124150000D03*
%TD*%
D21*
%TO.C,J13*%
X165375600Y-139142000D03*
X162835600Y-139142000D03*
D22*
X160295600Y-139142000D03*
%TD*%
D27*
%TO.C,J12*%
X164995000Y-56595000D03*
D28*
X170195000Y-64595000D03*
X167495000Y-63395000D03*
D27*
X160895000Y-67795000D03*
D29*
X160395000Y-60495000D03*
%TD*%
D27*
%TO.C,J11*%
X149120000Y-56595000D03*
D28*
X154320000Y-64595000D03*
X151620000Y-63395000D03*
D27*
X145020000Y-67795000D03*
D29*
X144520000Y-60495000D03*
%TD*%
D22*
%TO.C,J8*%
X137400000Y-138700000D03*
D21*
X139940000Y-138700000D03*
X142480000Y-138700000D03*
X145020000Y-138700000D03*
X147560000Y-138700000D03*
X150100000Y-138700000D03*
X152640000Y-138700000D03*
%TD*%
D22*
%TO.C,J7*%
X149650000Y-124550000D03*
D21*
X149650000Y-127090000D03*
%TD*%
D22*
%TO.C,J6*%
X144400000Y-124550000D03*
D21*
X144400000Y-127090000D03*
%TD*%
D22*
%TO.C,J5*%
X139150000Y-124550000D03*
D21*
X139150000Y-127090000D03*
%TD*%
D22*
%TO.C,J4*%
X138900000Y-134200000D03*
D21*
X141440000Y-134200000D03*
X143980000Y-134200000D03*
X146520000Y-134200000D03*
X149060000Y-134200000D03*
%TD*%
%TO.C,J2*%
X109920000Y-139600000D03*
X112460000Y-139600000D03*
D22*
X115000000Y-139600000D03*
%TD*%
D13*
%TO.C,C30*%
X122850000Y-133900000D03*
X122850000Y-131400000D03*
%TD*%
%TO.C,C29*%
G36*
G01*
X100868800Y-120493462D02*
X100868800Y-119536938D01*
G75*
G02*
X101140538Y-119265200I271738J0D01*
G01*
X101847062Y-119265200D01*
G75*
G02*
X102118800Y-119536938I0J-271738D01*
G01*
X102118800Y-120493462D01*
G75*
G02*
X101847062Y-120765200I-271738J0D01*
G01*
X101140538Y-120765200D01*
G75*
G02*
X100868800Y-120493462I0J271738D01*
G01*
G37*
G36*
G01*
X98818800Y-120493462D02*
X98818800Y-119536938D01*
G75*
G02*
X99090538Y-119265200I271738J0D01*
G01*
X99797062Y-119265200D01*
G75*
G02*
X100068800Y-119536938I0J-271738D01*
G01*
X100068800Y-120493462D01*
G75*
G02*
X99797062Y-120765200I-271738J0D01*
G01*
X99090538Y-120765200D01*
G75*
G02*
X98818800Y-120493462I0J271738D01*
G01*
G37*
%TD*%
%TO.C,C28*%
G36*
G01*
X147061400Y-72792338D02*
X147061400Y-73748862D01*
G75*
G02*
X146789662Y-74020600I-271738J0D01*
G01*
X146083138Y-74020600D01*
G75*
G02*
X145811400Y-73748862I0J271738D01*
G01*
X145811400Y-72792338D01*
G75*
G02*
X146083138Y-72520600I271738J0D01*
G01*
X146789662Y-72520600D01*
G75*
G02*
X147061400Y-72792338I0J-271738D01*
G01*
G37*
G36*
G01*
X149111400Y-72792338D02*
X149111400Y-73748862D01*
G75*
G02*
X148839662Y-74020600I-271738J0D01*
G01*
X148133138Y-74020600D01*
G75*
G02*
X147861400Y-73748862I0J271738D01*
G01*
X147861400Y-72792338D01*
G75*
G02*
X148133138Y-72520600I271738J0D01*
G01*
X148839662Y-72520600D01*
G75*
G02*
X149111400Y-72792338I0J-271738D01*
G01*
G37*
%TD*%
%TO.C,C27*%
G36*
G01*
X147899800Y-71695262D02*
X147899800Y-70738738D01*
G75*
G02*
X148171538Y-70467000I271738J0D01*
G01*
X148878062Y-70467000D01*
G75*
G02*
X149149800Y-70738738I0J-271738D01*
G01*
X149149800Y-71695262D01*
G75*
G02*
X148878062Y-71967000I-271738J0D01*
G01*
X148171538Y-71967000D01*
G75*
G02*
X147899800Y-71695262I0J271738D01*
G01*
G37*
G36*
G01*
X145849800Y-71695262D02*
X145849800Y-70738738D01*
G75*
G02*
X146121538Y-70467000I271738J0D01*
G01*
X146828062Y-70467000D01*
G75*
G02*
X147099800Y-70738738I0J-271738D01*
G01*
X147099800Y-71695262D01*
G75*
G02*
X146828062Y-71967000I-271738J0D01*
G01*
X146121538Y-71967000D01*
G75*
G02*
X145849800Y-71695262I0J271738D01*
G01*
G37*
%TD*%
%TO.C,C26*%
G36*
G01*
X166590000Y-71446738D02*
X166590000Y-72403262D01*
G75*
G02*
X166318262Y-72675000I-271738J0D01*
G01*
X165611738Y-72675000D01*
G75*
G02*
X165340000Y-72403262I0J271738D01*
G01*
X165340000Y-71446738D01*
G75*
G02*
X165611738Y-71175000I271738J0D01*
G01*
X166318262Y-71175000D01*
G75*
G02*
X166590000Y-71446738I0J-271738D01*
G01*
G37*
G36*
G01*
X168640000Y-71446738D02*
X168640000Y-72403262D01*
G75*
G02*
X168368262Y-72675000I-271738J0D01*
G01*
X167661738Y-72675000D01*
G75*
G02*
X167390000Y-72403262I0J271738D01*
G01*
X167390000Y-71446738D01*
G75*
G02*
X167661738Y-71175000I271738J0D01*
G01*
X168368262Y-71175000D01*
G75*
G02*
X168640000Y-71446738I0J-271738D01*
G01*
G37*
%TD*%
%TO.C,C25*%
G36*
G01*
X166590000Y-73671738D02*
X166590000Y-74628262D01*
G75*
G02*
X166318262Y-74900000I-271738J0D01*
G01*
X165611738Y-74900000D01*
G75*
G02*
X165340000Y-74628262I0J271738D01*
G01*
X165340000Y-73671738D01*
G75*
G02*
X165611738Y-73400000I271738J0D01*
G01*
X166318262Y-73400000D01*
G75*
G02*
X166590000Y-73671738I0J-271738D01*
G01*
G37*
G36*
G01*
X168640000Y-73671738D02*
X168640000Y-74628262D01*
G75*
G02*
X168368262Y-74900000I-271738J0D01*
G01*
X167661738Y-74900000D01*
G75*
G02*
X167390000Y-74628262I0J271738D01*
G01*
X167390000Y-73671738D01*
G75*
G02*
X167661738Y-73400000I271738J0D01*
G01*
X168368262Y-73400000D01*
G75*
G02*
X168640000Y-73671738I0J-271738D01*
G01*
G37*
%TD*%
%TO.C,C24*%
G36*
G01*
X162310000Y-72403262D02*
X162310000Y-71446738D01*
G75*
G02*
X162581738Y-71175000I271738J0D01*
G01*
X163288262Y-71175000D01*
G75*
G02*
X163560000Y-71446738I0J-271738D01*
G01*
X163560000Y-72403262D01*
G75*
G02*
X163288262Y-72675000I-271738J0D01*
G01*
X162581738Y-72675000D01*
G75*
G02*
X162310000Y-72403262I0J271738D01*
G01*
G37*
G36*
G01*
X160260000Y-72403262D02*
X160260000Y-71446738D01*
G75*
G02*
X160531738Y-71175000I271738J0D01*
G01*
X161238262Y-71175000D01*
G75*
G02*
X161510000Y-71446738I0J-271738D01*
G01*
X161510000Y-72403262D01*
G75*
G02*
X161238262Y-72675000I-271738J0D01*
G01*
X160531738Y-72675000D01*
G75*
G02*
X160260000Y-72403262I0J271738D01*
G01*
G37*
%TD*%
%TO.C,C23*%
G36*
G01*
X168328262Y-123250000D02*
X167371738Y-123250000D01*
G75*
G02*
X167100000Y-122978262I0J271738D01*
G01*
X167100000Y-122271738D01*
G75*
G02*
X167371738Y-122000000I271738J0D01*
G01*
X168328262Y-122000000D01*
G75*
G02*
X168600000Y-122271738I0J-271738D01*
G01*
X168600000Y-122978262D01*
G75*
G02*
X168328262Y-123250000I-271738J0D01*
G01*
G37*
G36*
G01*
X168328262Y-125300000D02*
X167371738Y-125300000D01*
G75*
G02*
X167100000Y-125028262I0J271738D01*
G01*
X167100000Y-124321738D01*
G75*
G02*
X167371738Y-124050000I271738J0D01*
G01*
X168328262Y-124050000D01*
G75*
G02*
X168600000Y-124321738I0J-271738D01*
G01*
X168600000Y-125028262D01*
G75*
G02*
X168328262Y-125300000I-271738J0D01*
G01*
G37*
%TD*%
%TO.C,C22*%
G36*
G01*
X91608138Y-77444200D02*
X92564662Y-77444200D01*
G75*
G02*
X92836400Y-77715938I0J-271738D01*
G01*
X92836400Y-78422462D01*
G75*
G02*
X92564662Y-78694200I-271738J0D01*
G01*
X91608138Y-78694200D01*
G75*
G02*
X91336400Y-78422462I0J271738D01*
G01*
X91336400Y-77715938D01*
G75*
G02*
X91608138Y-77444200I271738J0D01*
G01*
G37*
G36*
G01*
X91608138Y-75394200D02*
X92564662Y-75394200D01*
G75*
G02*
X92836400Y-75665938I0J-271738D01*
G01*
X92836400Y-76372462D01*
G75*
G02*
X92564662Y-76644200I-271738J0D01*
G01*
X91608138Y-76644200D01*
G75*
G02*
X91336400Y-76372462I0J271738D01*
G01*
X91336400Y-75665938D01*
G75*
G02*
X91608138Y-75394200I271738J0D01*
G01*
G37*
%TD*%
%TO.C,C21*%
G36*
G01*
X110302538Y-78765000D02*
X111259062Y-78765000D01*
G75*
G02*
X111530800Y-79036738I0J-271738D01*
G01*
X111530800Y-79743262D01*
G75*
G02*
X111259062Y-80015000I-271738J0D01*
G01*
X110302538Y-80015000D01*
G75*
G02*
X110030800Y-79743262I0J271738D01*
G01*
X110030800Y-79036738D01*
G75*
G02*
X110302538Y-78765000I271738J0D01*
G01*
G37*
G36*
G01*
X110302538Y-76715000D02*
X111259062Y-76715000D01*
G75*
G02*
X111530800Y-76986738I0J-271738D01*
G01*
X111530800Y-77693262D01*
G75*
G02*
X111259062Y-77965000I-271738J0D01*
G01*
X110302538Y-77965000D01*
G75*
G02*
X110030800Y-77693262I0J271738D01*
G01*
X110030800Y-76986738D01*
G75*
G02*
X110302538Y-76715000I271738J0D01*
G01*
G37*
%TD*%
%TO.C,C20*%
X111616600Y-134273400D03*
X111616600Y-131773400D03*
%TD*%
%TO.C,C19*%
X116696600Y-134273400D03*
X116696600Y-131773400D03*
%TD*%
%TO.C,C18*%
X119600000Y-114400000D03*
X119600000Y-116900000D03*
%TD*%
%TO.C,C17*%
G36*
G01*
X91608138Y-81448400D02*
X92564662Y-81448400D01*
G75*
G02*
X92836400Y-81720138I0J-271738D01*
G01*
X92836400Y-82426662D01*
G75*
G02*
X92564662Y-82698400I-271738J0D01*
G01*
X91608138Y-82698400D01*
G75*
G02*
X91336400Y-82426662I0J271738D01*
G01*
X91336400Y-81720138D01*
G75*
G02*
X91608138Y-81448400I271738J0D01*
G01*
G37*
G36*
G01*
X91608138Y-79398400D02*
X92564662Y-79398400D01*
G75*
G02*
X92836400Y-79670138I0J-271738D01*
G01*
X92836400Y-80376662D01*
G75*
G02*
X92564662Y-80648400I-271738J0D01*
G01*
X91608138Y-80648400D01*
G75*
G02*
X91336400Y-80376662I0J271738D01*
G01*
X91336400Y-79670138D01*
G75*
G02*
X91608138Y-79398400I271738J0D01*
G01*
G37*
%TD*%
%TO.C,C16*%
G36*
G01*
X110200938Y-82820000D02*
X111157462Y-82820000D01*
G75*
G02*
X111429200Y-83091738I0J-271738D01*
G01*
X111429200Y-83798262D01*
G75*
G02*
X111157462Y-84070000I-271738J0D01*
G01*
X110200938Y-84070000D01*
G75*
G02*
X109929200Y-83798262I0J271738D01*
G01*
X109929200Y-83091738D01*
G75*
G02*
X110200938Y-82820000I271738J0D01*
G01*
G37*
G36*
G01*
X110200938Y-80770000D02*
X111157462Y-80770000D01*
G75*
G02*
X111429200Y-81041738I0J-271738D01*
G01*
X111429200Y-81748262D01*
G75*
G02*
X111157462Y-82020000I-271738J0D01*
G01*
X110200938Y-82020000D01*
G75*
G02*
X109929200Y-81748262I0J271738D01*
G01*
X109929200Y-81041738D01*
G75*
G02*
X110200938Y-80770000I271738J0D01*
G01*
G37*
%TD*%
%TO.C,C15*%
X126850000Y-133900000D03*
X126850000Y-131400000D03*
%TD*%
%TO.C,C14*%
X130850000Y-131400000D03*
X130850000Y-133900000D03*
%TD*%
%TO.C,C13*%
G36*
G01*
X112942000Y-110022138D02*
X112942000Y-110978662D01*
G75*
G02*
X112670262Y-111250400I-271738J0D01*
G01*
X111963738Y-111250400D01*
G75*
G02*
X111692000Y-110978662I0J271738D01*
G01*
X111692000Y-110022138D01*
G75*
G02*
X111963738Y-109750400I271738J0D01*
G01*
X112670262Y-109750400D01*
G75*
G02*
X112942000Y-110022138I0J-271738D01*
G01*
G37*
G36*
G01*
X114992000Y-110022138D02*
X114992000Y-110978662D01*
G75*
G02*
X114720262Y-111250400I-271738J0D01*
G01*
X114013738Y-111250400D01*
G75*
G02*
X113742000Y-110978662I0J271738D01*
G01*
X113742000Y-110022138D01*
G75*
G02*
X114013738Y-109750400I271738J0D01*
G01*
X114720262Y-109750400D01*
G75*
G02*
X114992000Y-110022138I0J-271738D01*
G01*
G37*
%TD*%
%TO.C,C12*%
G36*
G01*
X137484400Y-111758262D02*
X137484400Y-110801738D01*
G75*
G02*
X137756138Y-110530000I271738J0D01*
G01*
X138462662Y-110530000D01*
G75*
G02*
X138734400Y-110801738I0J-271738D01*
G01*
X138734400Y-111758262D01*
G75*
G02*
X138462662Y-112030000I-271738J0D01*
G01*
X137756138Y-112030000D01*
G75*
G02*
X137484400Y-111758262I0J271738D01*
G01*
G37*
G36*
G01*
X135434400Y-111758262D02*
X135434400Y-110801738D01*
G75*
G02*
X135706138Y-110530000I271738J0D01*
G01*
X136412662Y-110530000D01*
G75*
G02*
X136684400Y-110801738I0J-271738D01*
G01*
X136684400Y-111758262D01*
G75*
G02*
X136412662Y-112030000I-271738J0D01*
G01*
X135706138Y-112030000D01*
G75*
G02*
X135434400Y-111758262I0J271738D01*
G01*
G37*
%TD*%
%TO.C,C11*%
G36*
G01*
X114808800Y-105187462D02*
X114808800Y-104230938D01*
G75*
G02*
X115080538Y-103959200I271738J0D01*
G01*
X115787062Y-103959200D01*
G75*
G02*
X116058800Y-104230938I0J-271738D01*
G01*
X116058800Y-105187462D01*
G75*
G02*
X115787062Y-105459200I-271738J0D01*
G01*
X115080538Y-105459200D01*
G75*
G02*
X114808800Y-105187462I0J271738D01*
G01*
G37*
G36*
G01*
X112758800Y-105187462D02*
X112758800Y-104230938D01*
G75*
G02*
X113030538Y-103959200I271738J0D01*
G01*
X113737062Y-103959200D01*
G75*
G02*
X114008800Y-104230938I0J-271738D01*
G01*
X114008800Y-105187462D01*
G75*
G02*
X113737062Y-105459200I-271738J0D01*
G01*
X113030538Y-105459200D01*
G75*
G02*
X112758800Y-105187462I0J271738D01*
G01*
G37*
%TD*%
%TO.C,C10*%
G36*
G01*
X136693400Y-106342138D02*
X136693400Y-107298662D01*
G75*
G02*
X136421662Y-107570400I-271738J0D01*
G01*
X135715138Y-107570400D01*
G75*
G02*
X135443400Y-107298662I0J271738D01*
G01*
X135443400Y-106342138D01*
G75*
G02*
X135715138Y-106070400I271738J0D01*
G01*
X136421662Y-106070400D01*
G75*
G02*
X136693400Y-106342138I0J-271738D01*
G01*
G37*
G36*
G01*
X138743400Y-106342138D02*
X138743400Y-107298662D01*
G75*
G02*
X138471662Y-107570400I-271738J0D01*
G01*
X137765138Y-107570400D01*
G75*
G02*
X137493400Y-107298662I0J271738D01*
G01*
X137493400Y-106342138D01*
G75*
G02*
X137765138Y-106070400I271738J0D01*
G01*
X138471662Y-106070400D01*
G75*
G02*
X138743400Y-106342138I0J-271738D01*
G01*
G37*
%TD*%
%TO.C,C9*%
G36*
G01*
X95242800Y-118622538D02*
X95242800Y-119579062D01*
G75*
G02*
X94971062Y-119850800I-271738J0D01*
G01*
X94264538Y-119850800D01*
G75*
G02*
X93992800Y-119579062I0J271738D01*
G01*
X93992800Y-118622538D01*
G75*
G02*
X94264538Y-118350800I271738J0D01*
G01*
X94971062Y-118350800D01*
G75*
G02*
X95242800Y-118622538I0J-271738D01*
G01*
G37*
G36*
G01*
X97292800Y-118622538D02*
X97292800Y-119579062D01*
G75*
G02*
X97021062Y-119850800I-271738J0D01*
G01*
X96314538Y-119850800D01*
G75*
G02*
X96042800Y-119579062I0J271738D01*
G01*
X96042800Y-118622538D01*
G75*
G02*
X96314538Y-118350800I271738J0D01*
G01*
X97021062Y-118350800D01*
G75*
G02*
X97292800Y-118622538I0J-271738D01*
G01*
G37*
%TD*%
%TO.C,C8*%
G36*
G01*
X96093600Y-114803862D02*
X96093600Y-113847338D01*
G75*
G02*
X96365338Y-113575600I271738J0D01*
G01*
X97071862Y-113575600D01*
G75*
G02*
X97343600Y-113847338I0J-271738D01*
G01*
X97343600Y-114803862D01*
G75*
G02*
X97071862Y-115075600I-271738J0D01*
G01*
X96365338Y-115075600D01*
G75*
G02*
X96093600Y-114803862I0J271738D01*
G01*
G37*
G36*
G01*
X94043600Y-114803862D02*
X94043600Y-113847338D01*
G75*
G02*
X94315338Y-113575600I271738J0D01*
G01*
X95021862Y-113575600D01*
G75*
G02*
X95293600Y-113847338I0J-271738D01*
G01*
X95293600Y-114803862D01*
G75*
G02*
X95021862Y-115075600I-271738J0D01*
G01*
X94315338Y-115075600D01*
G75*
G02*
X94043600Y-114803862I0J271738D01*
G01*
G37*
%TD*%
%TO.C,C7*%
G36*
G01*
X95242800Y-121060938D02*
X95242800Y-122017462D01*
G75*
G02*
X94971062Y-122289200I-271738J0D01*
G01*
X94264538Y-122289200D01*
G75*
G02*
X93992800Y-122017462I0J271738D01*
G01*
X93992800Y-121060938D01*
G75*
G02*
X94264538Y-120789200I271738J0D01*
G01*
X94971062Y-120789200D01*
G75*
G02*
X95242800Y-121060938I0J-271738D01*
G01*
G37*
G36*
G01*
X97292800Y-121060938D02*
X97292800Y-122017462D01*
G75*
G02*
X97021062Y-122289200I-271738J0D01*
G01*
X96314538Y-122289200D01*
G75*
G02*
X96042800Y-122017462I0J271738D01*
G01*
X96042800Y-121060938D01*
G75*
G02*
X96314538Y-120789200I271738J0D01*
G01*
X97021062Y-120789200D01*
G75*
G02*
X97292800Y-121060938I0J-271738D01*
G01*
G37*
%TD*%
%TO.C,C6*%
G36*
G01*
X96042800Y-117089862D02*
X96042800Y-116133338D01*
G75*
G02*
X96314538Y-115861600I271738J0D01*
G01*
X97021062Y-115861600D01*
G75*
G02*
X97292800Y-116133338I0J-271738D01*
G01*
X97292800Y-117089862D01*
G75*
G02*
X97021062Y-117361600I-271738J0D01*
G01*
X96314538Y-117361600D01*
G75*
G02*
X96042800Y-117089862I0J271738D01*
G01*
G37*
G36*
G01*
X93992800Y-117089862D02*
X93992800Y-116133338D01*
G75*
G02*
X94264538Y-115861600I271738J0D01*
G01*
X94971062Y-115861600D01*
G75*
G02*
X95242800Y-116133338I0J-271738D01*
G01*
X95242800Y-117089862D01*
G75*
G02*
X94971062Y-117361600I-271738J0D01*
G01*
X94264538Y-117361600D01*
G75*
G02*
X93992800Y-117089862I0J271738D01*
G01*
G37*
%TD*%
%TO.C,C5*%
G36*
G01*
X133752662Y-102102400D02*
X132796138Y-102102400D01*
G75*
G02*
X132524400Y-101830662I0J271738D01*
G01*
X132524400Y-101124138D01*
G75*
G02*
X132796138Y-100852400I271738J0D01*
G01*
X133752662Y-100852400D01*
G75*
G02*
X134024400Y-101124138I0J-271738D01*
G01*
X134024400Y-101830662D01*
G75*
G02*
X133752662Y-102102400I-271738J0D01*
G01*
G37*
G36*
G01*
X133752662Y-104152400D02*
X132796138Y-104152400D01*
G75*
G02*
X132524400Y-103880662I0J271738D01*
G01*
X132524400Y-103174138D01*
G75*
G02*
X132796138Y-102902400I271738J0D01*
G01*
X133752662Y-102902400D01*
G75*
G02*
X134024400Y-103174138I0J-271738D01*
G01*
X134024400Y-103880662D01*
G75*
G02*
X133752662Y-104152400I-271738J0D01*
G01*
G37*
%TD*%
%TO.C,C4*%
G36*
G01*
X115250000Y-60878262D02*
X115250000Y-59921738D01*
G75*
G02*
X115521738Y-59650000I271738J0D01*
G01*
X116228262Y-59650000D01*
G75*
G02*
X116500000Y-59921738I0J-271738D01*
G01*
X116500000Y-60878262D01*
G75*
G02*
X116228262Y-61150000I-271738J0D01*
G01*
X115521738Y-61150000D01*
G75*
G02*
X115250000Y-60878262I0J271738D01*
G01*
G37*
G36*
G01*
X113200000Y-60878262D02*
X113200000Y-59921738D01*
G75*
G02*
X113471738Y-59650000I271738J0D01*
G01*
X114178262Y-59650000D01*
G75*
G02*
X114450000Y-59921738I0J-271738D01*
G01*
X114450000Y-60878262D01*
G75*
G02*
X114178262Y-61150000I-271738J0D01*
G01*
X113471738Y-61150000D01*
G75*
G02*
X113200000Y-60878262I0J271738D01*
G01*
G37*
%TD*%
%TO.C,C3*%
G36*
G01*
X115275000Y-63378262D02*
X115275000Y-62421738D01*
G75*
G02*
X115546738Y-62150000I271738J0D01*
G01*
X116253262Y-62150000D01*
G75*
G02*
X116525000Y-62421738I0J-271738D01*
G01*
X116525000Y-63378262D01*
G75*
G02*
X116253262Y-63650000I-271738J0D01*
G01*
X115546738Y-63650000D01*
G75*
G02*
X115275000Y-63378262I0J271738D01*
G01*
G37*
G36*
G01*
X113225000Y-63378262D02*
X113225000Y-62421738D01*
G75*
G02*
X113496738Y-62150000I271738J0D01*
G01*
X114203262Y-62150000D01*
G75*
G02*
X114475000Y-62421738I0J-271738D01*
G01*
X114475000Y-63378262D01*
G75*
G02*
X114203262Y-63650000I-271738J0D01*
G01*
X113496738Y-63650000D01*
G75*
G02*
X113225000Y-63378262I0J271738D01*
G01*
G37*
%TD*%
%TO.C,C2*%
G36*
G01*
X102450000Y-109376938D02*
X102450000Y-110333462D01*
G75*
G02*
X102178262Y-110605200I-271738J0D01*
G01*
X101471738Y-110605200D01*
G75*
G02*
X101200000Y-110333462I0J271738D01*
G01*
X101200000Y-109376938D01*
G75*
G02*
X101471738Y-109105200I271738J0D01*
G01*
X102178262Y-109105200D01*
G75*
G02*
X102450000Y-109376938I0J-271738D01*
G01*
G37*
G36*
G01*
X104500000Y-109376938D02*
X104500000Y-110333462D01*
G75*
G02*
X104228262Y-110605200I-271738J0D01*
G01*
X103521738Y-110605200D01*
G75*
G02*
X103250000Y-110333462I0J271738D01*
G01*
X103250000Y-109376938D01*
G75*
G02*
X103521738Y-109105200I271738J0D01*
G01*
X104228262Y-109105200D01*
G75*
G02*
X104500000Y-109376938I0J-271738D01*
G01*
G37*
%TD*%
%TO.C,C1*%
G36*
G01*
X98200000Y-109421738D02*
X98200000Y-110378262D01*
G75*
G02*
X97928262Y-110650000I-271738J0D01*
G01*
X97221738Y-110650000D01*
G75*
G02*
X96950000Y-110378262I0J271738D01*
G01*
X96950000Y-109421738D01*
G75*
G02*
X97221738Y-109150000I271738J0D01*
G01*
X97928262Y-109150000D01*
G75*
G02*
X98200000Y-109421738I0J-271738D01*
G01*
G37*
G36*
G01*
X100250000Y-109421738D02*
X100250000Y-110378262D01*
G75*
G02*
X99978262Y-110650000I-271738J0D01*
G01*
X99271738Y-110650000D01*
G75*
G02*
X99000000Y-110378262I0J271738D01*
G01*
X99000000Y-109421738D01*
G75*
G02*
X99271738Y-109150000I271738J0D01*
G01*
X99978262Y-109150000D01*
G75*
G02*
X100250000Y-109421738I0J-271738D01*
G01*
G37*
%TD*%
D30*
%TO.C,A1*%
X120390000Y-57955000D03*
X135630000Y-57955000D03*
X120390000Y-93515000D03*
X135630000Y-60495000D03*
X120390000Y-90975000D03*
X135630000Y-63035000D03*
X120390000Y-88435000D03*
X135630000Y-65575000D03*
X120390000Y-85895000D03*
X135630000Y-68115000D03*
X120390000Y-83355000D03*
X135630000Y-70655000D03*
X120390000Y-80815000D03*
X135630000Y-73195000D03*
X120390000Y-78275000D03*
X135630000Y-75735000D03*
X120390000Y-75735000D03*
X135630000Y-78275000D03*
X120390000Y-73195000D03*
X135630000Y-80815000D03*
X120390000Y-70655000D03*
X135630000Y-83355000D03*
X120390000Y-68115000D03*
X135630000Y-85895000D03*
X120390000Y-65575000D03*
X135630000Y-88435000D03*
X120390000Y-63035000D03*
X135630000Y-90975000D03*
X120390000Y-60495000D03*
D31*
X135630000Y-93515000D03*
%TD*%
M02*
