M48
; DRILL file {KiCad 5.1.6+dfsg1-1} date Wed Apr  7 14:27:41 2021
; FORMAT={-:-/ absolute / inch / decimal}
; #@! TF.CreationDate,2021-04-07T14:27:41-04:00
; #@! TF.GenerationSoftware,Kicad,Pcbnew,5.1.6+dfsg1-1
FMAT,2
INCH
T1C0.0118
T2C0.0315
T3C0.0394
T4C0.0472
T5C0.0512
T6C0.0591
T7C0.0606
T8C0.0630
T9C0.0709
%
G90
G05
T1
X3.6752Y-3.0669
X3.7244Y-4.685
X3.7283Y-4.5
X3.7283Y-4.5906
X3.7283Y-4.7874
X3.8425Y-4.2283
X3.8465Y-4.3307
X3.8543Y-3.3189
X3.9055Y-2.2953
X3.9508Y-4.6319
X3.9902Y-4.7205
X3.9961Y-4.5787
X4.0551Y-4.5787
X4.0984Y-4.6614
X4.1417Y-4.4764
X4.2264Y-3.1457
X4.2854Y-4.1201
X4.5512Y-4.1102
X4.5906Y-2.4764
X4.6004Y-2.378
X4.6811Y-2.7244
X4.8465Y-2.7205
X4.878Y-3.3819
X5.0512Y-5.4724
X5.0512Y-5.563
X5.2317Y-4.7886
X5.252Y-4.2638
X5.2598Y-3.9843
X5.3425Y-4.7874
X5.4469Y-4.5157
X5.4764Y-4.4075
X5.5709Y-2.8819
X5.7677Y-2.7992
X6.2933Y-4.4646
X6.3819Y-5.2598
X6.4094Y-4.8583
X6.4094Y-4.937
X6.4173Y-3.6811
X6.4173Y-3.7441
X6.5295Y-2.8307
X6.5295Y-2.9193
X6.5886Y-4.8287
X6.9429Y-3.8642
T2
X4.8366Y-5.1732
X4.8366Y-5.2717
X5.1516Y-5.1732
X5.1516Y-5.2717
X4.7087Y-4.5039
X4.7087Y-4.6024
X4.5944Y-5.1879
X4.5944Y-5.2864
X4.9941Y-5.1732
X4.9941Y-5.2717
X4.3944Y-5.1879
X4.3944Y-5.2864
T3
X6.3109Y-5.478
X6.4109Y-5.478
X6.5109Y-5.478
X4.4004Y-4.8875
X4.6004Y-4.8875
X4.8236Y-4.8878
X5.0236Y-4.8878
X5.8917Y-4.9035
X5.8917Y-5.0035
X7.002Y-3.0965
X7.002Y-3.1965
X7.002Y-3.2965
X7.002Y-3.3965
X4.3276Y-5.4961
X4.4276Y-5.4961
X4.5276Y-5.4961
X5.4783Y-4.9035
X5.4783Y-5.0035
X4.7398Y-2.2817
X4.7398Y-2.3817
X4.7398Y-2.4817
X4.7398Y-2.5817
X4.7398Y-2.6817
X4.7398Y-2.7817
X4.7398Y-2.8817
X4.7398Y-2.9817
X4.7398Y-3.0817
X4.7398Y-3.1817
X4.7398Y-3.2817
X4.7398Y-3.3817
X4.7398Y-3.4817
X4.7398Y-3.5817
X4.7398Y-3.6817
X5.3398Y-2.2817
X5.3398Y-2.3817
X5.3398Y-2.4817
X5.3398Y-2.5817
X5.3398Y-2.6817
X5.3398Y-2.7817
X5.3398Y-2.8817
X5.3398Y-2.9817
X5.3398Y-3.0817
X5.3398Y-3.1817
X5.3398Y-3.2817
X5.3398Y-3.3817
X5.3398Y-3.4817
X5.3398Y-3.5817
X5.3398Y-3.6817
X5.4685Y-5.2835
X5.5685Y-5.2835
X5.6685Y-5.2835
X5.7685Y-5.2835
X5.8685Y-5.2835
X5.8648Y-3.1067
X5.9648Y-3.1067
X5.685Y-4.9035
X5.685Y-5.0035
X5.4094Y-5.4606
X5.5094Y-5.4606
X5.6094Y-5.4606
X5.7094Y-5.4606
X5.8094Y-5.4606
X5.9094Y-5.4606
X6.0094Y-5.4606
X6.3129Y-4.998
X6.5129Y-4.998
X5.8602Y-3.674
X5.8602Y-4.2449
X5.9587Y-3.674
X6.0571Y-3.674
X6.0571Y-4.2449
T4
X7.2443Y-2.5626
X7.2443Y-2.6626
X7.2443Y-2.7626
X7.2443Y-2.8626
X7.2443Y-2.9626
X7.2443Y-3.0626
X7.2443Y-3.1626
X7.2443Y-3.2626
X7.2443Y-3.3626
X7.2443Y-3.4626
X7.2443Y-3.5626
X7.2443Y-3.6626
X7.2443Y-3.7626
X7.2443Y-3.8626
X7.2443Y-3.9626
X7.2443Y-4.0626
T5
X6.3148Y-2.3817
X6.3344Y-2.6691
X6.4959Y-2.2281
X6.5943Y-2.4959
X6.7006Y-2.5431
X5.6898Y-2.3817
X5.7094Y-2.6691
X5.8709Y-2.2281
X5.9693Y-2.4959
X6.0756Y-2.5431
T7
X3.6764Y-5.3016
X3.6764Y-5.5016
X3.7764Y-5.4016
X3.8764Y-5.3016
X3.8764Y-5.5016
T8
X4.1339Y-2.2559
T9
X4.1339Y-2.4331
T6
G00X5.7382Y-3.9437
M15
G01X5.7382Y-3.9949
M16
G05
G00X6.1791Y-3.9437
M15
G01X6.1791Y-3.9949
M16
G05
T0
M30
