%TF.GenerationSoftware,KiCad,Pcbnew,5.1.6+dfsg1-1*%
%TF.CreationDate,2021-04-07T14:27:39-04:00*%
%TF.ProjectId,uSDX-x,75534458-2d78-42e6-9b69-6361645f7063,rev?*%
%TF.SameCoordinates,Original*%
%TF.FileFunction,Soldermask,Bot*%
%TF.FilePolarity,Negative*%
%FSLAX46Y46*%
G04 Gerber Fmt 4.6, Leading zero omitted, Abs format (unit mm)*
G04 Created by KiCad (PCBNEW 5.1.6+dfsg1-1) date 2021-04-07 14:27:39*
%MOMM*%
%LPD*%
G01*
G04 APERTURE LIST*
%TA.AperFunction,Profile*%
%ADD10C,0.050000*%
%TD*%
%ADD11C,1.900000*%
%ADD12C,1.700000*%
%ADD13C,2.440000*%
%ADD14R,2.440000X2.440000*%
%ADD15O,2.700000X1.900000*%
%ADD16R,2.700000X1.900000*%
%ADD17R,2.100000X2.100000*%
%ADD18C,2.100000*%
%ADD19R,2.100000X3.300000*%
%ADD20O,1.800000X1.800000*%
%ADD21R,1.800000X1.800000*%
%ADD22O,4.100000X2.300000*%
%ADD23O,2.300000X4.100000*%
%ADD24R,2.300000X4.100000*%
%ADD25O,1.700000X1.700000*%
%ADD26R,1.700000X1.700000*%
G04 APERTURE END LIST*
D10*
X89350000Y-143150000D02*
X89350000Y-53400000D01*
X189350000Y-143150000D02*
X89350000Y-143150000D01*
X189350000Y-53400000D02*
X189350000Y-143150000D01*
X89350000Y-53400000D02*
X189350000Y-53400000D01*
D11*
%TO.C,J1*%
X105000000Y-61800000D03*
D12*
X105000000Y-57300000D03*
%TD*%
D13*
%TO.C,J3*%
X93380000Y-139740000D03*
X98460000Y-139740000D03*
X93380000Y-134660000D03*
X98460000Y-134660000D03*
D14*
X95920000Y-137200000D03*
%TD*%
D15*
%TO.C,J10*%
X184005000Y-65090000D03*
X184005000Y-67630000D03*
X184005000Y-70170000D03*
X184005000Y-72710000D03*
X184005000Y-75250000D03*
X184005000Y-77790000D03*
X184005000Y-80330000D03*
X184005000Y-82870000D03*
X184005000Y-85410000D03*
X184005000Y-87950000D03*
X184005000Y-90490000D03*
X184005000Y-93030000D03*
X184005000Y-95570000D03*
X184005000Y-98110000D03*
X184005000Y-100650000D03*
D16*
X184005000Y-103190000D03*
%TD*%
D17*
%TO.C,SW4*%
X153850000Y-93320000D03*
D18*
X151350000Y-93320000D03*
X148850000Y-93320000D03*
D19*
X156950000Y-100820000D03*
X145750000Y-100820000D03*
D18*
X153850000Y-107820000D03*
X148850000Y-107820000D03*
%TD*%
D20*
%TO.C,J9*%
X177850000Y-86270000D03*
X177850000Y-83730000D03*
X177850000Y-81190000D03*
D21*
X177850000Y-78650000D03*
%TD*%
D20*
%TO.C,MK1*%
X151505000Y-78910000D03*
D21*
X148965000Y-78910000D03*
%TD*%
D18*
%TO.C,L3*%
X160346400Y-126950000D03*
X165426400Y-126950000D03*
%TD*%
%TO.C,L2*%
X111770000Y-124142800D03*
X116850000Y-124142800D03*
%TD*%
%TO.C,L1*%
X122520000Y-124150000D03*
X127600000Y-124150000D03*
%TD*%
D20*
%TO.C,J13*%
X165375600Y-139142000D03*
X162835600Y-139142000D03*
D21*
X160295600Y-139142000D03*
%TD*%
D22*
%TO.C,J12*%
X164995000Y-56595000D03*
D23*
X170195000Y-64595000D03*
X167495000Y-63395000D03*
D22*
X160895000Y-67795000D03*
D24*
X160395000Y-60495000D03*
%TD*%
D22*
%TO.C,J11*%
X149120000Y-56595000D03*
D23*
X154320000Y-64595000D03*
X151620000Y-63395000D03*
D22*
X145020000Y-67795000D03*
D24*
X144520000Y-60495000D03*
%TD*%
D21*
%TO.C,J8*%
X137400000Y-138700000D03*
D20*
X139940000Y-138700000D03*
X142480000Y-138700000D03*
X145020000Y-138700000D03*
X147560000Y-138700000D03*
X150100000Y-138700000D03*
X152640000Y-138700000D03*
%TD*%
D21*
%TO.C,J7*%
X149650000Y-124550000D03*
D20*
X149650000Y-127090000D03*
%TD*%
D21*
%TO.C,J6*%
X144400000Y-124550000D03*
D20*
X144400000Y-127090000D03*
%TD*%
D21*
%TO.C,J5*%
X139150000Y-124550000D03*
D20*
X139150000Y-127090000D03*
%TD*%
D21*
%TO.C,J4*%
X138900000Y-134200000D03*
D20*
X141440000Y-134200000D03*
X143980000Y-134200000D03*
X146520000Y-134200000D03*
X149060000Y-134200000D03*
%TD*%
%TO.C,J2*%
X109920000Y-139600000D03*
X112460000Y-139600000D03*
D21*
X115000000Y-139600000D03*
%TD*%
D12*
%TO.C,C30*%
X122850000Y-133900000D03*
X122850000Y-131400000D03*
%TD*%
%TO.C,C20*%
X111616600Y-134273400D03*
X111616600Y-131773400D03*
%TD*%
%TO.C,C19*%
X116696600Y-134273400D03*
X116696600Y-131773400D03*
%TD*%
%TO.C,C18*%
X119600000Y-114400000D03*
X119600000Y-116900000D03*
%TD*%
%TO.C,C15*%
X126850000Y-133900000D03*
X126850000Y-131400000D03*
%TD*%
%TO.C,C14*%
X130850000Y-131400000D03*
X130850000Y-133900000D03*
%TD*%
D25*
%TO.C,A1*%
X120390000Y-57955000D03*
X135630000Y-57955000D03*
X120390000Y-93515000D03*
X135630000Y-60495000D03*
X120390000Y-90975000D03*
X135630000Y-63035000D03*
X120390000Y-88435000D03*
X135630000Y-65575000D03*
X120390000Y-85895000D03*
X135630000Y-68115000D03*
X120390000Y-83355000D03*
X135630000Y-70655000D03*
X120390000Y-80815000D03*
X135630000Y-73195000D03*
X120390000Y-78275000D03*
X135630000Y-75735000D03*
X120390000Y-75735000D03*
X135630000Y-78275000D03*
X120390000Y-73195000D03*
X135630000Y-80815000D03*
X120390000Y-70655000D03*
X135630000Y-83355000D03*
X120390000Y-68115000D03*
X135630000Y-85895000D03*
X120390000Y-65575000D03*
X135630000Y-88435000D03*
X120390000Y-63035000D03*
X135630000Y-90975000D03*
X120390000Y-60495000D03*
D26*
X135630000Y-93515000D03*
%TD*%
M02*
