%TF.GenerationSoftware,KiCad,Pcbnew,5.1.6+dfsg1-1*%
%TF.CreationDate,2021-04-07T14:27:39-04:00*%
%TF.ProjectId,uSDX-x,75534458-2d78-42e6-9b69-6361645f7063,rev?*%
%TF.SameCoordinates,Original*%
%TF.FileFunction,Copper,L1,Top*%
%TF.FilePolarity,Positive*%
%FSLAX46Y46*%
G04 Gerber Fmt 4.6, Leading zero omitted, Abs format (unit mm)*
G04 Created by KiCad (PCBNEW 5.1.6+dfsg1-1) date 2021-04-07 14:27:39*
%MOMM*%
%LPD*%
G01*
G04 APERTURE LIST*
%TA.AperFunction,Profile*%
%ADD10C,0.050000*%
%TD*%
%TA.AperFunction,SMDPad,CuDef*%
%ADD11R,2.400000X2.800000*%
%TD*%
%TA.AperFunction,ComponentPad*%
%ADD12C,2.340000*%
%TD*%
%TA.AperFunction,ComponentPad*%
%ADD13R,2.340000X2.340000*%
%TD*%
%TA.AperFunction,ComponentPad*%
%ADD14O,2.600000X1.800000*%
%TD*%
%TA.AperFunction,ComponentPad*%
%ADD15R,2.600000X1.800000*%
%TD*%
%TA.AperFunction,ComponentPad*%
%ADD16R,2.000000X2.000000*%
%TD*%
%TA.AperFunction,ComponentPad*%
%ADD17C,2.000000*%
%TD*%
%TA.AperFunction,ComponentPad*%
%ADD18R,2.000000X3.200000*%
%TD*%
%TA.AperFunction,ComponentPad*%
%ADD19O,1.700000X1.700000*%
%TD*%
%TA.AperFunction,ComponentPad*%
%ADD20R,1.700000X1.700000*%
%TD*%
%TA.AperFunction,SMDPad,CuDef*%
%ADD21R,1.300000X1.550000*%
%TD*%
%TA.AperFunction,SMDPad,CuDef*%
%ADD22R,1.000000X1.600000*%
%TD*%
%TA.AperFunction,SMDPad,CuDef*%
%ADD23R,0.900000X0.800000*%
%TD*%
%TA.AperFunction,SMDPad,CuDef*%
%ADD24R,0.800000X0.900000*%
%TD*%
%TA.AperFunction,ComponentPad*%
%ADD25O,4.000000X2.200000*%
%TD*%
%TA.AperFunction,ComponentPad*%
%ADD26O,2.200000X4.000000*%
%TD*%
%TA.AperFunction,ComponentPad*%
%ADD27R,2.200000X4.000000*%
%TD*%
%TA.AperFunction,ComponentPad*%
%ADD28C,1.600000*%
%TD*%
%TA.AperFunction,ComponentPad*%
%ADD29O,1.600000X1.600000*%
%TD*%
%TA.AperFunction,ComponentPad*%
%ADD30R,1.600000X1.600000*%
%TD*%
%TA.AperFunction,ViaPad*%
%ADD31C,0.600000*%
%TD*%
%TA.AperFunction,Conductor*%
%ADD32C,0.127000*%
%TD*%
%TA.AperFunction,Conductor*%
%ADD33C,0.300000*%
%TD*%
%TA.AperFunction,Conductor*%
%ADD34C,0.200000*%
%TD*%
G04 APERTURE END LIST*
D10*
X89350000Y-143150000D02*
X89350000Y-53400000D01*
X189350000Y-143150000D02*
X89350000Y-143150000D01*
X189350000Y-53400000D02*
X189350000Y-143150000D01*
X89350000Y-53400000D02*
X189350000Y-53400000D01*
D11*
%TO.P,J1,2*%
%TO.N,GND*%
X99300000Y-57300000D03*
%TO.P,J1,3*%
%TO.N,Net-(J1-Pad3)*%
X99300000Y-63400000D03*
%TO.P,J1,1*%
%TO.N,+12V*%
X110700000Y-63400000D03*
X110700000Y-57300000D03*
%TD*%
D12*
%TO.P,J3,5*%
%TO.N,N/C*%
X93380000Y-139740000D03*
%TO.P,J3,3*%
X98460000Y-139740000D03*
%TO.P,J3,4*%
X93380000Y-134660000D03*
%TO.P,J3,2*%
%TO.N,GND*%
X98460000Y-134660000D03*
D13*
%TO.P,J3,1*%
%TO.N,Net-(J3-Pad1)*%
X95920000Y-137200000D03*
%TD*%
D14*
%TO.P,J10,16*%
%TO.N,GND*%
X184005000Y-65090000D03*
%TO.P,J10,15*%
%TO.N,Net-(J10-Pad15)*%
X184005000Y-67630000D03*
%TO.P,J10,14*%
%TO.N,LCD_D7*%
X184005000Y-70170000D03*
%TO.P,J10,13*%
%TO.N,LCD_D6*%
X184005000Y-72710000D03*
%TO.P,J10,12*%
%TO.N,LCD_D5*%
X184005000Y-75250000D03*
%TO.P,J10,11*%
%TO.N,LCD_D4*%
X184005000Y-77790000D03*
%TO.P,J10,10*%
%TO.N,Net-(J10-Pad10)*%
X184005000Y-80330000D03*
%TO.P,J10,9*%
%TO.N,Net-(J10-Pad9)*%
X184005000Y-82870000D03*
%TO.P,J10,8*%
%TO.N,Net-(J10-Pad8)*%
X184005000Y-85410000D03*
%TO.P,J10,7*%
%TO.N,Net-(J10-Pad7)*%
X184005000Y-87950000D03*
%TO.P,J10,6*%
%TO.N,LCD_EN*%
X184005000Y-90490000D03*
%TO.P,J10,5*%
%TO.N,GND*%
X184005000Y-93030000D03*
%TO.P,J10,4*%
%TO.N,LCD_RS*%
X184005000Y-95570000D03*
%TO.P,J10,3*%
%TO.N,Net-(J10-Pad3)*%
X184005000Y-98110000D03*
%TO.P,J10,2*%
%TO.N,+5V*%
X184005000Y-100650000D03*
D15*
%TO.P,J10,1*%
%TO.N,GND*%
X184005000Y-103190000D03*
%TD*%
D16*
%TO.P,SW4,A*%
%TO.N,ROT_A*%
X153850000Y-93320000D03*
D17*
%TO.P,SW4,C*%
%TO.N,GND*%
X151350000Y-93320000D03*
%TO.P,SW4,B*%
%TO.N,ROT_B*%
X148850000Y-93320000D03*
D18*
%TO.P,SW4,MP*%
%TO.N,N/C*%
X156950000Y-100820000D03*
X145750000Y-100820000D03*
D17*
%TO.P,SW4,S2*%
%TO.N,BUTTONS*%
X153850000Y-107820000D03*
%TO.P,SW4,S1*%
%TO.N,+5V*%
X148850000Y-107820000D03*
%TD*%
D19*
%TO.P,J9,4*%
%TO.N,LCD_RS*%
X177850000Y-86270000D03*
%TO.P,J9,3*%
%TO.N,SCL_3V3*%
X177850000Y-83730000D03*
%TO.P,J9,2*%
%TO.N,+3V3*%
X177850000Y-81190000D03*
D20*
%TO.P,J9,1*%
%TO.N,GND*%
X177850000Y-78650000D03*
%TD*%
%TO.P,U2,8*%
%TO.N,+12V*%
%TA.AperFunction,SMDPad,CuDef*%
G36*
G01*
X104233600Y-80665000D02*
X104233600Y-80365000D01*
G75*
G02*
X104383600Y-80215000I150000J0D01*
G01*
X105683600Y-80215000D01*
G75*
G02*
X105833600Y-80365000I0J-150000D01*
G01*
X105833600Y-80665000D01*
G75*
G02*
X105683600Y-80815000I-150000J0D01*
G01*
X104383600Y-80815000D01*
G75*
G02*
X104233600Y-80665000I0J150000D01*
G01*
G37*
%TD.AperFunction*%
%TO.P,U2,7*%
%TO.N,Net-(C16-Pad1)*%
%TA.AperFunction,SMDPad,CuDef*%
G36*
G01*
X104233600Y-81935000D02*
X104233600Y-81635000D01*
G75*
G02*
X104383600Y-81485000I150000J0D01*
G01*
X105683600Y-81485000D01*
G75*
G02*
X105833600Y-81635000I0J-150000D01*
G01*
X105833600Y-81935000D01*
G75*
G02*
X105683600Y-82085000I-150000J0D01*
G01*
X104383600Y-82085000D01*
G75*
G02*
X104233600Y-81935000I0J150000D01*
G01*
G37*
%TD.AperFunction*%
%TO.P,U2,6*%
%TO.N,Net-(C16-Pad2)*%
%TA.AperFunction,SMDPad,CuDef*%
G36*
G01*
X104233600Y-83205000D02*
X104233600Y-82905000D01*
G75*
G02*
X104383600Y-82755000I150000J0D01*
G01*
X105683600Y-82755000D01*
G75*
G02*
X105833600Y-82905000I0J-150000D01*
G01*
X105833600Y-83205000D01*
G75*
G02*
X105683600Y-83355000I-150000J0D01*
G01*
X104383600Y-83355000D01*
G75*
G02*
X104233600Y-83205000I0J150000D01*
G01*
G37*
%TD.AperFunction*%
%TO.P,U2,5*%
%TO.N,Net-(R10-Pad2)*%
%TA.AperFunction,SMDPad,CuDef*%
G36*
G01*
X104233600Y-84475000D02*
X104233600Y-84175000D01*
G75*
G02*
X104383600Y-84025000I150000J0D01*
G01*
X105683600Y-84025000D01*
G75*
G02*
X105833600Y-84175000I0J-150000D01*
G01*
X105833600Y-84475000D01*
G75*
G02*
X105683600Y-84625000I-150000J0D01*
G01*
X104383600Y-84625000D01*
G75*
G02*
X104233600Y-84475000I0J150000D01*
G01*
G37*
%TD.AperFunction*%
%TO.P,U2,4*%
%TO.N,GND*%
%TA.AperFunction,SMDPad,CuDef*%
G36*
G01*
X97033600Y-84475000D02*
X97033600Y-84175000D01*
G75*
G02*
X97183600Y-84025000I150000J0D01*
G01*
X98483600Y-84025000D01*
G75*
G02*
X98633600Y-84175000I0J-150000D01*
G01*
X98633600Y-84475000D01*
G75*
G02*
X98483600Y-84625000I-150000J0D01*
G01*
X97183600Y-84625000D01*
G75*
G02*
X97033600Y-84475000I0J150000D01*
G01*
G37*
%TD.AperFunction*%
%TO.P,U2,3*%
%TO.N,Net-(R11-Pad2)*%
%TA.AperFunction,SMDPad,CuDef*%
G36*
G01*
X97033600Y-83205000D02*
X97033600Y-82905000D01*
G75*
G02*
X97183600Y-82755000I150000J0D01*
G01*
X98483600Y-82755000D01*
G75*
G02*
X98633600Y-82905000I0J-150000D01*
G01*
X98633600Y-83205000D01*
G75*
G02*
X98483600Y-83355000I-150000J0D01*
G01*
X97183600Y-83355000D01*
G75*
G02*
X97033600Y-83205000I0J150000D01*
G01*
G37*
%TD.AperFunction*%
%TO.P,U2,2*%
%TO.N,Net-(C17-Pad2)*%
%TA.AperFunction,SMDPad,CuDef*%
G36*
G01*
X97033600Y-81935000D02*
X97033600Y-81635000D01*
G75*
G02*
X97183600Y-81485000I150000J0D01*
G01*
X98483600Y-81485000D01*
G75*
G02*
X98633600Y-81635000I0J-150000D01*
G01*
X98633600Y-81935000D01*
G75*
G02*
X98483600Y-82085000I-150000J0D01*
G01*
X97183600Y-82085000D01*
G75*
G02*
X97033600Y-81935000I0J150000D01*
G01*
G37*
%TD.AperFunction*%
%TO.P,U2,1*%
%TO.N,Net-(C17-Pad1)*%
%TA.AperFunction,SMDPad,CuDef*%
G36*
G01*
X97033600Y-80665000D02*
X97033600Y-80365000D01*
G75*
G02*
X97183600Y-80215000I150000J0D01*
G01*
X98483600Y-80215000D01*
G75*
G02*
X98633600Y-80365000I0J-150000D01*
G01*
X98633600Y-80665000D01*
G75*
G02*
X98483600Y-80815000I-150000J0D01*
G01*
X97183600Y-80815000D01*
G75*
G02*
X97033600Y-80665000I0J150000D01*
G01*
G37*
%TD.AperFunction*%
%TD*%
%TO.P,U1,16*%
%TO.N,+5V*%
%TA.AperFunction,SMDPad,CuDef*%
G36*
G01*
X100172600Y-118278600D02*
X100172600Y-118478600D01*
G75*
G02*
X100072600Y-118578600I-100000J0D01*
G01*
X98797600Y-118578600D01*
G75*
G02*
X98697600Y-118478600I0J100000D01*
G01*
X98697600Y-118278600D01*
G75*
G02*
X98797600Y-118178600I100000J0D01*
G01*
X100072600Y-118178600D01*
G75*
G02*
X100172600Y-118278600I0J-100000D01*
G01*
G37*
%TD.AperFunction*%
%TO.P,U1,15*%
%TO.N,GND*%
%TA.AperFunction,SMDPad,CuDef*%
G36*
G01*
X100172600Y-117628600D02*
X100172600Y-117828600D01*
G75*
G02*
X100072600Y-117928600I-100000J0D01*
G01*
X98797600Y-117928600D01*
G75*
G02*
X98697600Y-117828600I0J100000D01*
G01*
X98697600Y-117628600D01*
G75*
G02*
X98797600Y-117528600I100000J0D01*
G01*
X100072600Y-117528600D01*
G75*
G02*
X100172600Y-117628600I0J-100000D01*
G01*
G37*
%TD.AperFunction*%
%TO.P,U1,14*%
%TO.N,CLK0*%
%TA.AperFunction,SMDPad,CuDef*%
G36*
G01*
X100172600Y-116978600D02*
X100172600Y-117178600D01*
G75*
G02*
X100072600Y-117278600I-100000J0D01*
G01*
X98797600Y-117278600D01*
G75*
G02*
X98697600Y-117178600I0J100000D01*
G01*
X98697600Y-116978600D01*
G75*
G02*
X98797600Y-116878600I100000J0D01*
G01*
X100072600Y-116878600D01*
G75*
G02*
X100172600Y-116978600I0J-100000D01*
G01*
G37*
%TD.AperFunction*%
%TO.P,U1,13*%
%TO.N,90deg*%
%TA.AperFunction,SMDPad,CuDef*%
G36*
G01*
X100172600Y-116328600D02*
X100172600Y-116528600D01*
G75*
G02*
X100072600Y-116628600I-100000J0D01*
G01*
X98797600Y-116628600D01*
G75*
G02*
X98697600Y-116528600I0J100000D01*
G01*
X98697600Y-116328600D01*
G75*
G02*
X98797600Y-116228600I100000J0D01*
G01*
X100072600Y-116228600D01*
G75*
G02*
X100172600Y-116328600I0J-100000D01*
G01*
G37*
%TD.AperFunction*%
%TO.P,U1,12*%
%TO.N,0deg*%
%TA.AperFunction,SMDPad,CuDef*%
G36*
G01*
X100172600Y-115678600D02*
X100172600Y-115878600D01*
G75*
G02*
X100072600Y-115978600I-100000J0D01*
G01*
X98797600Y-115978600D01*
G75*
G02*
X98697600Y-115878600I0J100000D01*
G01*
X98697600Y-115678600D01*
G75*
G02*
X98797600Y-115578600I100000J0D01*
G01*
X100072600Y-115578600D01*
G75*
G02*
X100172600Y-115678600I0J-100000D01*
G01*
G37*
%TD.AperFunction*%
%TO.P,U1,11*%
%TO.N,180deg*%
%TA.AperFunction,SMDPad,CuDef*%
G36*
G01*
X100172600Y-115028600D02*
X100172600Y-115228600D01*
G75*
G02*
X100072600Y-115328600I-100000J0D01*
G01*
X98797600Y-115328600D01*
G75*
G02*
X98697600Y-115228600I0J100000D01*
G01*
X98697600Y-115028600D01*
G75*
G02*
X98797600Y-114928600I100000J0D01*
G01*
X100072600Y-114928600D01*
G75*
G02*
X100172600Y-115028600I0J-100000D01*
G01*
G37*
%TD.AperFunction*%
%TO.P,U1,10*%
%TO.N,270deg*%
%TA.AperFunction,SMDPad,CuDef*%
G36*
G01*
X100172600Y-114378600D02*
X100172600Y-114578600D01*
G75*
G02*
X100072600Y-114678600I-100000J0D01*
G01*
X98797600Y-114678600D01*
G75*
G02*
X98697600Y-114578600I0J100000D01*
G01*
X98697600Y-114378600D01*
G75*
G02*
X98797600Y-114278600I100000J0D01*
G01*
X100072600Y-114278600D01*
G75*
G02*
X100172600Y-114378600I0J-100000D01*
G01*
G37*
%TD.AperFunction*%
%TO.P,U1,9*%
%TO.N,Net-(C2-Pad2)*%
%TA.AperFunction,SMDPad,CuDef*%
G36*
G01*
X100172600Y-113728600D02*
X100172600Y-113928600D01*
G75*
G02*
X100072600Y-114028600I-100000J0D01*
G01*
X98797600Y-114028600D01*
G75*
G02*
X98697600Y-113928600I0J100000D01*
G01*
X98697600Y-113728600D01*
G75*
G02*
X98797600Y-113628600I100000J0D01*
G01*
X100072600Y-113628600D01*
G75*
G02*
X100172600Y-113728600I0J-100000D01*
G01*
G37*
%TD.AperFunction*%
%TO.P,U1,8*%
%TO.N,GND*%
%TA.AperFunction,SMDPad,CuDef*%
G36*
G01*
X105897600Y-113728600D02*
X105897600Y-113928600D01*
G75*
G02*
X105797600Y-114028600I-100000J0D01*
G01*
X104522600Y-114028600D01*
G75*
G02*
X104422600Y-113928600I0J100000D01*
G01*
X104422600Y-113728600D01*
G75*
G02*
X104522600Y-113628600I100000J0D01*
G01*
X105797600Y-113628600D01*
G75*
G02*
X105897600Y-113728600I0J-100000D01*
G01*
G37*
%TD.AperFunction*%
%TO.P,U1,7*%
%TO.N,Net-(U1-Pad7)*%
%TA.AperFunction,SMDPad,CuDef*%
G36*
G01*
X105897600Y-114378600D02*
X105897600Y-114578600D01*
G75*
G02*
X105797600Y-114678600I-100000J0D01*
G01*
X104522600Y-114678600D01*
G75*
G02*
X104422600Y-114578600I0J100000D01*
G01*
X104422600Y-114378600D01*
G75*
G02*
X104522600Y-114278600I100000J0D01*
G01*
X105797600Y-114278600D01*
G75*
G02*
X105897600Y-114378600I0J-100000D01*
G01*
G37*
%TD.AperFunction*%
%TO.P,U1,6*%
%TO.N,Net-(U1-Pad6)*%
%TA.AperFunction,SMDPad,CuDef*%
G36*
G01*
X105897600Y-115028600D02*
X105897600Y-115228600D01*
G75*
G02*
X105797600Y-115328600I-100000J0D01*
G01*
X104522600Y-115328600D01*
G75*
G02*
X104422600Y-115228600I0J100000D01*
G01*
X104422600Y-115028600D01*
G75*
G02*
X104522600Y-114928600I100000J0D01*
G01*
X105797600Y-114928600D01*
G75*
G02*
X105897600Y-115028600I0J-100000D01*
G01*
G37*
%TD.AperFunction*%
%TO.P,U1,5*%
%TO.N,Net-(U1-Pad5)*%
%TA.AperFunction,SMDPad,CuDef*%
G36*
G01*
X105897600Y-115678600D02*
X105897600Y-115878600D01*
G75*
G02*
X105797600Y-115978600I-100000J0D01*
G01*
X104522600Y-115978600D01*
G75*
G02*
X104422600Y-115878600I0J100000D01*
G01*
X104422600Y-115678600D01*
G75*
G02*
X104522600Y-115578600I100000J0D01*
G01*
X105797600Y-115578600D01*
G75*
G02*
X105897600Y-115678600I0J-100000D01*
G01*
G37*
%TD.AperFunction*%
%TO.P,U1,4*%
%TO.N,Net-(U1-Pad4)*%
%TA.AperFunction,SMDPad,CuDef*%
G36*
G01*
X105897600Y-116328600D02*
X105897600Y-116528600D01*
G75*
G02*
X105797600Y-116628600I-100000J0D01*
G01*
X104522600Y-116628600D01*
G75*
G02*
X104422600Y-116528600I0J100000D01*
G01*
X104422600Y-116328600D01*
G75*
G02*
X104522600Y-116228600I100000J0D01*
G01*
X105797600Y-116228600D01*
G75*
G02*
X105897600Y-116328600I0J-100000D01*
G01*
G37*
%TD.AperFunction*%
%TO.P,U1,3*%
%TO.N,Net-(U1-Pad3)*%
%TA.AperFunction,SMDPad,CuDef*%
G36*
G01*
X105897600Y-116978600D02*
X105897600Y-117178600D01*
G75*
G02*
X105797600Y-117278600I-100000J0D01*
G01*
X104522600Y-117278600D01*
G75*
G02*
X104422600Y-117178600I0J100000D01*
G01*
X104422600Y-116978600D01*
G75*
G02*
X104522600Y-116878600I100000J0D01*
G01*
X105797600Y-116878600D01*
G75*
G02*
X105897600Y-116978600I0J-100000D01*
G01*
G37*
%TD.AperFunction*%
%TO.P,U1,2*%
%TO.N,CLK1*%
%TA.AperFunction,SMDPad,CuDef*%
G36*
G01*
X105897600Y-117628600D02*
X105897600Y-117828600D01*
G75*
G02*
X105797600Y-117928600I-100000J0D01*
G01*
X104522600Y-117928600D01*
G75*
G02*
X104422600Y-117828600I0J100000D01*
G01*
X104422600Y-117628600D01*
G75*
G02*
X104522600Y-117528600I100000J0D01*
G01*
X105797600Y-117528600D01*
G75*
G02*
X105897600Y-117628600I0J-100000D01*
G01*
G37*
%TD.AperFunction*%
%TO.P,U1,1*%
%TO.N,GND*%
%TA.AperFunction,SMDPad,CuDef*%
G36*
G01*
X105897600Y-118278600D02*
X105897600Y-118478600D01*
G75*
G02*
X105797600Y-118578600I-100000J0D01*
G01*
X104522600Y-118578600D01*
G75*
G02*
X104422600Y-118478600I0J100000D01*
G01*
X104422600Y-118278600D01*
G75*
G02*
X104522600Y-118178600I100000J0D01*
G01*
X105797600Y-118178600D01*
G75*
G02*
X105897600Y-118278600I0J-100000D01*
G01*
G37*
%TD.AperFunction*%
%TD*%
D21*
%TO.P,SW3,2*%
%TO.N,Net-(R22-Pad2)*%
X167530000Y-91885000D03*
%TO.P,SW3,1*%
%TO.N,BUTTONS*%
X163030000Y-91885000D03*
X163030000Y-99835000D03*
%TO.P,SW3,2*%
%TO.N,Net-(R22-Pad2)*%
X167530000Y-99835000D03*
%TD*%
%TO.P,SW2,2*%
%TO.N,Net-(R21-Pad2)*%
X167530000Y-103315000D03*
%TO.P,SW2,1*%
%TO.N,BUTTONS*%
X163030000Y-103315000D03*
X163030000Y-111265000D03*
%TO.P,SW2,2*%
%TO.N,Net-(R21-Pad2)*%
X167530000Y-111265000D03*
%TD*%
D22*
%TO.P,SW1,3*%
%TO.N,Net-(J2-Pad1)*%
X128600000Y-138420000D03*
%TO.P,SW1,2*%
%TO.N,RF*%
X126100000Y-138420000D03*
%TO.P,SW1,1*%
%TO.N,Net-(C14-Pad2)*%
X123600000Y-138420000D03*
%TO.P,SW1,6*%
%TO.N,Net-(J2-Pad3)*%
X128600000Y-140820000D03*
%TO.P,SW1,5*%
%TO.N,Net-(J3-Pad1)*%
X126100000Y-140820000D03*
%TO.P,SW1,4*%
%TO.N,Net-(C19-Pad1)*%
X123600000Y-140820000D03*
%TD*%
%TO.P,R30,2*%
%TO.N,+5V*%
%TA.AperFunction,SMDPad,CuDef*%
G36*
G01*
X143050000Y-74932599D02*
X143050000Y-75832601D01*
G75*
G02*
X142800001Y-76082600I-249999J0D01*
G01*
X142149999Y-76082600D01*
G75*
G02*
X141900000Y-75832601I0J249999D01*
G01*
X141900000Y-74932599D01*
G75*
G02*
X142149999Y-74682600I249999J0D01*
G01*
X142800001Y-74682600D01*
G75*
G02*
X143050000Y-74932599I0J-249999D01*
G01*
G37*
%TD.AperFunction*%
%TO.P,R30,1*%
%TO.N,DAH*%
%TA.AperFunction,SMDPad,CuDef*%
G36*
G01*
X145100000Y-74932599D02*
X145100000Y-75832601D01*
G75*
G02*
X144850001Y-76082600I-249999J0D01*
G01*
X144199999Y-76082600D01*
G75*
G02*
X143950000Y-75832601I0J249999D01*
G01*
X143950000Y-74932599D01*
G75*
G02*
X144199999Y-74682600I249999J0D01*
G01*
X144850001Y-74682600D01*
G75*
G02*
X145100000Y-74932599I0J-249999D01*
G01*
G37*
%TD.AperFunction*%
%TD*%
%TO.P,R29,2*%
%TO.N,DVM*%
%TA.AperFunction,SMDPad,CuDef*%
G36*
G01*
X143975000Y-73750001D02*
X143975000Y-72849999D01*
G75*
G02*
X144224999Y-72600000I249999J0D01*
G01*
X144875001Y-72600000D01*
G75*
G02*
X145125000Y-72849999I0J-249999D01*
G01*
X145125000Y-73750001D01*
G75*
G02*
X144875001Y-74000000I-249999J0D01*
G01*
X144224999Y-74000000D01*
G75*
G02*
X143975000Y-73750001I0J249999D01*
G01*
G37*
%TD.AperFunction*%
%TO.P,R29,1*%
%TO.N,GND*%
%TA.AperFunction,SMDPad,CuDef*%
G36*
G01*
X141925000Y-73750001D02*
X141925000Y-72849999D01*
G75*
G02*
X142174999Y-72600000I249999J0D01*
G01*
X142825001Y-72600000D01*
G75*
G02*
X143075000Y-72849999I0J-249999D01*
G01*
X143075000Y-73750001D01*
G75*
G02*
X142825001Y-74000000I-249999J0D01*
G01*
X142174999Y-74000000D01*
G75*
G02*
X141925000Y-73750001I0J249999D01*
G01*
G37*
%TD.AperFunction*%
%TD*%
%TO.P,R28,2*%
%TO.N,AREF*%
%TA.AperFunction,SMDPad,CuDef*%
G36*
G01*
X143050000Y-70749999D02*
X143050000Y-71650001D01*
G75*
G02*
X142800001Y-71900000I-249999J0D01*
G01*
X142149999Y-71900000D01*
G75*
G02*
X141900000Y-71650001I0J249999D01*
G01*
X141900000Y-70749999D01*
G75*
G02*
X142149999Y-70500000I249999J0D01*
G01*
X142800001Y-70500000D01*
G75*
G02*
X143050000Y-70749999I0J-249999D01*
G01*
G37*
%TD.AperFunction*%
%TO.P,R28,1*%
%TO.N,DVM*%
%TA.AperFunction,SMDPad,CuDef*%
G36*
G01*
X145100000Y-70749999D02*
X145100000Y-71650001D01*
G75*
G02*
X144850001Y-71900000I-249999J0D01*
G01*
X144199999Y-71900000D01*
G75*
G02*
X143950000Y-71650001I0J249999D01*
G01*
X143950000Y-70749999D01*
G75*
G02*
X144199999Y-70500000I249999J0D01*
G01*
X144850001Y-70500000D01*
G75*
G02*
X145100000Y-70749999I0J-249999D01*
G01*
G37*
%TD.AperFunction*%
%TD*%
%TO.P,R27,2*%
%TO.N,Net-(C24-Pad2)*%
%TA.AperFunction,SMDPad,CuDef*%
G36*
G01*
X161460000Y-73699999D02*
X161460000Y-74600001D01*
G75*
G02*
X161210001Y-74850000I-249999J0D01*
G01*
X160559999Y-74850000D01*
G75*
G02*
X160310000Y-74600001I0J249999D01*
G01*
X160310000Y-73699999D01*
G75*
G02*
X160559999Y-73450000I249999J0D01*
G01*
X161210001Y-73450000D01*
G75*
G02*
X161460000Y-73699999I0J-249999D01*
G01*
G37*
%TD.AperFunction*%
%TO.P,R27,1*%
%TO.N,Net-(C25-Pad1)*%
%TA.AperFunction,SMDPad,CuDef*%
G36*
G01*
X163510000Y-73699999D02*
X163510000Y-74600001D01*
G75*
G02*
X163260001Y-74850000I-249999J0D01*
G01*
X162609999Y-74850000D01*
G75*
G02*
X162360000Y-74600001I0J249999D01*
G01*
X162360000Y-73699999D01*
G75*
G02*
X162609999Y-73450000I249999J0D01*
G01*
X163260001Y-73450000D01*
G75*
G02*
X163510000Y-73699999I0J-249999D01*
G01*
G37*
%TD.AperFunction*%
%TD*%
%TO.P,R26,2*%
%TO.N,+12V*%
%TA.AperFunction,SMDPad,CuDef*%
G36*
G01*
X178449600Y-67129199D02*
X178449600Y-68029201D01*
G75*
G02*
X178199601Y-68279200I-249999J0D01*
G01*
X177549599Y-68279200D01*
G75*
G02*
X177299600Y-68029201I0J249999D01*
G01*
X177299600Y-67129199D01*
G75*
G02*
X177549599Y-66879200I249999J0D01*
G01*
X178199601Y-66879200D01*
G75*
G02*
X178449600Y-67129199I0J-249999D01*
G01*
G37*
%TD.AperFunction*%
%TO.P,R26,1*%
%TO.N,Net-(J10-Pad15)*%
%TA.AperFunction,SMDPad,CuDef*%
G36*
G01*
X180499600Y-67129199D02*
X180499600Y-68029201D01*
G75*
G02*
X180249601Y-68279200I-249999J0D01*
G01*
X179599599Y-68279200D01*
G75*
G02*
X179349600Y-68029201I0J249999D01*
G01*
X179349600Y-67129199D01*
G75*
G02*
X179599599Y-66879200I249999J0D01*
G01*
X180249601Y-66879200D01*
G75*
G02*
X180499600Y-67129199I0J-249999D01*
G01*
G37*
%TD.AperFunction*%
%TD*%
%TO.P,R25,2*%
%TO.N,Net-(J10-Pad3)*%
%TA.AperFunction,SMDPad,CuDef*%
G36*
G01*
X177205000Y-101469999D02*
X177205000Y-102370001D01*
G75*
G02*
X176955001Y-102620000I-249999J0D01*
G01*
X176304999Y-102620000D01*
G75*
G02*
X176055000Y-102370001I0J249999D01*
G01*
X176055000Y-101469999D01*
G75*
G02*
X176304999Y-101220000I249999J0D01*
G01*
X176955001Y-101220000D01*
G75*
G02*
X177205000Y-101469999I0J-249999D01*
G01*
G37*
%TD.AperFunction*%
%TO.P,R25,1*%
%TO.N,+5V*%
%TA.AperFunction,SMDPad,CuDef*%
G36*
G01*
X179255000Y-101469999D02*
X179255000Y-102370001D01*
G75*
G02*
X179005001Y-102620000I-249999J0D01*
G01*
X178354999Y-102620000D01*
G75*
G02*
X178105000Y-102370001I0J249999D01*
G01*
X178105000Y-101469999D01*
G75*
G02*
X178354999Y-101220000I249999J0D01*
G01*
X179005001Y-101220000D01*
G75*
G02*
X179255000Y-101469999I0J-249999D01*
G01*
G37*
%TD.AperFunction*%
%TD*%
%TO.P,R24,2*%
%TO.N,GND*%
%TA.AperFunction,SMDPad,CuDef*%
G36*
G01*
X177205000Y-97659999D02*
X177205000Y-98560001D01*
G75*
G02*
X176955001Y-98810000I-249999J0D01*
G01*
X176304999Y-98810000D01*
G75*
G02*
X176055000Y-98560001I0J249999D01*
G01*
X176055000Y-97659999D01*
G75*
G02*
X176304999Y-97410000I249999J0D01*
G01*
X176955001Y-97410000D01*
G75*
G02*
X177205000Y-97659999I0J-249999D01*
G01*
G37*
%TD.AperFunction*%
%TO.P,R24,1*%
%TO.N,Net-(J10-Pad3)*%
%TA.AperFunction,SMDPad,CuDef*%
G36*
G01*
X179255000Y-97659999D02*
X179255000Y-98560001D01*
G75*
G02*
X179005001Y-98810000I-249999J0D01*
G01*
X178354999Y-98810000D01*
G75*
G02*
X178105000Y-98560001I0J249999D01*
G01*
X178105000Y-97659999D01*
G75*
G02*
X178354999Y-97410000I249999J0D01*
G01*
X179005001Y-97410000D01*
G75*
G02*
X179255000Y-97659999I0J-249999D01*
G01*
G37*
%TD.AperFunction*%
%TD*%
%TO.P,R23,2*%
%TO.N,BUTTONS*%
%TA.AperFunction,SMDPad,CuDef*%
G36*
G01*
X160015001Y-111675000D02*
X159114999Y-111675000D01*
G75*
G02*
X158865000Y-111425001I0J249999D01*
G01*
X158865000Y-110774999D01*
G75*
G02*
X159114999Y-110525000I249999J0D01*
G01*
X160015001Y-110525000D01*
G75*
G02*
X160265000Y-110774999I0J-249999D01*
G01*
X160265000Y-111425001D01*
G75*
G02*
X160015001Y-111675000I-249999J0D01*
G01*
G37*
%TD.AperFunction*%
%TO.P,R23,1*%
%TO.N,GND*%
%TA.AperFunction,SMDPad,CuDef*%
G36*
G01*
X160015001Y-113725000D02*
X159114999Y-113725000D01*
G75*
G02*
X158865000Y-113475001I0J249999D01*
G01*
X158865000Y-112824999D01*
G75*
G02*
X159114999Y-112575000I249999J0D01*
G01*
X160015001Y-112575000D01*
G75*
G02*
X160265000Y-112824999I0J-249999D01*
G01*
X160265000Y-113475001D01*
G75*
G02*
X160015001Y-113725000I-249999J0D01*
G01*
G37*
%TD.AperFunction*%
%TD*%
%TO.P,R22,2*%
%TO.N,Net-(R22-Pad2)*%
%TA.AperFunction,SMDPad,CuDef*%
G36*
G01*
X170810001Y-98585000D02*
X169909999Y-98585000D01*
G75*
G02*
X169660000Y-98335001I0J249999D01*
G01*
X169660000Y-97684999D01*
G75*
G02*
X169909999Y-97435000I249999J0D01*
G01*
X170810001Y-97435000D01*
G75*
G02*
X171060000Y-97684999I0J-249999D01*
G01*
X171060000Y-98335001D01*
G75*
G02*
X170810001Y-98585000I-249999J0D01*
G01*
G37*
%TD.AperFunction*%
%TO.P,R22,1*%
%TO.N,+5V*%
%TA.AperFunction,SMDPad,CuDef*%
G36*
G01*
X170810001Y-100635000D02*
X169909999Y-100635000D01*
G75*
G02*
X169660000Y-100385001I0J249999D01*
G01*
X169660000Y-99734999D01*
G75*
G02*
X169909999Y-99485000I249999J0D01*
G01*
X170810001Y-99485000D01*
G75*
G02*
X171060000Y-99734999I0J-249999D01*
G01*
X171060000Y-100385001D01*
G75*
G02*
X170810001Y-100635000I-249999J0D01*
G01*
G37*
%TD.AperFunction*%
%TD*%
%TO.P,R21,2*%
%TO.N,Net-(R21-Pad2)*%
%TA.AperFunction,SMDPad,CuDef*%
G36*
G01*
X169909999Y-104565000D02*
X170810001Y-104565000D01*
G75*
G02*
X171060000Y-104814999I0J-249999D01*
G01*
X171060000Y-105465001D01*
G75*
G02*
X170810001Y-105715000I-249999J0D01*
G01*
X169909999Y-105715000D01*
G75*
G02*
X169660000Y-105465001I0J249999D01*
G01*
X169660000Y-104814999D01*
G75*
G02*
X169909999Y-104565000I249999J0D01*
G01*
G37*
%TD.AperFunction*%
%TO.P,R21,1*%
%TO.N,+5V*%
%TA.AperFunction,SMDPad,CuDef*%
G36*
G01*
X169909999Y-102515000D02*
X170810001Y-102515000D01*
G75*
G02*
X171060000Y-102764999I0J-249999D01*
G01*
X171060000Y-103415001D01*
G75*
G02*
X170810001Y-103665000I-249999J0D01*
G01*
X169909999Y-103665000D01*
G75*
G02*
X169660000Y-103415001I0J249999D01*
G01*
X169660000Y-102764999D01*
G75*
G02*
X169909999Y-102515000I249999J0D01*
G01*
G37*
%TD.AperFunction*%
%TD*%
%TO.P,R20,2*%
%TO.N,SCL_3V3*%
%TA.AperFunction,SMDPad,CuDef*%
G36*
G01*
X116877600Y-78801201D02*
X116877600Y-77901199D01*
G75*
G02*
X117127599Y-77651200I249999J0D01*
G01*
X117777601Y-77651200D01*
G75*
G02*
X118027600Y-77901199I0J-249999D01*
G01*
X118027600Y-78801201D01*
G75*
G02*
X117777601Y-79051200I-249999J0D01*
G01*
X117127599Y-79051200D01*
G75*
G02*
X116877600Y-78801201I0J249999D01*
G01*
G37*
%TD.AperFunction*%
%TO.P,R20,1*%
%TO.N,+3V3*%
%TA.AperFunction,SMDPad,CuDef*%
G36*
G01*
X114827600Y-78801201D02*
X114827600Y-77901199D01*
G75*
G02*
X115077599Y-77651200I249999J0D01*
G01*
X115727601Y-77651200D01*
G75*
G02*
X115977600Y-77901199I0J-249999D01*
G01*
X115977600Y-78801201D01*
G75*
G02*
X115727601Y-79051200I-249999J0D01*
G01*
X115077599Y-79051200D01*
G75*
G02*
X114827600Y-78801201I0J249999D01*
G01*
G37*
%TD.AperFunction*%
%TD*%
%TO.P,R19,2*%
%TO.N,LCD_RS*%
%TA.AperFunction,SMDPad,CuDef*%
G36*
G01*
X116928400Y-76210401D02*
X116928400Y-75310399D01*
G75*
G02*
X117178399Y-75060400I249999J0D01*
G01*
X117828401Y-75060400D01*
G75*
G02*
X118078400Y-75310399I0J-249999D01*
G01*
X118078400Y-76210401D01*
G75*
G02*
X117828401Y-76460400I-249999J0D01*
G01*
X117178399Y-76460400D01*
G75*
G02*
X116928400Y-76210401I0J249999D01*
G01*
G37*
%TD.AperFunction*%
%TO.P,R19,1*%
%TO.N,+3V3*%
%TA.AperFunction,SMDPad,CuDef*%
G36*
G01*
X114878400Y-76210401D02*
X114878400Y-75310399D01*
G75*
G02*
X115128399Y-75060400I249999J0D01*
G01*
X115778401Y-75060400D01*
G75*
G02*
X116028400Y-75310399I0J-249999D01*
G01*
X116028400Y-76210401D01*
G75*
G02*
X115778401Y-76460400I-249999J0D01*
G01*
X115128399Y-76460400D01*
G75*
G02*
X114878400Y-76210401I0J249999D01*
G01*
G37*
%TD.AperFunction*%
%TD*%
%TO.P,R18,2*%
%TO.N,GND*%
%TA.AperFunction,SMDPad,CuDef*%
G36*
G01*
X94074799Y-77494200D02*
X94974801Y-77494200D01*
G75*
G02*
X95224800Y-77744199I0J-249999D01*
G01*
X95224800Y-78394201D01*
G75*
G02*
X94974801Y-78644200I-249999J0D01*
G01*
X94074799Y-78644200D01*
G75*
G02*
X93824800Y-78394201I0J249999D01*
G01*
X93824800Y-77744199D01*
G75*
G02*
X94074799Y-77494200I249999J0D01*
G01*
G37*
%TD.AperFunction*%
%TO.P,R18,1*%
%TO.N,AUDIO2*%
%TA.AperFunction,SMDPad,CuDef*%
G36*
G01*
X94074799Y-75444200D02*
X94974801Y-75444200D01*
G75*
G02*
X95224800Y-75694199I0J-249999D01*
G01*
X95224800Y-76344201D01*
G75*
G02*
X94974801Y-76594200I-249999J0D01*
G01*
X94074799Y-76594200D01*
G75*
G02*
X93824800Y-76344201I0J249999D01*
G01*
X93824800Y-75694199D01*
G75*
G02*
X94074799Y-75444200I249999J0D01*
G01*
G37*
%TD.AperFunction*%
%TD*%
%TO.P,R17,2*%
%TO.N,AUDIO2*%
%TA.AperFunction,SMDPad,CuDef*%
G36*
G01*
X92855600Y-73587999D02*
X92855600Y-74488001D01*
G75*
G02*
X92605601Y-74738000I-249999J0D01*
G01*
X91955599Y-74738000D01*
G75*
G02*
X91705600Y-74488001I0J249999D01*
G01*
X91705600Y-73587999D01*
G75*
G02*
X91955599Y-73338000I249999J0D01*
G01*
X92605601Y-73338000D01*
G75*
G02*
X92855600Y-73587999I0J-249999D01*
G01*
G37*
%TD.AperFunction*%
%TO.P,R17,1*%
%TO.N,AREF*%
%TA.AperFunction,SMDPad,CuDef*%
G36*
G01*
X94905600Y-73587999D02*
X94905600Y-74488001D01*
G75*
G02*
X94655601Y-74738000I-249999J0D01*
G01*
X94005599Y-74738000D01*
G75*
G02*
X93755600Y-74488001I0J249999D01*
G01*
X93755600Y-73587999D01*
G75*
G02*
X94005599Y-73338000I249999J0D01*
G01*
X94655601Y-73338000D01*
G75*
G02*
X94905600Y-73587999I0J-249999D01*
G01*
G37*
%TD.AperFunction*%
%TD*%
%TO.P,R16,2*%
%TO.N,GND*%
%TA.AperFunction,SMDPad,CuDef*%
G36*
G01*
X107892399Y-78856800D02*
X108792401Y-78856800D01*
G75*
G02*
X109042400Y-79106799I0J-249999D01*
G01*
X109042400Y-79756801D01*
G75*
G02*
X108792401Y-80006800I-249999J0D01*
G01*
X107892399Y-80006800D01*
G75*
G02*
X107642400Y-79756801I0J249999D01*
G01*
X107642400Y-79106799D01*
G75*
G02*
X107892399Y-78856800I249999J0D01*
G01*
G37*
%TD.AperFunction*%
%TO.P,R16,1*%
%TO.N,AUDIO1*%
%TA.AperFunction,SMDPad,CuDef*%
G36*
G01*
X107892399Y-76806800D02*
X108792401Y-76806800D01*
G75*
G02*
X109042400Y-77056799I0J-249999D01*
G01*
X109042400Y-77706801D01*
G75*
G02*
X108792401Y-77956800I-249999J0D01*
G01*
X107892399Y-77956800D01*
G75*
G02*
X107642400Y-77706801I0J249999D01*
G01*
X107642400Y-77056799D01*
G75*
G02*
X107892399Y-76806800I249999J0D01*
G01*
G37*
%TD.AperFunction*%
%TD*%
%TO.P,R15,2*%
%TO.N,AUDIO1*%
%TA.AperFunction,SMDPad,CuDef*%
G36*
G01*
X110155000Y-75656401D02*
X110155000Y-74756399D01*
G75*
G02*
X110404999Y-74506400I249999J0D01*
G01*
X111055001Y-74506400D01*
G75*
G02*
X111305000Y-74756399I0J-249999D01*
G01*
X111305000Y-75656401D01*
G75*
G02*
X111055001Y-75906400I-249999J0D01*
G01*
X110404999Y-75906400D01*
G75*
G02*
X110155000Y-75656401I0J249999D01*
G01*
G37*
%TD.AperFunction*%
%TO.P,R15,1*%
%TO.N,AREF*%
%TA.AperFunction,SMDPad,CuDef*%
G36*
G01*
X108105000Y-75656401D02*
X108105000Y-74756399D01*
G75*
G02*
X108354999Y-74506400I249999J0D01*
G01*
X109005001Y-74506400D01*
G75*
G02*
X109255000Y-74756399I0J-249999D01*
G01*
X109255000Y-75656401D01*
G75*
G02*
X109005001Y-75906400I-249999J0D01*
G01*
X108354999Y-75906400D01*
G75*
G02*
X108105000Y-75656401I0J249999D01*
G01*
G37*
%TD.AperFunction*%
%TD*%
%TO.P,R14,2*%
%TO.N,Net-(C17-Pad1)*%
%TA.AperFunction,SMDPad,CuDef*%
G36*
G01*
X94974801Y-80598400D02*
X94074799Y-80598400D01*
G75*
G02*
X93824800Y-80348401I0J249999D01*
G01*
X93824800Y-79698399D01*
G75*
G02*
X94074799Y-79448400I249999J0D01*
G01*
X94974801Y-79448400D01*
G75*
G02*
X95224800Y-79698399I0J-249999D01*
G01*
X95224800Y-80348401D01*
G75*
G02*
X94974801Y-80598400I-249999J0D01*
G01*
G37*
%TD.AperFunction*%
%TO.P,R14,1*%
%TO.N,Net-(C17-Pad2)*%
%TA.AperFunction,SMDPad,CuDef*%
G36*
G01*
X94974801Y-82648400D02*
X94074799Y-82648400D01*
G75*
G02*
X93824800Y-82398401I0J249999D01*
G01*
X93824800Y-81748399D01*
G75*
G02*
X94074799Y-81498400I249999J0D01*
G01*
X94974801Y-81498400D01*
G75*
G02*
X95224800Y-81748399I0J-249999D01*
G01*
X95224800Y-82398401D01*
G75*
G02*
X94974801Y-82648400I-249999J0D01*
G01*
G37*
%TD.AperFunction*%
%TD*%
%TO.P,R13,2*%
%TO.N,Net-(C16-Pad1)*%
%TA.AperFunction,SMDPad,CuDef*%
G36*
G01*
X108894001Y-81970000D02*
X107993999Y-81970000D01*
G75*
G02*
X107744000Y-81720001I0J249999D01*
G01*
X107744000Y-81069999D01*
G75*
G02*
X107993999Y-80820000I249999J0D01*
G01*
X108894001Y-80820000D01*
G75*
G02*
X109144000Y-81069999I0J-249999D01*
G01*
X109144000Y-81720001D01*
G75*
G02*
X108894001Y-81970000I-249999J0D01*
G01*
G37*
%TD.AperFunction*%
%TO.P,R13,1*%
%TO.N,Net-(C16-Pad2)*%
%TA.AperFunction,SMDPad,CuDef*%
G36*
G01*
X108894001Y-84020000D02*
X107993999Y-84020000D01*
G75*
G02*
X107744000Y-83770001I0J249999D01*
G01*
X107744000Y-83119999D01*
G75*
G02*
X107993999Y-82870000I249999J0D01*
G01*
X108894001Y-82870000D01*
G75*
G02*
X109144000Y-83119999I0J-249999D01*
G01*
X109144000Y-83770001D01*
G75*
G02*
X108894001Y-84020000I-249999J0D01*
G01*
G37*
%TD.AperFunction*%
%TD*%
%TO.P,R12,2*%
%TO.N,Net-(C17-Pad2)*%
%TA.AperFunction,SMDPad,CuDef*%
G36*
G01*
X106550001Y-87650000D02*
X105649999Y-87650000D01*
G75*
G02*
X105400000Y-87400001I0J249999D01*
G01*
X105400000Y-86749999D01*
G75*
G02*
X105649999Y-86500000I249999J0D01*
G01*
X106550001Y-86500000D01*
G75*
G02*
X106800000Y-86749999I0J-249999D01*
G01*
X106800000Y-87400001D01*
G75*
G02*
X106550001Y-87650000I-249999J0D01*
G01*
G37*
%TD.AperFunction*%
%TO.P,R12,1*%
%TO.N,270deg*%
%TA.AperFunction,SMDPad,CuDef*%
G36*
G01*
X106550001Y-89700000D02*
X105649999Y-89700000D01*
G75*
G02*
X105400000Y-89450001I0J249999D01*
G01*
X105400000Y-88799999D01*
G75*
G02*
X105649999Y-88550000I249999J0D01*
G01*
X106550001Y-88550000D01*
G75*
G02*
X106800000Y-88799999I0J-249999D01*
G01*
X106800000Y-89450001D01*
G75*
G02*
X106550001Y-89700000I-249999J0D01*
G01*
G37*
%TD.AperFunction*%
%TD*%
%TO.P,R11,2*%
%TO.N,Net-(R11-Pad2)*%
%TA.AperFunction,SMDPad,CuDef*%
G36*
G01*
X95350001Y-87650000D02*
X94449999Y-87650000D01*
G75*
G02*
X94200000Y-87400001I0J249999D01*
G01*
X94200000Y-86749999D01*
G75*
G02*
X94449999Y-86500000I249999J0D01*
G01*
X95350001Y-86500000D01*
G75*
G02*
X95600000Y-86749999I0J-249999D01*
G01*
X95600000Y-87400001D01*
G75*
G02*
X95350001Y-87650000I-249999J0D01*
G01*
G37*
%TD.AperFunction*%
%TO.P,R11,1*%
%TO.N,90deg*%
%TA.AperFunction,SMDPad,CuDef*%
G36*
G01*
X95350001Y-89700000D02*
X94449999Y-89700000D01*
G75*
G02*
X94200000Y-89450001I0J249999D01*
G01*
X94200000Y-88799999D01*
G75*
G02*
X94449999Y-88550000I249999J0D01*
G01*
X95350001Y-88550000D01*
G75*
G02*
X95600000Y-88799999I0J-249999D01*
G01*
X95600000Y-89450001D01*
G75*
G02*
X95350001Y-89700000I-249999J0D01*
G01*
G37*
%TD.AperFunction*%
%TD*%
%TO.P,R10,2*%
%TO.N,Net-(R10-Pad2)*%
%TA.AperFunction,SMDPad,CuDef*%
G36*
G01*
X102850001Y-87600000D02*
X101949999Y-87600000D01*
G75*
G02*
X101700000Y-87350001I0J249999D01*
G01*
X101700000Y-86699999D01*
G75*
G02*
X101949999Y-86450000I249999J0D01*
G01*
X102850001Y-86450000D01*
G75*
G02*
X103100000Y-86699999I0J-249999D01*
G01*
X103100000Y-87350001D01*
G75*
G02*
X102850001Y-87600000I-249999J0D01*
G01*
G37*
%TD.AperFunction*%
%TO.P,R10,1*%
%TO.N,180deg*%
%TA.AperFunction,SMDPad,CuDef*%
G36*
G01*
X102850001Y-89650000D02*
X101949999Y-89650000D01*
G75*
G02*
X101700000Y-89400001I0J249999D01*
G01*
X101700000Y-88749999D01*
G75*
G02*
X101949999Y-88500000I249999J0D01*
G01*
X102850001Y-88500000D01*
G75*
G02*
X103100000Y-88749999I0J-249999D01*
G01*
X103100000Y-89400001D01*
G75*
G02*
X102850001Y-89650000I-249999J0D01*
G01*
G37*
%TD.AperFunction*%
%TD*%
%TO.P,R9,2*%
%TO.N,Net-(C16-Pad2)*%
%TA.AperFunction,SMDPad,CuDef*%
G36*
G01*
X99150001Y-87650000D02*
X98249999Y-87650000D01*
G75*
G02*
X98000000Y-87400001I0J249999D01*
G01*
X98000000Y-86749999D01*
G75*
G02*
X98249999Y-86500000I249999J0D01*
G01*
X99150001Y-86500000D01*
G75*
G02*
X99400000Y-86749999I0J-249999D01*
G01*
X99400000Y-87400001D01*
G75*
G02*
X99150001Y-87650000I-249999J0D01*
G01*
G37*
%TD.AperFunction*%
%TO.P,R9,1*%
%TO.N,0deg*%
%TA.AperFunction,SMDPad,CuDef*%
G36*
G01*
X99150001Y-89700000D02*
X98249999Y-89700000D01*
G75*
G02*
X98000000Y-89450001I0J249999D01*
G01*
X98000000Y-88799999D01*
G75*
G02*
X98249999Y-88550000I249999J0D01*
G01*
X99150001Y-88550000D01*
G75*
G02*
X99400000Y-88799999I0J-249999D01*
G01*
X99400000Y-89450001D01*
G75*
G02*
X99150001Y-89700000I-249999J0D01*
G01*
G37*
%TD.AperFunction*%
%TD*%
%TO.P,R8,2*%
%TO.N,demodIN*%
%TA.AperFunction,SMDPad,CuDef*%
G36*
G01*
X110540800Y-105108401D02*
X110540800Y-104208399D01*
G75*
G02*
X110790799Y-103958400I249999J0D01*
G01*
X111440801Y-103958400D01*
G75*
G02*
X111690800Y-104208399I0J-249999D01*
G01*
X111690800Y-105108401D01*
G75*
G02*
X111440801Y-105358400I-249999J0D01*
G01*
X110790799Y-105358400D01*
G75*
G02*
X110540800Y-105108401I0J249999D01*
G01*
G37*
%TD.AperFunction*%
%TO.P,R8,1*%
%TO.N,GND*%
%TA.AperFunction,SMDPad,CuDef*%
G36*
G01*
X108490800Y-105108401D02*
X108490800Y-104208399D01*
G75*
G02*
X108740799Y-103958400I249999J0D01*
G01*
X109390801Y-103958400D01*
G75*
G02*
X109640800Y-104208399I0J-249999D01*
G01*
X109640800Y-105108401D01*
G75*
G02*
X109390801Y-105358400I-249999J0D01*
G01*
X108740799Y-105358400D01*
G75*
G02*
X108490800Y-105108401I0J249999D01*
G01*
G37*
%TD.AperFunction*%
%TD*%
%TO.P,R7,2*%
%TO.N,GateDrive*%
%TA.AperFunction,SMDPad,CuDef*%
G36*
G01*
X137543400Y-109505601D02*
X137543400Y-108605599D01*
G75*
G02*
X137793399Y-108355600I249999J0D01*
G01*
X138443401Y-108355600D01*
G75*
G02*
X138693400Y-108605599I0J-249999D01*
G01*
X138693400Y-109505601D01*
G75*
G02*
X138443401Y-109755600I-249999J0D01*
G01*
X137793399Y-109755600D01*
G75*
G02*
X137543400Y-109505601I0J249999D01*
G01*
G37*
%TD.AperFunction*%
%TO.P,R7,1*%
%TO.N,Net-(C12-Pad1)*%
%TA.AperFunction,SMDPad,CuDef*%
G36*
G01*
X135493400Y-109505601D02*
X135493400Y-108605599D01*
G75*
G02*
X135743399Y-108355600I249999J0D01*
G01*
X136393401Y-108355600D01*
G75*
G02*
X136643400Y-108605599I0J-249999D01*
G01*
X136643400Y-109505601D01*
G75*
G02*
X136393401Y-109755600I-249999J0D01*
G01*
X135743399Y-109755600D01*
G75*
G02*
X135493400Y-109505601I0J249999D01*
G01*
G37*
%TD.AperFunction*%
%TD*%
%TO.P,R6,2*%
%TO.N,SIG_OUT*%
%TA.AperFunction,SMDPad,CuDef*%
G36*
G01*
X132650000Y-112649999D02*
X132650000Y-113550001D01*
G75*
G02*
X132400001Y-113800000I-249999J0D01*
G01*
X131749999Y-113800000D01*
G75*
G02*
X131500000Y-113550001I0J249999D01*
G01*
X131500000Y-112649999D01*
G75*
G02*
X131749999Y-112400000I249999J0D01*
G01*
X132400001Y-112400000D01*
G75*
G02*
X132650000Y-112649999I0J-249999D01*
G01*
G37*
%TD.AperFunction*%
%TO.P,R6,1*%
%TO.N,Net-(C12-Pad1)*%
%TA.AperFunction,SMDPad,CuDef*%
G36*
G01*
X134700000Y-112649999D02*
X134700000Y-113550001D01*
G75*
G02*
X134450001Y-113800000I-249999J0D01*
G01*
X133799999Y-113800000D01*
G75*
G02*
X133550000Y-113550001I0J249999D01*
G01*
X133550000Y-112649999D01*
G75*
G02*
X133799999Y-112400000I249999J0D01*
G01*
X134450001Y-112400000D01*
G75*
G02*
X134700000Y-112649999I0J-249999D01*
G01*
G37*
%TD.AperFunction*%
%TD*%
%TO.P,R5,2*%
%TO.N,Net-(Q1-Pad2)*%
%TA.AperFunction,SMDPad,CuDef*%
G36*
G01*
X136694200Y-113065199D02*
X136694200Y-113965201D01*
G75*
G02*
X136444201Y-114215200I-249999J0D01*
G01*
X135794199Y-114215200D01*
G75*
G02*
X135544200Y-113965201I0J249999D01*
G01*
X135544200Y-113065199D01*
G75*
G02*
X135794199Y-112815200I249999J0D01*
G01*
X136444201Y-112815200D01*
G75*
G02*
X136694200Y-113065199I0J-249999D01*
G01*
G37*
%TD.AperFunction*%
%TO.P,R5,1*%
%TO.N,GND*%
%TA.AperFunction,SMDPad,CuDef*%
G36*
G01*
X138744200Y-113065199D02*
X138744200Y-113965201D01*
G75*
G02*
X138494201Y-114215200I-249999J0D01*
G01*
X137844199Y-114215200D01*
G75*
G02*
X137594200Y-113965201I0J249999D01*
G01*
X137594200Y-113065199D01*
G75*
G02*
X137844199Y-112815200I249999J0D01*
G01*
X138494201Y-112815200D01*
G75*
G02*
X138744200Y-113065199I0J-249999D01*
G01*
G37*
%TD.AperFunction*%
%TD*%
%TO.P,R4,2*%
%TO.N,+12V*%
%TA.AperFunction,SMDPad,CuDef*%
G36*
G01*
X128950000Y-109949999D02*
X128950000Y-110850001D01*
G75*
G02*
X128700001Y-111100000I-249999J0D01*
G01*
X128049999Y-111100000D01*
G75*
G02*
X127800000Y-110850001I0J249999D01*
G01*
X127800000Y-109949999D01*
G75*
G02*
X128049999Y-109700000I249999J0D01*
G01*
X128700001Y-109700000D01*
G75*
G02*
X128950000Y-109949999I0J-249999D01*
G01*
G37*
%TD.AperFunction*%
%TO.P,R4,1*%
%TO.N,Net-(Q1-Pad3)*%
%TA.AperFunction,SMDPad,CuDef*%
G36*
G01*
X131000000Y-109949999D02*
X131000000Y-110850001D01*
G75*
G02*
X130750001Y-111100000I-249999J0D01*
G01*
X130099999Y-111100000D01*
G75*
G02*
X129850000Y-110850001I0J249999D01*
G01*
X129850000Y-109949999D01*
G75*
G02*
X130099999Y-109700000I249999J0D01*
G01*
X130750001Y-109700000D01*
G75*
G02*
X131000000Y-109949999I0J-249999D01*
G01*
G37*
%TD.AperFunction*%
%TD*%
%TO.P,R3,2*%
%TO.N,Net-(C2-Pad2)*%
%TA.AperFunction,SMDPad,CuDef*%
G36*
G01*
X101050000Y-112350001D02*
X101050000Y-111449999D01*
G75*
G02*
X101299999Y-111200000I249999J0D01*
G01*
X101950001Y-111200000D01*
G75*
G02*
X102200000Y-111449999I0J-249999D01*
G01*
X102200000Y-112350001D01*
G75*
G02*
X101950001Y-112600000I-249999J0D01*
G01*
X101299999Y-112600000D01*
G75*
G02*
X101050000Y-112350001I0J249999D01*
G01*
G37*
%TD.AperFunction*%
%TO.P,R3,1*%
%TO.N,Net-(C1-Pad1)*%
%TA.AperFunction,SMDPad,CuDef*%
G36*
G01*
X99000000Y-112350001D02*
X99000000Y-111449999D01*
G75*
G02*
X99249999Y-111200000I249999J0D01*
G01*
X99900001Y-111200000D01*
G75*
G02*
X100150000Y-111449999I0J-249999D01*
G01*
X100150000Y-112350001D01*
G75*
G02*
X99900001Y-112600000I-249999J0D01*
G01*
X99249999Y-112600000D01*
G75*
G02*
X99000000Y-112350001I0J249999D01*
G01*
G37*
%TD.AperFunction*%
%TD*%
%TO.P,R2,2*%
%TO.N,GND*%
%TA.AperFunction,SMDPad,CuDef*%
G36*
G01*
X98139200Y-107017599D02*
X98139200Y-107917601D01*
G75*
G02*
X97889201Y-108167600I-249999J0D01*
G01*
X97239199Y-108167600D01*
G75*
G02*
X96989200Y-107917601I0J249999D01*
G01*
X96989200Y-107017599D01*
G75*
G02*
X97239199Y-106767600I249999J0D01*
G01*
X97889201Y-106767600D01*
G75*
G02*
X98139200Y-107017599I0J-249999D01*
G01*
G37*
%TD.AperFunction*%
%TO.P,R2,1*%
%TO.N,Net-(C1-Pad1)*%
%TA.AperFunction,SMDPad,CuDef*%
G36*
G01*
X100189200Y-107017599D02*
X100189200Y-107917601D01*
G75*
G02*
X99939201Y-108167600I-249999J0D01*
G01*
X99289199Y-108167600D01*
G75*
G02*
X99039200Y-107917601I0J249999D01*
G01*
X99039200Y-107017599D01*
G75*
G02*
X99289199Y-106767600I249999J0D01*
G01*
X99939201Y-106767600D01*
G75*
G02*
X100189200Y-107017599I0J-249999D01*
G01*
G37*
%TD.AperFunction*%
%TD*%
%TO.P,R1,2*%
%TO.N,Net-(C1-Pad1)*%
%TA.AperFunction,SMDPad,CuDef*%
G36*
G01*
X102203200Y-107017599D02*
X102203200Y-107917601D01*
G75*
G02*
X101953201Y-108167600I-249999J0D01*
G01*
X101303199Y-108167600D01*
G75*
G02*
X101053200Y-107917601I0J249999D01*
G01*
X101053200Y-107017599D01*
G75*
G02*
X101303199Y-106767600I249999J0D01*
G01*
X101953201Y-106767600D01*
G75*
G02*
X102203200Y-107017599I0J-249999D01*
G01*
G37*
%TD.AperFunction*%
%TO.P,R1,1*%
%TO.N,+5V*%
%TA.AperFunction,SMDPad,CuDef*%
G36*
G01*
X104253200Y-107017599D02*
X104253200Y-107917601D01*
G75*
G02*
X104003201Y-108167600I-249999J0D01*
G01*
X103353199Y-108167600D01*
G75*
G02*
X103103200Y-107917601I0J249999D01*
G01*
X103103200Y-107017599D01*
G75*
G02*
X103353199Y-106767600I249999J0D01*
G01*
X104003201Y-106767600D01*
G75*
G02*
X104253200Y-107017599I0J-249999D01*
G01*
G37*
%TD.AperFunction*%
%TD*%
D23*
%TO.P,Q5,3*%
%TO.N,RF*%
X160057600Y-134519200D03*
%TO.P,Q5,2*%
%TO.N,GND*%
X162057600Y-133569200D03*
%TO.P,Q5,1*%
%TO.N,GateDrive*%
X162057600Y-135469200D03*
%TD*%
D24*
%TO.P,Q4,3*%
%TO.N,Net-(C13-Pad2)*%
X112326000Y-108630200D03*
%TO.P,Q4,2*%
%TO.N,demodIN*%
X111376000Y-106630200D03*
%TO.P,Q4,1*%
%TO.N,RX*%
X113276000Y-106630200D03*
%TD*%
%TO.P,Q3,3*%
%TO.N,GND*%
X133325200Y-109224000D03*
%TO.P,Q3,2*%
%TO.N,Net-(C10-Pad2)*%
X134275200Y-111224000D03*
%TO.P,Q3,1*%
%TO.N,Net-(Q1-Pad3)*%
X132375200Y-111224000D03*
%TD*%
%TO.P,Q2,3*%
%TO.N,+12V*%
X133274400Y-105261600D03*
%TO.P,Q2,2*%
%TO.N,Net-(C10-Pad2)*%
X134224400Y-107261600D03*
%TO.P,Q2,1*%
%TO.N,Net-(Q1-Pad3)*%
X132324400Y-107261600D03*
%TD*%
D23*
%TO.P,Q1,3*%
%TO.N,Net-(Q1-Pad3)*%
X132200000Y-116500000D03*
%TO.P,Q1,2*%
%TO.N,Net-(Q1-Pad2)*%
X134200000Y-115550000D03*
%TO.P,Q1,1*%
%TO.N,CLK2*%
X134200000Y-117450000D03*
%TD*%
D19*
%TO.P,MK1,2*%
%TO.N,Net-(J11-PadRN)*%
X151505000Y-78910000D03*
D20*
%TO.P,MK1,1*%
%TO.N,GND*%
X148965000Y-78910000D03*
%TD*%
D17*
%TO.P,L3,2*%
%TO.N,RF*%
X160346400Y-126950000D03*
%TO.P,L3,1*%
%TO.N,+12V*%
X165426400Y-126950000D03*
%TD*%
%TO.P,L2,2*%
%TO.N,Net-(C19-Pad1)*%
X111770000Y-124142800D03*
%TO.P,L2,1*%
%TO.N,Net-(C18-Pad1)*%
X116850000Y-124142800D03*
%TD*%
%TO.P,L1,2*%
%TO.N,Net-(C18-Pad1)*%
X122520000Y-124150000D03*
%TO.P,L1,1*%
%TO.N,Net-(C15-Pad2)*%
X127600000Y-124150000D03*
%TD*%
D19*
%TO.P,J13,3*%
%TO.N,GND*%
X165375600Y-139142000D03*
%TO.P,J13,2*%
%TO.N,GateDrive*%
X162835600Y-139142000D03*
D20*
%TO.P,J13,1*%
%TO.N,RF*%
X160295600Y-139142000D03*
%TD*%
D25*
%TO.P,J12,S*%
%TO.N,GND*%
X164995000Y-56595000D03*
D26*
%TO.P,J12,R*%
%TO.N,Net-(C25-Pad1)*%
X170195000Y-64595000D03*
%TO.P,J12,RN*%
%TO.N,Net-(J12-PadRN)*%
X167495000Y-63395000D03*
D25*
%TO.P,J12,TN*%
%TO.N,Net-(J12-PadTN)*%
X160895000Y-67795000D03*
D27*
%TO.P,J12,T*%
%TO.N,Net-(C25-Pad1)*%
X160395000Y-60495000D03*
%TD*%
D25*
%TO.P,J11,S*%
%TO.N,GND*%
X149120000Y-56595000D03*
D26*
%TO.P,J11,R*%
%TO.N,DAH*%
X154320000Y-64595000D03*
%TO.P,J11,RN*%
%TO.N,Net-(J11-PadRN)*%
X151620000Y-63395000D03*
D25*
%TO.P,J11,TN*%
%TO.N,Net-(J11-PadTN)*%
X145020000Y-67795000D03*
D27*
%TO.P,J11,T*%
%TO.N,DIT*%
X144520000Y-60495000D03*
%TD*%
D20*
%TO.P,J8,1*%
%TO.N,+3V3*%
X137400000Y-138700000D03*
D19*
%TO.P,J8,2*%
%TO.N,GND*%
X139940000Y-138700000D03*
%TO.P,J8,3*%
%TO.N,LCD_RS*%
X142480000Y-138700000D03*
%TO.P,J8,4*%
%TO.N,SCL_3V3*%
X145020000Y-138700000D03*
%TO.P,J8,5*%
%TO.N,CLK2*%
X147560000Y-138700000D03*
%TO.P,J8,6*%
%TO.N,CLK1*%
X150100000Y-138700000D03*
%TO.P,J8,7*%
%TO.N,CLK0*%
X152640000Y-138700000D03*
%TD*%
D20*
%TO.P,J7,1*%
%TO.N,CLK2*%
X149650000Y-124550000D03*
D19*
%TO.P,J7,2*%
%TO.N,GND*%
X149650000Y-127090000D03*
%TD*%
D20*
%TO.P,J6,1*%
%TO.N,CLK1*%
X144400000Y-124550000D03*
D19*
%TO.P,J6,2*%
%TO.N,GND*%
X144400000Y-127090000D03*
%TD*%
D20*
%TO.P,J5,1*%
%TO.N,CLK0*%
X139150000Y-124550000D03*
D19*
%TO.P,J5,2*%
%TO.N,GND*%
X139150000Y-127090000D03*
%TD*%
D20*
%TO.P,J4,1*%
%TO.N,Net-(J4-Pad1)*%
X138900000Y-134200000D03*
D19*
%TO.P,J4,2*%
%TO.N,+3V3*%
X141440000Y-134200000D03*
%TO.P,J4,3*%
%TO.N,SCL_3V3*%
X143980000Y-134200000D03*
%TO.P,J4,4*%
%TO.N,LCD_RS*%
X146520000Y-134200000D03*
%TO.P,J4,5*%
%TO.N,GND*%
X149060000Y-134200000D03*
%TD*%
%TO.P,J2,3*%
%TO.N,Net-(J2-Pad3)*%
X109920000Y-139600000D03*
%TO.P,J2,2*%
%TO.N,GND*%
X112460000Y-139600000D03*
D20*
%TO.P,J2,1*%
%TO.N,Net-(J2-Pad1)*%
X115000000Y-139600000D03*
%TD*%
D28*
%TO.P,C30,2*%
%TO.N,Net-(C15-Pad2)*%
X122850000Y-133900000D03*
%TO.P,C30,1*%
%TO.N,Net-(C14-Pad2)*%
X122850000Y-131400000D03*
%TD*%
%TO.P,C29,2*%
%TO.N,GND*%
%TA.AperFunction,SMDPad,CuDef*%
G36*
G01*
X100918800Y-120465201D02*
X100918800Y-119565199D01*
G75*
G02*
X101168799Y-119315200I249999J0D01*
G01*
X101818801Y-119315200D01*
G75*
G02*
X102068800Y-119565199I0J-249999D01*
G01*
X102068800Y-120465201D01*
G75*
G02*
X101818801Y-120715200I-249999J0D01*
G01*
X101168799Y-120715200D01*
G75*
G02*
X100918800Y-120465201I0J249999D01*
G01*
G37*
%TD.AperFunction*%
%TO.P,C29,1*%
%TO.N,+5V*%
%TA.AperFunction,SMDPad,CuDef*%
G36*
G01*
X98868800Y-120465201D02*
X98868800Y-119565199D01*
G75*
G02*
X99118799Y-119315200I249999J0D01*
G01*
X99768801Y-119315200D01*
G75*
G02*
X100018800Y-119565199I0J-249999D01*
G01*
X100018800Y-120465201D01*
G75*
G02*
X99768801Y-120715200I-249999J0D01*
G01*
X99118799Y-120715200D01*
G75*
G02*
X98868800Y-120465201I0J249999D01*
G01*
G37*
%TD.AperFunction*%
%TD*%
%TO.P,C28,2*%
%TO.N,DVM*%
%TA.AperFunction,SMDPad,CuDef*%
G36*
G01*
X147011400Y-72820599D02*
X147011400Y-73720601D01*
G75*
G02*
X146761401Y-73970600I-249999J0D01*
G01*
X146111399Y-73970600D01*
G75*
G02*
X145861400Y-73720601I0J249999D01*
G01*
X145861400Y-72820599D01*
G75*
G02*
X146111399Y-72570600I249999J0D01*
G01*
X146761401Y-72570600D01*
G75*
G02*
X147011400Y-72820599I0J-249999D01*
G01*
G37*
%TD.AperFunction*%
%TO.P,C28,1*%
%TO.N,DAH*%
%TA.AperFunction,SMDPad,CuDef*%
G36*
G01*
X149061400Y-72820599D02*
X149061400Y-73720601D01*
G75*
G02*
X148811401Y-73970600I-249999J0D01*
G01*
X148161399Y-73970600D01*
G75*
G02*
X147911400Y-73720601I0J249999D01*
G01*
X147911400Y-72820599D01*
G75*
G02*
X148161399Y-72570600I249999J0D01*
G01*
X148811401Y-72570600D01*
G75*
G02*
X149061400Y-72820599I0J-249999D01*
G01*
G37*
%TD.AperFunction*%
%TD*%
%TO.P,C27,2*%
%TO.N,DAH*%
%TA.AperFunction,SMDPad,CuDef*%
G36*
G01*
X147949800Y-71667001D02*
X147949800Y-70766999D01*
G75*
G02*
X148199799Y-70517000I249999J0D01*
G01*
X148849801Y-70517000D01*
G75*
G02*
X149099800Y-70766999I0J-249999D01*
G01*
X149099800Y-71667001D01*
G75*
G02*
X148849801Y-71917000I-249999J0D01*
G01*
X148199799Y-71917000D01*
G75*
G02*
X147949800Y-71667001I0J249999D01*
G01*
G37*
%TD.AperFunction*%
%TO.P,C27,1*%
%TO.N,GND*%
%TA.AperFunction,SMDPad,CuDef*%
G36*
G01*
X145899800Y-71667001D02*
X145899800Y-70766999D01*
G75*
G02*
X146149799Y-70517000I249999J0D01*
G01*
X146799801Y-70517000D01*
G75*
G02*
X147049800Y-70766999I0J-249999D01*
G01*
X147049800Y-71667001D01*
G75*
G02*
X146799801Y-71917000I-249999J0D01*
G01*
X146149799Y-71917000D01*
G75*
G02*
X145899800Y-71667001I0J249999D01*
G01*
G37*
%TD.AperFunction*%
%TD*%
%TO.P,C26,2*%
%TO.N,GND*%
%TA.AperFunction,SMDPad,CuDef*%
G36*
G01*
X166540000Y-71474999D02*
X166540000Y-72375001D01*
G75*
G02*
X166290001Y-72625000I-249999J0D01*
G01*
X165639999Y-72625000D01*
G75*
G02*
X165390000Y-72375001I0J249999D01*
G01*
X165390000Y-71474999D01*
G75*
G02*
X165639999Y-71225000I249999J0D01*
G01*
X166290001Y-71225000D01*
G75*
G02*
X166540000Y-71474999I0J-249999D01*
G01*
G37*
%TD.AperFunction*%
%TO.P,C26,1*%
%TO.N,Net-(C25-Pad1)*%
%TA.AperFunction,SMDPad,CuDef*%
G36*
G01*
X168590000Y-71474999D02*
X168590000Y-72375001D01*
G75*
G02*
X168340001Y-72625000I-249999J0D01*
G01*
X167689999Y-72625000D01*
G75*
G02*
X167440000Y-72375001I0J249999D01*
G01*
X167440000Y-71474999D01*
G75*
G02*
X167689999Y-71225000I249999J0D01*
G01*
X168340001Y-71225000D01*
G75*
G02*
X168590000Y-71474999I0J-249999D01*
G01*
G37*
%TD.AperFunction*%
%TD*%
%TO.P,C25,2*%
%TO.N,GND*%
%TA.AperFunction,SMDPad,CuDef*%
G36*
G01*
X166540000Y-73699999D02*
X166540000Y-74600001D01*
G75*
G02*
X166290001Y-74850000I-249999J0D01*
G01*
X165639999Y-74850000D01*
G75*
G02*
X165390000Y-74600001I0J249999D01*
G01*
X165390000Y-73699999D01*
G75*
G02*
X165639999Y-73450000I249999J0D01*
G01*
X166290001Y-73450000D01*
G75*
G02*
X166540000Y-73699999I0J-249999D01*
G01*
G37*
%TD.AperFunction*%
%TO.P,C25,1*%
%TO.N,Net-(C25-Pad1)*%
%TA.AperFunction,SMDPad,CuDef*%
G36*
G01*
X168590000Y-73699999D02*
X168590000Y-74600001D01*
G75*
G02*
X168340001Y-74850000I-249999J0D01*
G01*
X167689999Y-74850000D01*
G75*
G02*
X167440000Y-74600001I0J249999D01*
G01*
X167440000Y-73699999D01*
G75*
G02*
X167689999Y-73450000I249999J0D01*
G01*
X168340001Y-73450000D01*
G75*
G02*
X168590000Y-73699999I0J-249999D01*
G01*
G37*
%TD.AperFunction*%
%TD*%
%TO.P,C24,2*%
%TO.N,Net-(C24-Pad2)*%
%TA.AperFunction,SMDPad,CuDef*%
G36*
G01*
X162360000Y-72375001D02*
X162360000Y-71474999D01*
G75*
G02*
X162609999Y-71225000I249999J0D01*
G01*
X163260001Y-71225000D01*
G75*
G02*
X163510000Y-71474999I0J-249999D01*
G01*
X163510000Y-72375001D01*
G75*
G02*
X163260001Y-72625000I-249999J0D01*
G01*
X162609999Y-72625000D01*
G75*
G02*
X162360000Y-72375001I0J249999D01*
G01*
G37*
%TD.AperFunction*%
%TO.P,C24,1*%
%TO.N,SIDETONE*%
%TA.AperFunction,SMDPad,CuDef*%
G36*
G01*
X160310000Y-72375001D02*
X160310000Y-71474999D01*
G75*
G02*
X160559999Y-71225000I249999J0D01*
G01*
X161210001Y-71225000D01*
G75*
G02*
X161460000Y-71474999I0J-249999D01*
G01*
X161460000Y-72375001D01*
G75*
G02*
X161210001Y-72625000I-249999J0D01*
G01*
X160559999Y-72625000D01*
G75*
G02*
X160310000Y-72375001I0J249999D01*
G01*
G37*
%TD.AperFunction*%
%TD*%
%TO.P,C23,2*%
%TO.N,GND*%
%TA.AperFunction,SMDPad,CuDef*%
G36*
G01*
X168300001Y-123200000D02*
X167399999Y-123200000D01*
G75*
G02*
X167150000Y-122950001I0J249999D01*
G01*
X167150000Y-122299999D01*
G75*
G02*
X167399999Y-122050000I249999J0D01*
G01*
X168300001Y-122050000D01*
G75*
G02*
X168550000Y-122299999I0J-249999D01*
G01*
X168550000Y-122950001D01*
G75*
G02*
X168300001Y-123200000I-249999J0D01*
G01*
G37*
%TD.AperFunction*%
%TO.P,C23,1*%
%TO.N,+12V*%
%TA.AperFunction,SMDPad,CuDef*%
G36*
G01*
X168300001Y-125250000D02*
X167399999Y-125250000D01*
G75*
G02*
X167150000Y-125000001I0J249999D01*
G01*
X167150000Y-124349999D01*
G75*
G02*
X167399999Y-124100000I249999J0D01*
G01*
X168300001Y-124100000D01*
G75*
G02*
X168550000Y-124349999I0J-249999D01*
G01*
X168550000Y-125000001D01*
G75*
G02*
X168300001Y-125250000I-249999J0D01*
G01*
G37*
%TD.AperFunction*%
%TD*%
%TO.P,C22,2*%
%TO.N,Net-(C17-Pad1)*%
%TA.AperFunction,SMDPad,CuDef*%
G36*
G01*
X91636399Y-77494200D02*
X92536401Y-77494200D01*
G75*
G02*
X92786400Y-77744199I0J-249999D01*
G01*
X92786400Y-78394201D01*
G75*
G02*
X92536401Y-78644200I-249999J0D01*
G01*
X91636399Y-78644200D01*
G75*
G02*
X91386400Y-78394201I0J249999D01*
G01*
X91386400Y-77744199D01*
G75*
G02*
X91636399Y-77494200I249999J0D01*
G01*
G37*
%TD.AperFunction*%
%TO.P,C22,1*%
%TO.N,AUDIO2*%
%TA.AperFunction,SMDPad,CuDef*%
G36*
G01*
X91636399Y-75444200D02*
X92536401Y-75444200D01*
G75*
G02*
X92786400Y-75694199I0J-249999D01*
G01*
X92786400Y-76344201D01*
G75*
G02*
X92536401Y-76594200I-249999J0D01*
G01*
X91636399Y-76594200D01*
G75*
G02*
X91386400Y-76344201I0J249999D01*
G01*
X91386400Y-75694199D01*
G75*
G02*
X91636399Y-75444200I249999J0D01*
G01*
G37*
%TD.AperFunction*%
%TD*%
%TO.P,C21,2*%
%TO.N,Net-(C16-Pad1)*%
%TA.AperFunction,SMDPad,CuDef*%
G36*
G01*
X110330799Y-78815000D02*
X111230801Y-78815000D01*
G75*
G02*
X111480800Y-79064999I0J-249999D01*
G01*
X111480800Y-79715001D01*
G75*
G02*
X111230801Y-79965000I-249999J0D01*
G01*
X110330799Y-79965000D01*
G75*
G02*
X110080800Y-79715001I0J249999D01*
G01*
X110080800Y-79064999D01*
G75*
G02*
X110330799Y-78815000I249999J0D01*
G01*
G37*
%TD.AperFunction*%
%TO.P,C21,1*%
%TO.N,AUDIO1*%
%TA.AperFunction,SMDPad,CuDef*%
G36*
G01*
X110330799Y-76765000D02*
X111230801Y-76765000D01*
G75*
G02*
X111480800Y-77014999I0J-249999D01*
G01*
X111480800Y-77665001D01*
G75*
G02*
X111230801Y-77915000I-249999J0D01*
G01*
X110330799Y-77915000D01*
G75*
G02*
X110080800Y-77665001I0J249999D01*
G01*
X110080800Y-77014999D01*
G75*
G02*
X110330799Y-76765000I249999J0D01*
G01*
G37*
%TD.AperFunction*%
%TD*%
%TO.P,C20,2*%
%TO.N,GND*%
X111616600Y-134273400D03*
%TO.P,C20,1*%
%TO.N,Net-(C19-Pad1)*%
X111616600Y-131773400D03*
%TD*%
%TO.P,C19,2*%
%TO.N,Net-(C18-Pad1)*%
X116696600Y-134273400D03*
%TO.P,C19,1*%
%TO.N,Net-(C19-Pad1)*%
X116696600Y-131773400D03*
%TD*%
%TO.P,C18,2*%
%TO.N,GND*%
X119600000Y-114400000D03*
%TO.P,C18,1*%
%TO.N,Net-(C18-Pad1)*%
X119600000Y-116900000D03*
%TD*%
%TO.P,C17,2*%
%TO.N,Net-(C17-Pad2)*%
%TA.AperFunction,SMDPad,CuDef*%
G36*
G01*
X91636399Y-81498400D02*
X92536401Y-81498400D01*
G75*
G02*
X92786400Y-81748399I0J-249999D01*
G01*
X92786400Y-82398401D01*
G75*
G02*
X92536401Y-82648400I-249999J0D01*
G01*
X91636399Y-82648400D01*
G75*
G02*
X91386400Y-82398401I0J249999D01*
G01*
X91386400Y-81748399D01*
G75*
G02*
X91636399Y-81498400I249999J0D01*
G01*
G37*
%TD.AperFunction*%
%TO.P,C17,1*%
%TO.N,Net-(C17-Pad1)*%
%TA.AperFunction,SMDPad,CuDef*%
G36*
G01*
X91636399Y-79448400D02*
X92536401Y-79448400D01*
G75*
G02*
X92786400Y-79698399I0J-249999D01*
G01*
X92786400Y-80348401D01*
G75*
G02*
X92536401Y-80598400I-249999J0D01*
G01*
X91636399Y-80598400D01*
G75*
G02*
X91386400Y-80348401I0J249999D01*
G01*
X91386400Y-79698399D01*
G75*
G02*
X91636399Y-79448400I249999J0D01*
G01*
G37*
%TD.AperFunction*%
%TD*%
%TO.P,C16,2*%
%TO.N,Net-(C16-Pad2)*%
%TA.AperFunction,SMDPad,CuDef*%
G36*
G01*
X110229199Y-82870000D02*
X111129201Y-82870000D01*
G75*
G02*
X111379200Y-83119999I0J-249999D01*
G01*
X111379200Y-83770001D01*
G75*
G02*
X111129201Y-84020000I-249999J0D01*
G01*
X110229199Y-84020000D01*
G75*
G02*
X109979200Y-83770001I0J249999D01*
G01*
X109979200Y-83119999D01*
G75*
G02*
X110229199Y-82870000I249999J0D01*
G01*
G37*
%TD.AperFunction*%
%TO.P,C16,1*%
%TO.N,Net-(C16-Pad1)*%
%TA.AperFunction,SMDPad,CuDef*%
G36*
G01*
X110229199Y-80820000D02*
X111129201Y-80820000D01*
G75*
G02*
X111379200Y-81069999I0J-249999D01*
G01*
X111379200Y-81720001D01*
G75*
G02*
X111129201Y-81970000I-249999J0D01*
G01*
X110229199Y-81970000D01*
G75*
G02*
X109979200Y-81720001I0J249999D01*
G01*
X109979200Y-81069999D01*
G75*
G02*
X110229199Y-80820000I249999J0D01*
G01*
G37*
%TD.AperFunction*%
%TD*%
%TO.P,C15,2*%
%TO.N,Net-(C15-Pad2)*%
X126850000Y-133900000D03*
%TO.P,C15,1*%
%TO.N,Net-(C14-Pad2)*%
X126850000Y-131400000D03*
%TD*%
%TO.P,C14,2*%
%TO.N,Net-(C14-Pad2)*%
X130850000Y-131400000D03*
%TO.P,C14,1*%
%TO.N,GND*%
X130850000Y-133900000D03*
%TD*%
%TO.P,C13,2*%
%TO.N,Net-(C13-Pad2)*%
%TA.AperFunction,SMDPad,CuDef*%
G36*
G01*
X112892000Y-110050399D02*
X112892000Y-110950401D01*
G75*
G02*
X112642001Y-111200400I-249999J0D01*
G01*
X111991999Y-111200400D01*
G75*
G02*
X111742000Y-110950401I0J249999D01*
G01*
X111742000Y-110050399D01*
G75*
G02*
X111991999Y-109800400I249999J0D01*
G01*
X112642001Y-109800400D01*
G75*
G02*
X112892000Y-110050399I0J-249999D01*
G01*
G37*
%TD.AperFunction*%
%TO.P,C13,1*%
%TO.N,RF*%
%TA.AperFunction,SMDPad,CuDef*%
G36*
G01*
X114942000Y-110050399D02*
X114942000Y-110950401D01*
G75*
G02*
X114692001Y-111200400I-249999J0D01*
G01*
X114041999Y-111200400D01*
G75*
G02*
X113792000Y-110950401I0J249999D01*
G01*
X113792000Y-110050399D01*
G75*
G02*
X114041999Y-109800400I249999J0D01*
G01*
X114692001Y-109800400D01*
G75*
G02*
X114942000Y-110050399I0J-249999D01*
G01*
G37*
%TD.AperFunction*%
%TD*%
%TO.P,C12,2*%
%TO.N,GND*%
%TA.AperFunction,SMDPad,CuDef*%
G36*
G01*
X137534400Y-111730001D02*
X137534400Y-110829999D01*
G75*
G02*
X137784399Y-110580000I249999J0D01*
G01*
X138434401Y-110580000D01*
G75*
G02*
X138684400Y-110829999I0J-249999D01*
G01*
X138684400Y-111730001D01*
G75*
G02*
X138434401Y-111980000I-249999J0D01*
G01*
X137784399Y-111980000D01*
G75*
G02*
X137534400Y-111730001I0J249999D01*
G01*
G37*
%TD.AperFunction*%
%TO.P,C12,1*%
%TO.N,Net-(C12-Pad1)*%
%TA.AperFunction,SMDPad,CuDef*%
G36*
G01*
X135484400Y-111730001D02*
X135484400Y-110829999D01*
G75*
G02*
X135734399Y-110580000I249999J0D01*
G01*
X136384401Y-110580000D01*
G75*
G02*
X136634400Y-110829999I0J-249999D01*
G01*
X136634400Y-111730001D01*
G75*
G02*
X136384401Y-111980000I-249999J0D01*
G01*
X135734399Y-111980000D01*
G75*
G02*
X135484400Y-111730001I0J249999D01*
G01*
G37*
%TD.AperFunction*%
%TD*%
%TO.P,C11,2*%
%TO.N,GND*%
%TA.AperFunction,SMDPad,CuDef*%
G36*
G01*
X114858800Y-105159201D02*
X114858800Y-104259199D01*
G75*
G02*
X115108799Y-104009200I249999J0D01*
G01*
X115758801Y-104009200D01*
G75*
G02*
X116008800Y-104259199I0J-249999D01*
G01*
X116008800Y-105159201D01*
G75*
G02*
X115758801Y-105409200I-249999J0D01*
G01*
X115108799Y-105409200D01*
G75*
G02*
X114858800Y-105159201I0J249999D01*
G01*
G37*
%TD.AperFunction*%
%TO.P,C11,1*%
%TO.N,RX*%
%TA.AperFunction,SMDPad,CuDef*%
G36*
G01*
X112808800Y-105159201D02*
X112808800Y-104259199D01*
G75*
G02*
X113058799Y-104009200I249999J0D01*
G01*
X113708801Y-104009200D01*
G75*
G02*
X113958800Y-104259199I0J-249999D01*
G01*
X113958800Y-105159201D01*
G75*
G02*
X113708801Y-105409200I-249999J0D01*
G01*
X113058799Y-105409200D01*
G75*
G02*
X112808800Y-105159201I0J249999D01*
G01*
G37*
%TD.AperFunction*%
%TD*%
%TO.P,C10,2*%
%TO.N,Net-(C10-Pad2)*%
%TA.AperFunction,SMDPad,CuDef*%
G36*
G01*
X136643400Y-106370399D02*
X136643400Y-107270401D01*
G75*
G02*
X136393401Y-107520400I-249999J0D01*
G01*
X135743399Y-107520400D01*
G75*
G02*
X135493400Y-107270401I0J249999D01*
G01*
X135493400Y-106370399D01*
G75*
G02*
X135743399Y-106120400I249999J0D01*
G01*
X136393401Y-106120400D01*
G75*
G02*
X136643400Y-106370399I0J-249999D01*
G01*
G37*
%TD.AperFunction*%
%TO.P,C10,1*%
%TO.N,GateDrive*%
%TA.AperFunction,SMDPad,CuDef*%
G36*
G01*
X138693400Y-106370399D02*
X138693400Y-107270401D01*
G75*
G02*
X138443401Y-107520400I-249999J0D01*
G01*
X137793399Y-107520400D01*
G75*
G02*
X137543400Y-107270401I0J249999D01*
G01*
X137543400Y-106370399D01*
G75*
G02*
X137793399Y-106120400I249999J0D01*
G01*
X138443401Y-106120400D01*
G75*
G02*
X138693400Y-106370399I0J-249999D01*
G01*
G37*
%TD.AperFunction*%
%TD*%
%TO.P,C9,2*%
%TO.N,GND*%
%TA.AperFunction,SMDPad,CuDef*%
G36*
G01*
X95192800Y-118650799D02*
X95192800Y-119550801D01*
G75*
G02*
X94942801Y-119800800I-249999J0D01*
G01*
X94292799Y-119800800D01*
G75*
G02*
X94042800Y-119550801I0J249999D01*
G01*
X94042800Y-118650799D01*
G75*
G02*
X94292799Y-118400800I249999J0D01*
G01*
X94942801Y-118400800D01*
G75*
G02*
X95192800Y-118650799I0J-249999D01*
G01*
G37*
%TD.AperFunction*%
%TO.P,C9,1*%
%TO.N,0deg*%
%TA.AperFunction,SMDPad,CuDef*%
G36*
G01*
X97242800Y-118650799D02*
X97242800Y-119550801D01*
G75*
G02*
X96992801Y-119800800I-249999J0D01*
G01*
X96342799Y-119800800D01*
G75*
G02*
X96092800Y-119550801I0J249999D01*
G01*
X96092800Y-118650799D01*
G75*
G02*
X96342799Y-118400800I249999J0D01*
G01*
X96992801Y-118400800D01*
G75*
G02*
X97242800Y-118650799I0J-249999D01*
G01*
G37*
%TD.AperFunction*%
%TD*%
%TO.P,C8,2*%
%TO.N,270deg*%
%TA.AperFunction,SMDPad,CuDef*%
G36*
G01*
X96143600Y-114775601D02*
X96143600Y-113875599D01*
G75*
G02*
X96393599Y-113625600I249999J0D01*
G01*
X97043601Y-113625600D01*
G75*
G02*
X97293600Y-113875599I0J-249999D01*
G01*
X97293600Y-114775601D01*
G75*
G02*
X97043601Y-115025600I-249999J0D01*
G01*
X96393599Y-115025600D01*
G75*
G02*
X96143600Y-114775601I0J249999D01*
G01*
G37*
%TD.AperFunction*%
%TO.P,C8,1*%
%TO.N,GND*%
%TA.AperFunction,SMDPad,CuDef*%
G36*
G01*
X94093600Y-114775601D02*
X94093600Y-113875599D01*
G75*
G02*
X94343599Y-113625600I249999J0D01*
G01*
X94993601Y-113625600D01*
G75*
G02*
X95243600Y-113875599I0J-249999D01*
G01*
X95243600Y-114775601D01*
G75*
G02*
X94993601Y-115025600I-249999J0D01*
G01*
X94343599Y-115025600D01*
G75*
G02*
X94093600Y-114775601I0J249999D01*
G01*
G37*
%TD.AperFunction*%
%TD*%
%TO.P,C7,2*%
%TO.N,GND*%
%TA.AperFunction,SMDPad,CuDef*%
G36*
G01*
X95192800Y-121089199D02*
X95192800Y-121989201D01*
G75*
G02*
X94942801Y-122239200I-249999J0D01*
G01*
X94292799Y-122239200D01*
G75*
G02*
X94042800Y-121989201I0J249999D01*
G01*
X94042800Y-121089199D01*
G75*
G02*
X94292799Y-120839200I249999J0D01*
G01*
X94942801Y-120839200D01*
G75*
G02*
X95192800Y-121089199I0J-249999D01*
G01*
G37*
%TD.AperFunction*%
%TO.P,C7,1*%
%TO.N,90deg*%
%TA.AperFunction,SMDPad,CuDef*%
G36*
G01*
X97242800Y-121089199D02*
X97242800Y-121989201D01*
G75*
G02*
X96992801Y-122239200I-249999J0D01*
G01*
X96342799Y-122239200D01*
G75*
G02*
X96092800Y-121989201I0J249999D01*
G01*
X96092800Y-121089199D01*
G75*
G02*
X96342799Y-120839200I249999J0D01*
G01*
X96992801Y-120839200D01*
G75*
G02*
X97242800Y-121089199I0J-249999D01*
G01*
G37*
%TD.AperFunction*%
%TD*%
%TO.P,C6,2*%
%TO.N,180deg*%
%TA.AperFunction,SMDPad,CuDef*%
G36*
G01*
X96092800Y-117061601D02*
X96092800Y-116161599D01*
G75*
G02*
X96342799Y-115911600I249999J0D01*
G01*
X96992801Y-115911600D01*
G75*
G02*
X97242800Y-116161599I0J-249999D01*
G01*
X97242800Y-117061601D01*
G75*
G02*
X96992801Y-117311600I-249999J0D01*
G01*
X96342799Y-117311600D01*
G75*
G02*
X96092800Y-117061601I0J249999D01*
G01*
G37*
%TD.AperFunction*%
%TO.P,C6,1*%
%TO.N,GND*%
%TA.AperFunction,SMDPad,CuDef*%
G36*
G01*
X94042800Y-117061601D02*
X94042800Y-116161599D01*
G75*
G02*
X94292799Y-115911600I249999J0D01*
G01*
X94942801Y-115911600D01*
G75*
G02*
X95192800Y-116161599I0J-249999D01*
G01*
X95192800Y-117061601D01*
G75*
G02*
X94942801Y-117311600I-249999J0D01*
G01*
X94292799Y-117311600D01*
G75*
G02*
X94042800Y-117061601I0J249999D01*
G01*
G37*
%TD.AperFunction*%
%TD*%
%TO.P,C5,2*%
%TO.N,GND*%
%TA.AperFunction,SMDPad,CuDef*%
G36*
G01*
X133724401Y-102052400D02*
X132824399Y-102052400D01*
G75*
G02*
X132574400Y-101802401I0J249999D01*
G01*
X132574400Y-101152399D01*
G75*
G02*
X132824399Y-100902400I249999J0D01*
G01*
X133724401Y-100902400D01*
G75*
G02*
X133974400Y-101152399I0J-249999D01*
G01*
X133974400Y-101802401D01*
G75*
G02*
X133724401Y-102052400I-249999J0D01*
G01*
G37*
%TD.AperFunction*%
%TO.P,C5,1*%
%TO.N,+12V*%
%TA.AperFunction,SMDPad,CuDef*%
G36*
G01*
X133724401Y-104102400D02*
X132824399Y-104102400D01*
G75*
G02*
X132574400Y-103852401I0J249999D01*
G01*
X132574400Y-103202399D01*
G75*
G02*
X132824399Y-102952400I249999J0D01*
G01*
X133724401Y-102952400D01*
G75*
G02*
X133974400Y-103202399I0J-249999D01*
G01*
X133974400Y-103852401D01*
G75*
G02*
X133724401Y-104102400I-249999J0D01*
G01*
G37*
%TD.AperFunction*%
%TD*%
%TO.P,C4,2*%
%TO.N,GND*%
%TA.AperFunction,SMDPad,CuDef*%
G36*
G01*
X115300000Y-60850001D02*
X115300000Y-59949999D01*
G75*
G02*
X115549999Y-59700000I249999J0D01*
G01*
X116200001Y-59700000D01*
G75*
G02*
X116450000Y-59949999I0J-249999D01*
G01*
X116450000Y-60850001D01*
G75*
G02*
X116200001Y-61100000I-249999J0D01*
G01*
X115549999Y-61100000D01*
G75*
G02*
X115300000Y-60850001I0J249999D01*
G01*
G37*
%TD.AperFunction*%
%TO.P,C4,1*%
%TO.N,+12V*%
%TA.AperFunction,SMDPad,CuDef*%
G36*
G01*
X113250000Y-60850001D02*
X113250000Y-59949999D01*
G75*
G02*
X113499999Y-59700000I249999J0D01*
G01*
X114150001Y-59700000D01*
G75*
G02*
X114400000Y-59949999I0J-249999D01*
G01*
X114400000Y-60850001D01*
G75*
G02*
X114150001Y-61100000I-249999J0D01*
G01*
X113499999Y-61100000D01*
G75*
G02*
X113250000Y-60850001I0J249999D01*
G01*
G37*
%TD.AperFunction*%
%TD*%
%TO.P,C3,2*%
%TO.N,GND*%
%TA.AperFunction,SMDPad,CuDef*%
G36*
G01*
X115325000Y-63350001D02*
X115325000Y-62449999D01*
G75*
G02*
X115574999Y-62200000I249999J0D01*
G01*
X116225001Y-62200000D01*
G75*
G02*
X116475000Y-62449999I0J-249999D01*
G01*
X116475000Y-63350001D01*
G75*
G02*
X116225001Y-63600000I-249999J0D01*
G01*
X115574999Y-63600000D01*
G75*
G02*
X115325000Y-63350001I0J249999D01*
G01*
G37*
%TD.AperFunction*%
%TO.P,C3,1*%
%TO.N,+12V*%
%TA.AperFunction,SMDPad,CuDef*%
G36*
G01*
X113275000Y-63350001D02*
X113275000Y-62449999D01*
G75*
G02*
X113524999Y-62200000I249999J0D01*
G01*
X114175001Y-62200000D01*
G75*
G02*
X114425000Y-62449999I0J-249999D01*
G01*
X114425000Y-63350001D01*
G75*
G02*
X114175001Y-63600000I-249999J0D01*
G01*
X113524999Y-63600000D01*
G75*
G02*
X113275000Y-63350001I0J249999D01*
G01*
G37*
%TD.AperFunction*%
%TD*%
%TO.P,C2,2*%
%TO.N,Net-(C2-Pad2)*%
%TA.AperFunction,SMDPad,CuDef*%
G36*
G01*
X102400000Y-109405199D02*
X102400000Y-110305201D01*
G75*
G02*
X102150001Y-110555200I-249999J0D01*
G01*
X101499999Y-110555200D01*
G75*
G02*
X101250000Y-110305201I0J249999D01*
G01*
X101250000Y-109405199D01*
G75*
G02*
X101499999Y-109155200I249999J0D01*
G01*
X102150001Y-109155200D01*
G75*
G02*
X102400000Y-109405199I0J-249999D01*
G01*
G37*
%TD.AperFunction*%
%TO.P,C2,1*%
%TO.N,demodIN*%
%TA.AperFunction,SMDPad,CuDef*%
G36*
G01*
X104450000Y-109405199D02*
X104450000Y-110305201D01*
G75*
G02*
X104200001Y-110555200I-249999J0D01*
G01*
X103549999Y-110555200D01*
G75*
G02*
X103300000Y-110305201I0J249999D01*
G01*
X103300000Y-109405199D01*
G75*
G02*
X103549999Y-109155200I249999J0D01*
G01*
X104200001Y-109155200D01*
G75*
G02*
X104450000Y-109405199I0J-249999D01*
G01*
G37*
%TD.AperFunction*%
%TD*%
%TO.P,C1,2*%
%TO.N,GND*%
%TA.AperFunction,SMDPad,CuDef*%
G36*
G01*
X98150000Y-109449999D02*
X98150000Y-110350001D01*
G75*
G02*
X97900001Y-110600000I-249999J0D01*
G01*
X97249999Y-110600000D01*
G75*
G02*
X97000000Y-110350001I0J249999D01*
G01*
X97000000Y-109449999D01*
G75*
G02*
X97249999Y-109200000I249999J0D01*
G01*
X97900001Y-109200000D01*
G75*
G02*
X98150000Y-109449999I0J-249999D01*
G01*
G37*
%TD.AperFunction*%
%TO.P,C1,1*%
%TO.N,Net-(C1-Pad1)*%
%TA.AperFunction,SMDPad,CuDef*%
G36*
G01*
X100200000Y-109449999D02*
X100200000Y-110350001D01*
G75*
G02*
X99950001Y-110600000I-249999J0D01*
G01*
X99299999Y-110600000D01*
G75*
G02*
X99050000Y-110350001I0J249999D01*
G01*
X99050000Y-109449999D01*
G75*
G02*
X99299999Y-109200000I249999J0D01*
G01*
X99950001Y-109200000D01*
G75*
G02*
X100200000Y-109449999I0J-249999D01*
G01*
G37*
%TD.AperFunction*%
%TD*%
D29*
%TO.P,A1,16*%
%TO.N,DIT*%
X120390000Y-57955000D03*
%TO.P,A1,15*%
%TO.N,DAH*%
X135630000Y-57955000D03*
%TO.P,A1,30*%
%TO.N,+12V*%
X120390000Y-93515000D03*
%TO.P,A1,14*%
%TO.N,SIG_OUT*%
X135630000Y-60495000D03*
%TO.P,A1,29*%
%TO.N,GND*%
X120390000Y-90975000D03*
%TO.P,A1,13*%
%TO.N,KEY_OUT*%
X135630000Y-63035000D03*
%TO.P,A1,28*%
%TO.N,Net-(A1-Pad28)*%
X120390000Y-88435000D03*
%TO.P,A1,12*%
%TO.N,SIDETONE*%
X135630000Y-65575000D03*
%TO.P,A1,27*%
%TO.N,+5V*%
X120390000Y-85895000D03*
%TO.P,A1,11*%
%TO.N,RX*%
X135630000Y-68115000D03*
%TO.P,A1,26*%
%TO.N,Net-(A1-Pad26)*%
X120390000Y-83355000D03*
%TO.P,A1,10*%
%TO.N,ROT_B*%
X135630000Y-70655000D03*
%TO.P,A1,25*%
%TO.N,Net-(A1-Pad25)*%
X120390000Y-80815000D03*
%TO.P,A1,9*%
%TO.N,ROT_A*%
X135630000Y-73195000D03*
%TO.P,A1,24*%
%TO.N,SCL_3V3*%
X120390000Y-78275000D03*
%TO.P,A1,8*%
%TO.N,FREQCNT*%
X135630000Y-75735000D03*
%TO.P,A1,23*%
%TO.N,LCD_RS*%
X120390000Y-75735000D03*
%TO.P,A1,7*%
%TO.N,LCD_EN*%
X135630000Y-78275000D03*
%TO.P,A1,22*%
%TO.N,BUTTONS*%
X120390000Y-73195000D03*
%TO.P,A1,6*%
%TO.N,LCD_D7*%
X135630000Y-80815000D03*
%TO.P,A1,21*%
%TO.N,DVM*%
X120390000Y-70655000D03*
%TO.P,A1,5*%
%TO.N,LCD_D6*%
X135630000Y-83355000D03*
%TO.P,A1,20*%
%TO.N,AUDIO2*%
X120390000Y-68115000D03*
%TO.P,A1,4*%
%TO.N,GND*%
X135630000Y-85895000D03*
%TO.P,A1,19*%
%TO.N,AUDIO1*%
X120390000Y-65575000D03*
%TO.P,A1,3*%
%TO.N,Net-(A1-Pad3)*%
X135630000Y-88435000D03*
%TO.P,A1,18*%
%TO.N,AREF*%
X120390000Y-63035000D03*
%TO.P,A1,2*%
%TO.N,LCD_D4*%
X135630000Y-90975000D03*
%TO.P,A1,17*%
%TO.N,+3V3*%
X120390000Y-60495000D03*
D30*
%TO.P,A1,1*%
%TO.N,LCD_D5*%
X135630000Y-93515000D03*
%TD*%
D31*
%TO.N,GND*%
X93350000Y-77900000D03*
X107350000Y-79900000D03*
X99200000Y-58300000D03*
X116850000Y-60400000D03*
X116600000Y-62900000D03*
X146500000Y-71100000D03*
X97600000Y-107400000D03*
X97700000Y-110000000D03*
X94700000Y-114300000D03*
X94700000Y-116600000D03*
X94600000Y-119000000D03*
X94700000Y-121600000D03*
X101350000Y-119900000D03*
X100350000Y-117650000D03*
X104100000Y-118400000D03*
X167350000Y-122650000D03*
X138350000Y-114700000D03*
X133600000Y-101200000D03*
X159850000Y-113400000D03*
X176350000Y-98150000D03*
X108850000Y-104650000D03*
X115600000Y-104400000D03*
X165850000Y-74150000D03*
X165850000Y-71900000D03*
X139100000Y-111950000D03*
X141500000Y-73200000D03*
X133400000Y-108300000D03*
X162100000Y-133600000D03*
X97900000Y-84300000D03*
X105200000Y-113700000D03*
%TO.N,+5V*%
X123900000Y-85900000D03*
%TO.N,RX*%
X123100000Y-69100000D03*
X118900000Y-69200000D03*
%TO.N,BUTTONS*%
X163000000Y-93500000D03*
X163000000Y-95100000D03*
%TO.N,GateDrive*%
X162800000Y-123400000D03*
X162800000Y-125400000D03*
%TO.N,Net-(J2-Pad3)*%
X128300000Y-141300000D03*
%TO.N,Net-(J2-Pad1)*%
X128300000Y-139000000D03*
%TO.N,CLK0*%
X101500000Y-116300000D03*
X103000000Y-116300000D03*
%TO.N,CLK1*%
X135700000Y-121600000D03*
X132886017Y-121631518D03*
%TD*%
D32*
%TO.N,DIT*%
X144520000Y-60495000D02*
X139895000Y-60495000D01*
X136364499Y-56964499D02*
X121635501Y-56964499D01*
X139895000Y-60495000D02*
X136364499Y-56964499D01*
X121635501Y-56964499D02*
X120600000Y-58000000D01*
%TO.N,DAH*%
X144525000Y-75382600D02*
X146217400Y-75382600D01*
X146217400Y-75382600D02*
X148500000Y-73100000D01*
X148486400Y-73270600D02*
X148486400Y-71213600D01*
X148486400Y-71213600D02*
X148600000Y-71100000D01*
X154320000Y-64595000D02*
X154320000Y-65480000D01*
X154320000Y-65480000D02*
X148600000Y-71200000D01*
X134639499Y-59260501D02*
X135800000Y-58100000D01*
X134639499Y-66050441D02*
X134639499Y-59260501D01*
X135154559Y-66565501D02*
X134639499Y-66050441D01*
X136264893Y-66565501D02*
X135154559Y-66565501D01*
X139249223Y-69549831D02*
X136264893Y-66565501D01*
X148524800Y-71217000D02*
X146857631Y-69549831D01*
X146857631Y-69549831D02*
X139249223Y-69549831D01*
D33*
%TO.N,+12V*%
X109565000Y-58590000D02*
X111790000Y-58590000D01*
X111790000Y-58590000D02*
X113850000Y-60650000D01*
X113850000Y-60650000D02*
X113850000Y-62900000D01*
X113850000Y-62900000D02*
X112350000Y-62900000D01*
X112350000Y-62900000D02*
X110850000Y-64400000D01*
X113825000Y-60400000D02*
X119007010Y-55217990D01*
X165426400Y-126950000D02*
X167600000Y-124776400D01*
X167600000Y-124776400D02*
X167600000Y-124900000D01*
X173032010Y-55217990D02*
X173032010Y-62582010D01*
X119007010Y-55217990D02*
X173032010Y-55217990D01*
X173032010Y-62582010D02*
X177850000Y-67400000D01*
X133274400Y-103527400D02*
X133274400Y-105124400D01*
X133274400Y-105124400D02*
X133350000Y-105200000D01*
X120850000Y-93150000D02*
X120100000Y-93150000D01*
X104900000Y-80500000D02*
X104900000Y-80600000D01*
X105033600Y-78566400D02*
X105062010Y-78537990D01*
X105033600Y-80515000D02*
X105033600Y-78566400D01*
X117751173Y-84817999D02*
X111471164Y-78537990D01*
X111471164Y-78537990D02*
X105062010Y-78537990D01*
X117751173Y-84817999D02*
X117751173Y-90751173D01*
X117751173Y-90751173D02*
X120500000Y-93500000D01*
X91109390Y-74109390D02*
X91109390Y-75509390D01*
X91109390Y-75509390D02*
X91109390Y-76562496D01*
X91109390Y-74790610D02*
X91109390Y-75509390D01*
X91109390Y-74790610D02*
X91109390Y-74109390D01*
X91109390Y-74109390D02*
X91109390Y-73688904D01*
X99517190Y-77217190D02*
X91117190Y-77217190D01*
X105062010Y-78537990D02*
X100837990Y-78537990D01*
X91117190Y-77217190D02*
X91109390Y-77209390D01*
X100837990Y-78537990D02*
X99517190Y-77217190D01*
X91109390Y-74790610D02*
X91109390Y-77209390D01*
X133274400Y-103527400D02*
X131872600Y-103527400D01*
X131872600Y-103527400D02*
X128300000Y-107100000D01*
X107887999Y-66367001D02*
X109565000Y-64690000D01*
X91109390Y-73688904D02*
X98431293Y-66367001D01*
X98431293Y-66367001D02*
X107887999Y-66367001D01*
X128375000Y-108175000D02*
X128300000Y-108100000D01*
X128375000Y-110400000D02*
X128375000Y-108175000D01*
X128300000Y-107100000D02*
X128300000Y-108100000D01*
X188640510Y-66690510D02*
X188640510Y-106683552D01*
X173032010Y-55217990D02*
X177167990Y-55217990D01*
X177167990Y-55217990D02*
X188640510Y-66690510D01*
X170674062Y-124650000D02*
X167850000Y-124650000D01*
X188640510Y-106683552D02*
X170674062Y-124650000D01*
X100163507Y-122865799D02*
X93065799Y-122865799D01*
X128300000Y-108100000D02*
X128103199Y-107903199D01*
X128103199Y-107903199D02*
X109455600Y-107903199D01*
X102404013Y-120625293D02*
X100163507Y-122865799D01*
X91109390Y-120909390D02*
X91109390Y-73688904D01*
X102404013Y-114954786D02*
X102404013Y-120625293D01*
X109455600Y-107903199D02*
X102404013Y-114954786D01*
X93065799Y-122865799D02*
X91109390Y-120909390D01*
D32*
%TO.N,SIG_OUT*%
X184961918Y-68825479D02*
X186330541Y-70194102D01*
X186330541Y-70194102D02*
X186330541Y-104269459D01*
X131305488Y-113994512D02*
X132000000Y-113300000D01*
X134749538Y-120601665D02*
X131305488Y-117157615D01*
X131305488Y-117157615D02*
X131305488Y-113994512D01*
X141439499Y-139199441D02*
X141439499Y-138659557D01*
X140439441Y-137659499D02*
X139598147Y-137659499D01*
X142996602Y-140756544D02*
X141439499Y-139199441D01*
X153934512Y-139524713D02*
X152702681Y-140756544D01*
X183601401Y-106998599D02*
X181110657Y-106998599D01*
X141439499Y-138659557D02*
X140439441Y-137659499D01*
X153934512Y-130974744D02*
X153934512Y-139524713D01*
X160083721Y-124825535D02*
X153934512Y-130974744D01*
X152702681Y-140756544D02*
X142996602Y-140756544D01*
X135630000Y-60495000D02*
X137820501Y-62685501D01*
X134749538Y-132810889D02*
X134749538Y-120601665D01*
X137820501Y-62685501D02*
X145772401Y-62685501D01*
X139598147Y-137659499D02*
X134749538Y-132810889D01*
X163283721Y-124825535D02*
X160083721Y-124825535D01*
X186330541Y-104269459D02*
X183601401Y-106998599D01*
X145772401Y-62685501D02*
X150153403Y-58304499D01*
X150153403Y-58304499D02*
X166629555Y-58304499D01*
X177150535Y-68825479D02*
X184961918Y-68825479D01*
X166629555Y-58304499D02*
X177150535Y-68825479D01*
X181110657Y-106998599D02*
X163283721Y-124825535D01*
D34*
%TO.N,GND*%
X93519200Y-78069200D02*
X93350000Y-77900000D01*
X94524800Y-78069200D02*
X93519200Y-78069200D01*
X107818200Y-79431800D02*
X107350000Y-79900000D01*
X108342400Y-79431800D02*
X107818200Y-79431800D01*
X115875000Y-60400000D02*
X116850000Y-60400000D01*
X115900000Y-62900000D02*
X116600000Y-62900000D01*
X146474800Y-71217000D02*
X146474800Y-70825200D01*
X97564200Y-107467600D02*
X97417600Y-107467600D01*
X97575000Y-109900000D02*
X97575000Y-109875000D01*
X94668600Y-114325600D02*
X94668600Y-113718600D01*
X94617800Y-116417800D02*
X94350000Y-116150000D01*
X94617800Y-116611600D02*
X94617800Y-116417800D01*
X94617800Y-119100800D02*
X94617800Y-118917800D01*
X94617800Y-121417800D02*
X94350000Y-121150000D01*
X94617800Y-121539200D02*
X94617800Y-121417800D01*
X101465200Y-120015200D02*
X101350000Y-119900000D01*
X101493800Y-120015200D02*
X101465200Y-120015200D01*
X100271400Y-117728600D02*
X100350000Y-117650000D01*
X99435100Y-117728600D02*
X100271400Y-117728600D01*
X104121400Y-118378600D02*
X104100000Y-118400000D01*
X105160100Y-118378600D02*
X104121400Y-118378600D01*
X167375000Y-122625000D02*
X167350000Y-122650000D01*
X167850000Y-122625000D02*
X167375000Y-122625000D01*
X138109400Y-111440600D02*
X138100000Y-111450000D01*
X138109400Y-111280000D02*
X138109400Y-111440600D01*
X138165200Y-113515200D02*
X138100000Y-113450000D01*
X138169200Y-113515200D02*
X138165200Y-113515200D01*
X133325200Y-109224000D02*
X133325200Y-109175200D01*
X133322600Y-101477400D02*
X133600000Y-101200000D01*
X133274400Y-101477400D02*
X133322600Y-101477400D01*
X159600000Y-113150000D02*
X159850000Y-113400000D01*
X159565000Y-113150000D02*
X159600000Y-113150000D01*
X176390000Y-98110000D02*
X176350000Y-98150000D01*
X176630000Y-98110000D02*
X176390000Y-98110000D01*
X108858400Y-104658400D02*
X108850000Y-104650000D01*
X109065800Y-104658400D02*
X108858400Y-104658400D01*
X115433800Y-104566200D02*
X115600000Y-104400000D01*
X115433800Y-104709200D02*
X115433800Y-104566200D01*
X165965000Y-74150000D02*
X165850000Y-74150000D01*
X165875000Y-71925000D02*
X165850000Y-71900000D01*
X165965000Y-71925000D02*
X165875000Y-71925000D01*
X139100000Y-111950000D02*
X138850000Y-111700000D01*
X138850000Y-111700000D02*
X138600000Y-111700000D01*
X138350000Y-114700000D02*
X138350000Y-113950000D01*
X142500000Y-73300000D02*
X142500000Y-73200000D01*
X141600000Y-73300000D02*
X141500000Y-73200000D01*
X142500000Y-73300000D02*
X141600000Y-73300000D01*
X133325200Y-108374800D02*
X133400000Y-108300000D01*
X133325200Y-109224000D02*
X133325200Y-108374800D01*
X97875000Y-84325000D02*
X97900000Y-84300000D01*
X97833600Y-84325000D02*
X97875000Y-84325000D01*
X105160100Y-113739900D02*
X105200000Y-113700000D01*
X105160100Y-113828600D02*
X105160100Y-113739900D01*
D32*
%TO.N,SIDETONE*%
X154013771Y-61204490D02*
X151085454Y-61204490D01*
X160885000Y-71925000D02*
X155864521Y-66904521D01*
X155864521Y-63055240D02*
X154013771Y-61204490D01*
X151085454Y-61204490D02*
X146889944Y-65400000D01*
X155864521Y-66904521D02*
X155864521Y-63055240D01*
X146889944Y-65400000D02*
X135900000Y-65400000D01*
D34*
%TO.N,+5V*%
X173100000Y-101650000D02*
X175100000Y-103650000D01*
X175100000Y-103650000D02*
X177350000Y-103650000D01*
X177350000Y-103650000D02*
X180100000Y-100900000D01*
X180100000Y-100900000D02*
X183850000Y-100900000D01*
X170360000Y-100060000D02*
X170360000Y-103140000D01*
X170360000Y-103140000D02*
X170350000Y-103130000D01*
X170360000Y-101660000D02*
X170350000Y-101650000D01*
X170360000Y-103090000D02*
X170360000Y-101660000D01*
X170350000Y-101650000D02*
X173100000Y-101650000D01*
X177350000Y-103650000D02*
X178850000Y-102150000D01*
X99100000Y-118400000D02*
X99100000Y-119650000D01*
X142475000Y-75382600D02*
X141800399Y-74707999D01*
X120390000Y-85895000D02*
X121700000Y-87205000D01*
X121700000Y-87205000D02*
X121700000Y-99100000D01*
X135500000Y-99100000D02*
X123900000Y-99100000D01*
X123900000Y-99100000D02*
X121700000Y-99100000D01*
X124800000Y-99100000D02*
X123900000Y-99100000D01*
X144300000Y-107900000D02*
X138250000Y-101850000D01*
X145400000Y-107900000D02*
X144300000Y-107900000D01*
X138877010Y-102477010D02*
X138250000Y-101850000D01*
X138250000Y-101850000D02*
X135500000Y-99100000D01*
X145100000Y-107900000D02*
X145400000Y-107900000D01*
X145400000Y-107900000D02*
X148850000Y-107900000D01*
X121700000Y-99100000D02*
X121700000Y-99892596D01*
X103678200Y-107467600D02*
X103072990Y-108072810D01*
X107653608Y-107526188D02*
X103952786Y-111227010D01*
X114066408Y-107526188D02*
X107653608Y-107526188D01*
X103952786Y-111227010D02*
X103072990Y-111227010D01*
X103072990Y-108072810D02*
X103072990Y-111227010D01*
X121700000Y-99892596D02*
X114066408Y-107526188D01*
X135137039Y-69627999D02*
X136627999Y-69627999D01*
X123900000Y-80865038D02*
X135137039Y-69627999D01*
X123900000Y-85900000D02*
X123900000Y-80865038D01*
X136627999Y-69627999D02*
X142400000Y-75400000D01*
X164615400Y-101650000D02*
X170350000Y-101650000D01*
X163861601Y-112267001D02*
X163907001Y-112221601D01*
X148850000Y-107820000D02*
X152034038Y-107820000D01*
X163907001Y-112221601D02*
X163907001Y-102358399D01*
X156481039Y-112267001D02*
X163861601Y-112267001D01*
X152034038Y-107820000D02*
X156481039Y-112267001D01*
X163907001Y-102358399D02*
X164615400Y-101650000D01*
X103072990Y-113752635D02*
X103072990Y-111227010D01*
X102027002Y-114798623D02*
X103072990Y-113752635D01*
X102027002Y-118341797D02*
X102027002Y-114798623D01*
X101968799Y-118400000D02*
X102027002Y-118341797D01*
X99600000Y-118400000D02*
X101968799Y-118400000D01*
D32*
%TO.N,RX*%
X118091683Y-90610131D02*
X118091683Y-84676956D01*
X118091683Y-84676956D02*
X113383800Y-79969074D01*
X120006051Y-92524499D02*
X118091683Y-90610131D01*
X113383800Y-104709200D02*
X113958800Y-104709200D01*
X113958800Y-104709200D02*
X121380501Y-97287499D01*
X120865441Y-92524499D02*
X120006051Y-92524499D01*
X121380501Y-93039559D02*
X120865441Y-92524499D01*
X121380501Y-97287499D02*
X121380501Y-93039559D01*
X123100000Y-69100000D02*
X124000000Y-68200000D01*
X124000000Y-68200000D02*
X135700000Y-68200000D01*
X113383800Y-104709200D02*
X113383800Y-106716200D01*
X113383800Y-74716200D02*
X118900000Y-69200000D01*
X113383800Y-79969074D02*
X113383800Y-74716200D01*
%TO.N,ROT_B*%
X135630000Y-70655000D02*
X134131477Y-72153523D01*
X148024499Y-92524499D02*
X148800000Y-93300000D01*
X134995107Y-92524499D02*
X148024499Y-92524499D01*
X134131477Y-91660869D02*
X134995107Y-92524499D01*
X134131477Y-72153523D02*
X134131477Y-91660869D01*
%TO.N,ROT_A*%
X152495501Y-91965501D02*
X136464665Y-91965501D01*
X135049345Y-92219512D02*
X134385491Y-91555658D01*
X136210655Y-92219512D02*
X135049345Y-92219512D01*
X134385491Y-74414509D02*
X135600000Y-73200000D01*
X134385491Y-91555658D02*
X134385491Y-74414509D01*
X136464665Y-91965501D02*
X136210655Y-92219512D01*
X153850000Y-93320000D02*
X152495501Y-91965501D01*
%TO.N,SCL_3V3*%
X120390000Y-78275000D02*
X117475000Y-78275000D01*
X117475000Y-78275000D02*
X117350000Y-78400000D01*
X178349441Y-80149499D02*
X169722628Y-80149499D01*
X121380501Y-84658445D02*
X121380501Y-79280501D01*
X131486568Y-94764512D02*
X121380501Y-84658445D01*
X155107615Y-94764512D02*
X131486568Y-94764512D01*
X121380501Y-79280501D02*
X120500000Y-78400000D01*
X178890501Y-80690559D02*
X178349441Y-80149499D01*
X178890501Y-82689499D02*
X178890501Y-80690559D01*
X177850000Y-83730000D02*
X178890501Y-82689499D01*
X169722628Y-80149499D02*
X155107615Y-94764512D01*
X183110307Y-104280501D02*
X185457400Y-104280501D01*
X176555488Y-92855486D02*
X176555488Y-85024512D01*
X180392480Y-96692478D02*
X176555488Y-92855486D01*
X184992155Y-96692479D02*
X180392480Y-96692478D01*
X176555488Y-85024512D02*
X177850000Y-83730000D01*
X163173296Y-124217512D02*
X183110307Y-104280501D01*
X154527294Y-124217512D02*
X163173296Y-124217512D01*
X185457400Y-104280501D02*
X185822523Y-103915379D01*
X144000000Y-134200000D02*
X144544806Y-134200000D01*
X185822523Y-97522848D02*
X184992155Y-96692479D01*
X185822523Y-103915379D02*
X185822523Y-97522848D01*
X144544806Y-134200000D02*
X154527294Y-124217512D01*
X148600501Y-138200559D02*
X144699942Y-134300000D01*
X148059441Y-139740501D02*
X148600501Y-139199441D01*
X145020000Y-138700000D02*
X146060501Y-139740501D01*
X146060501Y-139740501D02*
X148059441Y-139740501D01*
X148600501Y-139199441D02*
X148600501Y-138200559D01*
X144699942Y-134300000D02*
X143900000Y-134300000D01*
%TO.N,LCD_RS*%
X120390000Y-75735000D02*
X118015000Y-75735000D01*
X118015000Y-75735000D02*
X117850000Y-75900000D01*
X184100000Y-95650000D02*
X184350000Y-95400000D01*
X181900000Y-82400000D02*
X178100000Y-86200000D01*
X182454011Y-81845989D02*
X181900000Y-82400000D01*
X185707520Y-91737343D02*
X185700000Y-91744863D01*
X185707520Y-90250306D02*
X185707520Y-91737343D01*
X184856704Y-89399490D02*
X185707520Y-90250306D01*
X180979490Y-89399490D02*
X184856704Y-89399490D01*
X177850000Y-86270000D02*
X180979490Y-89399490D01*
X185700000Y-91744863D02*
X185700000Y-94400000D01*
X185700000Y-94400000D02*
X184700000Y-95400000D01*
X184700000Y-95400000D02*
X184000000Y-95400000D01*
X186003531Y-72047868D02*
X186003530Y-73372133D01*
X182595990Y-81704010D02*
X181900000Y-82400000D01*
X141693753Y-74190510D02*
X142680888Y-74190510D01*
X184932428Y-81704010D02*
X182595990Y-81704010D01*
X146198524Y-80401476D02*
X151543175Y-80401476D01*
X173898662Y-69845990D02*
X182386796Y-69845990D01*
X151543175Y-80401476D02*
X153319217Y-78625433D01*
X182386796Y-69845990D02*
X183153296Y-69079490D01*
X143759490Y-75269112D02*
X143759490Y-77962442D01*
X184856704Y-69079490D02*
X185495510Y-69718296D01*
X165119218Y-78625433D02*
X173898662Y-69845990D01*
X185495510Y-69718296D02*
X185495510Y-70621704D01*
X185945987Y-80690451D02*
X184932428Y-81704010D01*
X142680888Y-74190510D02*
X143759490Y-75269112D01*
X185067133Y-71111470D02*
X186003531Y-72047868D01*
X185495510Y-70621704D02*
X185067133Y-71050081D01*
X143759490Y-77962442D02*
X146198524Y-80401476D01*
X186003530Y-73372133D02*
X185945988Y-73429675D01*
X120390000Y-75735000D02*
X127019498Y-69105502D01*
X127019498Y-69105502D02*
X136608745Y-69105502D01*
X185067133Y-71050081D02*
X185067133Y-71111470D01*
X185945988Y-73429675D02*
X185945987Y-80690451D01*
X136608745Y-69105502D02*
X141693753Y-74190510D01*
X153319217Y-78625433D02*
X165119218Y-78625433D01*
X183153296Y-69079490D02*
X184856704Y-69079490D01*
X146500000Y-134680000D02*
X146500000Y-134400000D01*
X146500000Y-134400000D02*
X146500000Y-134500000D01*
X185432000Y-95570000D02*
X186076534Y-96214534D01*
X186076534Y-104020593D02*
X185562614Y-104534512D01*
X185562614Y-104534512D02*
X183215519Y-104534512D01*
X183215519Y-104534512D02*
X163178507Y-124571524D01*
X156128476Y-124571524D02*
X146400000Y-134300000D01*
X163178507Y-124571524D02*
X156128476Y-124571524D01*
X186076534Y-96214534D02*
X186076534Y-104020593D01*
X184005000Y-95570000D02*
X185432000Y-95570000D01*
X150720443Y-135240501D02*
X147640501Y-135240501D01*
X144282533Y-140502533D02*
X152377409Y-140502533D01*
X152377409Y-140502533D02*
X153680501Y-139199441D01*
X142480000Y-138700000D02*
X144282533Y-140502533D01*
X153680501Y-139199441D02*
X153680501Y-138200559D01*
X153680501Y-138200559D02*
X150720443Y-135240501D01*
X147640501Y-135240501D02*
X146600000Y-134200000D01*
%TO.N,LCD_EN*%
X177350559Y-87310501D02*
X178104011Y-87310501D01*
X173097622Y-71365479D02*
X184961918Y-71365479D01*
X177350559Y-85229499D02*
X176809499Y-85770559D01*
X138264498Y-80909498D02*
X151753603Y-80909498D01*
X181093510Y-90300000D02*
X183900000Y-90300000D01*
X184961918Y-71365479D02*
X185749521Y-72153082D01*
X176809499Y-85770559D02*
X176809499Y-86769441D01*
X185691978Y-73324461D02*
X185691978Y-80585236D01*
X185749521Y-73266918D02*
X185691978Y-73324461D01*
X178104011Y-85229499D02*
X177350559Y-85229499D01*
X181883510Y-81450000D02*
X178104011Y-85229499D01*
X184827214Y-81450000D02*
X181883510Y-81450000D01*
X176809499Y-86769441D02*
X177350559Y-87310501D01*
X185749521Y-72153082D02*
X185749521Y-73266918D01*
X178104011Y-87310501D02*
X181093510Y-90300000D01*
X153529645Y-79133455D02*
X165329646Y-79133455D01*
X165329646Y-79133455D02*
X173097622Y-71365479D01*
X185691978Y-80585236D02*
X184827214Y-81450000D01*
X135630000Y-78275000D02*
X138264498Y-80909498D01*
X151753603Y-80909498D02*
X153529645Y-79133455D01*
%TO.N,BUTTONS*%
X153850000Y-107820000D02*
X156020000Y-107820000D01*
X156020000Y-107820000D02*
X159300000Y-111100000D01*
X159300000Y-111100000D02*
X163100000Y-111100000D01*
X163100000Y-111100000D02*
X163100000Y-103500000D01*
X163100000Y-103500000D02*
X163200000Y-103400000D01*
X120708332Y-84345501D02*
X119914559Y-84345501D01*
X162850000Y-91900000D02*
X159731477Y-95018523D01*
X116687090Y-81118032D02*
X116687090Y-75178732D01*
X131381354Y-95018523D02*
X120708332Y-84345501D01*
X119914559Y-84345501D02*
X116687090Y-81118032D01*
X118670822Y-73195000D02*
X120390000Y-73195000D01*
X116687090Y-75178732D02*
X118670822Y-73195000D01*
X159731477Y-95018523D02*
X131381354Y-95018523D01*
X163030000Y-99835000D02*
X163030000Y-103070000D01*
X163030000Y-93470000D02*
X163000000Y-93500000D01*
X163030000Y-91885000D02*
X163030000Y-93470000D01*
X163000000Y-95100000D02*
X163000000Y-99900000D01*
%TO.N,LCD_D7*%
X134639499Y-77799559D02*
X135154559Y-77284499D01*
X134639499Y-79824499D02*
X134639499Y-77799559D01*
X135630000Y-80815000D02*
X134639499Y-79824499D01*
X135154559Y-77284499D02*
X136105441Y-77284499D01*
X139476429Y-80655487D02*
X151648389Y-80655487D01*
X174003876Y-70100000D02*
X183900000Y-70100000D01*
X153424431Y-78879444D02*
X165224432Y-78879444D01*
X136105441Y-77284499D02*
X139476429Y-80655487D01*
X165224432Y-78879444D02*
X174003876Y-70100000D01*
X151648389Y-80655487D02*
X153424431Y-78879444D01*
%TO.N,DVM*%
X146436400Y-73270600D02*
X144570600Y-73270600D01*
X144570600Y-73270600D02*
X144600000Y-73241200D01*
X144600000Y-73241200D02*
X144600000Y-71300000D01*
X144525000Y-71200000D02*
X143634490Y-72090510D01*
X143634490Y-72090510D02*
X141071452Y-72090510D01*
X136105441Y-67124499D02*
X123975501Y-67124499D01*
X141071452Y-72090510D02*
X136105441Y-67124499D01*
X123975501Y-67124499D02*
X120400000Y-70700000D01*
%TO.N,LCD_D6*%
X172381551Y-72800000D02*
X184200000Y-72800000D01*
X150026551Y-83355000D02*
X153740073Y-79641477D01*
X165540074Y-79641477D02*
X172381551Y-72800000D01*
X153740073Y-79641477D02*
X165540074Y-79641477D01*
X135630000Y-83355000D02*
X150026551Y-83355000D01*
%TO.N,AUDIO2*%
X92280600Y-74038000D02*
X92280600Y-75969400D01*
X92280600Y-75969400D02*
X92100000Y-76150000D01*
X92100000Y-76150000D02*
X94600000Y-76150000D01*
X94600000Y-76150000D02*
X94600000Y-75900000D01*
X111371468Y-78147310D02*
X111671310Y-77847468D01*
X119022056Y-68300000D02*
X120300000Y-68300000D01*
X111671310Y-77847468D02*
X111671310Y-75650746D01*
X107709932Y-78147310D02*
X111371468Y-78147310D01*
X111671310Y-75650746D02*
X119022056Y-68300000D01*
X94524800Y-76019200D02*
X105581822Y-76019200D01*
X105581822Y-76019200D02*
X107709932Y-78147310D01*
%TO.N,AUDIO1*%
X120390000Y-65575000D02*
X110565000Y-75400000D01*
X110565000Y-75400000D02*
X110565000Y-77115000D01*
X110565000Y-77115000D02*
X110280000Y-77400000D01*
X110280000Y-77400000D02*
X108600000Y-77400000D01*
%TO.N,AREF*%
X94350000Y-74150000D02*
X94600000Y-73900000D01*
X120390000Y-63035000D02*
X109525000Y-73900000D01*
X108680000Y-73920000D02*
X108700000Y-73900000D01*
X108680000Y-75206400D02*
X108680000Y-73920000D01*
X108700000Y-73900000D02*
X94300000Y-73900000D01*
X109525000Y-73900000D02*
X108700000Y-73900000D01*
X140540167Y-71200000D02*
X136210655Y-66870488D01*
X142475000Y-71200000D02*
X140540167Y-71200000D01*
X119399499Y-61999499D02*
X120400000Y-63000000D01*
X119399499Y-60019559D02*
X119399499Y-61999499D01*
X120865441Y-59504499D02*
X119914559Y-59504499D01*
X128231430Y-66870488D02*
X120865441Y-59504499D01*
X136210655Y-66870488D02*
X128231430Y-66870488D01*
X119914559Y-59504499D02*
X119399499Y-60019559D01*
%TO.N,LCD_D4*%
X144331277Y-89409498D02*
X153845287Y-79895488D01*
X153845287Y-79895488D02*
X165645287Y-79895488D01*
X135630000Y-90975000D02*
X137195502Y-89409498D01*
X137195502Y-89409498D02*
X144331277Y-89409498D01*
X165645287Y-79895488D02*
X167931276Y-77609499D01*
X167931276Y-77609499D02*
X183709499Y-77609499D01*
X183709499Y-77609499D02*
X183800000Y-77700000D01*
D34*
%TO.N,+3V3*%
X120390000Y-60495000D02*
X122100000Y-62205000D01*
X122100000Y-62205000D02*
X122100000Y-67924962D01*
X177850000Y-81150000D02*
X177350000Y-81650000D01*
X177850000Y-81190000D02*
X178117010Y-81457010D01*
X122100000Y-67924962D02*
X120396963Y-69627999D01*
X119382845Y-69627999D02*
X115600000Y-73410844D01*
X120396963Y-69627999D02*
X119382845Y-69627999D01*
X115600000Y-73410844D02*
X115600000Y-73900000D01*
X115600000Y-73900000D02*
X115600000Y-78400000D01*
X115600000Y-73900000D02*
X115600000Y-74400000D01*
X115600000Y-74400000D02*
X115600000Y-75700000D01*
X119794226Y-84636012D02*
X120587999Y-84636012D01*
X120587999Y-84636012D02*
X131261021Y-95309034D01*
X131261021Y-95309034D02*
X162001810Y-95309034D01*
X115600000Y-80441786D02*
X119794226Y-84636012D01*
X115600000Y-74400000D02*
X115600000Y-80441786D01*
X177850000Y-81190000D02*
X175844579Y-83195421D01*
X167366265Y-89944579D02*
X175844579Y-89944579D01*
X162001810Y-95309034D02*
X167366265Y-89944579D01*
X175844579Y-83195421D02*
X175844579Y-89944579D01*
X141440000Y-134200000D02*
X145830511Y-129809489D01*
X182470976Y-101808988D02*
X184839844Y-101808988D01*
X148524473Y-129809489D02*
X154406960Y-123927002D01*
X182470976Y-104508988D02*
X182470976Y-101808988D01*
X185532010Y-101116822D02*
X185532010Y-97643179D01*
X145830511Y-129809489D02*
X148524473Y-129809489D01*
X184871822Y-96982990D02*
X180272148Y-96982990D01*
X163052962Y-123927002D02*
X182470976Y-104508988D01*
X185532010Y-97643179D02*
X184871822Y-96982990D01*
X184839844Y-101808988D02*
X185532010Y-101116822D01*
X180272148Y-96982990D02*
X175844579Y-92555421D01*
X154406960Y-123927002D02*
X163052962Y-123927002D01*
X175844579Y-92555421D02*
X175844579Y-89944579D01*
D32*
%TO.N,LCD_D5*%
X154101912Y-91229010D02*
X136841932Y-91229010D01*
X184200000Y-74457214D02*
X184200000Y-75000000D01*
X155002401Y-94510501D02*
X155040501Y-94472401D01*
X135154559Y-82364499D02*
X150657827Y-82364499D01*
X134639499Y-82879559D02*
X135154559Y-82364499D01*
X165434860Y-79387466D02*
X173202836Y-71619490D01*
X185495510Y-72258296D02*
X185495510Y-73161704D01*
X136105441Y-91965501D02*
X135154559Y-91965501D01*
X155040501Y-92167599D02*
X154101912Y-91229010D01*
X135154559Y-91965501D02*
X134639499Y-91450441D01*
X173202836Y-71619490D02*
X184856704Y-71619490D01*
X136625501Y-94510501D02*
X155002401Y-94510501D01*
X155040501Y-94472401D02*
X155040501Y-92167599D01*
X136841932Y-91229010D02*
X136105441Y-91965501D01*
X150657827Y-82364499D02*
X153634859Y-79387466D01*
X134639499Y-91450441D02*
X134639499Y-82879559D01*
X153634859Y-79387466D02*
X165434860Y-79387466D01*
X135630000Y-93515000D02*
X136625501Y-94510501D01*
X184856704Y-71619490D02*
X185495510Y-72258296D01*
X185495510Y-73161704D02*
X184200000Y-74457214D01*
%TO.N,Net-(C1-Pad1)*%
X101628200Y-107467600D02*
X99667600Y-107467600D01*
X99667600Y-107467600D02*
X99600000Y-107535200D01*
X99600000Y-107535200D02*
X99600000Y-112150000D01*
X99600000Y-112150000D02*
X99600000Y-109900000D01*
%TO.N,Net-(C2-Pad2)*%
X101825000Y-109855200D02*
X101825000Y-111675000D01*
X101825000Y-111675000D02*
X101600000Y-111900000D01*
X101600000Y-111900000D02*
X99600000Y-113900000D01*
X99600000Y-113900000D02*
X99850000Y-113900000D01*
%TO.N,demodIN*%
X111376000Y-106630200D02*
X111376000Y-104876000D01*
X103875000Y-109855200D02*
X107030200Y-106700000D01*
X107030200Y-106700000D02*
X111300000Y-106700000D01*
%TO.N,180deg*%
X99435100Y-115128600D02*
X98121400Y-115128600D01*
X98121400Y-115128600D02*
X96850000Y-116400000D01*
X96667800Y-116611600D02*
X96092800Y-116611600D01*
X95953090Y-115896890D02*
X95953090Y-95446910D01*
X96667800Y-116611600D02*
X95953090Y-115896890D01*
X95953090Y-95446910D02*
X102300000Y-89100000D01*
%TO.N,90deg*%
X97433310Y-117692890D02*
X97433310Y-120816690D01*
X98697600Y-116428600D02*
X97433310Y-117692890D01*
X99435100Y-116428600D02*
X98697600Y-116428600D01*
X97433310Y-120816690D02*
X96850000Y-121400000D01*
X93852290Y-117244068D02*
X93852290Y-90147710D01*
X94110332Y-117502110D02*
X93852290Y-117244068D01*
X94709886Y-117502110D02*
X94110332Y-117502110D01*
X95902290Y-118694514D02*
X94709886Y-117502110D01*
X95902290Y-120773690D02*
X95902290Y-118694514D01*
X96667800Y-121539200D02*
X95902290Y-120773690D01*
X93852290Y-90147710D02*
X94900000Y-89100000D01*
%TO.N,270deg*%
X99435100Y-114478600D02*
X96928600Y-114478600D01*
X96928600Y-114478600D02*
X96850000Y-114400000D01*
X102153312Y-89840510D02*
X105359490Y-89840510D01*
X96459499Y-95534323D02*
X102153312Y-89840510D01*
X96459499Y-114066499D02*
X96459499Y-95534323D01*
X96718600Y-114325600D02*
X96459499Y-114066499D01*
X105359490Y-89840510D02*
X106100000Y-89100000D01*
%TO.N,0deg*%
X98936754Y-115778600D02*
X96600000Y-118115354D01*
X99435100Y-115778600D02*
X98936754Y-115778600D01*
X96600000Y-118115354D02*
X96600000Y-118650000D01*
X95434110Y-117867110D02*
X95434110Y-92365890D01*
X96667800Y-119100800D02*
X95434110Y-117867110D01*
X95434110Y-92365890D02*
X98700000Y-89100000D01*
%TO.N,Net-(C10-Pad2)*%
X134275200Y-111224000D02*
X134275200Y-107275200D01*
X134275200Y-107275200D02*
X134750400Y-106800000D01*
X134750400Y-106800000D02*
X136100000Y-106800000D01*
%TO.N,GateDrive*%
X138118400Y-109055600D02*
X138118400Y-106981600D01*
X138118400Y-106981600D02*
X138300000Y-106800000D01*
X162057600Y-135469200D02*
X162057600Y-138457600D01*
X162057600Y-138457600D02*
X162800000Y-139200000D01*
X144858382Y-109000000D02*
X138100000Y-109000000D01*
X152858794Y-109055600D02*
X162800000Y-118996806D01*
X162800000Y-118996806D02*
X162800000Y-123400000D01*
X138118400Y-109055600D02*
X152858794Y-109055600D01*
X162800000Y-125400000D02*
X162800000Y-134700000D01*
X162800000Y-134700000D02*
X162000000Y-135500000D01*
%TO.N,Net-(C12-Pad1)*%
X136059400Y-111280000D02*
X136059400Y-109159400D01*
X136059400Y-109159400D02*
X136000000Y-109100000D01*
X136059400Y-111280000D02*
X136059400Y-111640600D01*
X134125000Y-113100000D02*
X134300000Y-113100000D01*
X134300000Y-113100000D02*
X135900000Y-111500000D01*
%TO.N,Net-(C13-Pad2)*%
X112326000Y-108630200D02*
X112326000Y-110626000D01*
%TO.N,RF*%
X160057600Y-138857600D02*
X160400000Y-139200000D01*
X160057600Y-127242400D02*
X160100000Y-127200000D01*
D33*
X160346400Y-134353600D02*
X160100000Y-134600000D01*
X126000000Y-137900000D02*
X126000000Y-138000000D01*
X160346400Y-126950000D02*
X160350001Y-126953601D01*
X160350001Y-126953601D02*
X160350001Y-138649999D01*
X160350001Y-138649999D02*
X160100000Y-138900000D01*
X122116990Y-114622988D02*
X117894002Y-110400000D01*
X117894002Y-110400000D02*
X114500000Y-110400000D01*
X127620383Y-114622988D02*
X122116990Y-114622988D01*
X157867546Y-141570054D02*
X137220052Y-141570054D01*
X160295600Y-139142000D02*
X157867546Y-141570054D01*
X133936029Y-120938633D02*
X130898698Y-117901302D01*
X136574999Y-140925001D02*
X133936029Y-138286031D01*
X130898698Y-117901302D02*
X127620383Y-114622988D01*
X133936027Y-120938632D02*
X130898698Y-117901302D01*
X137220052Y-141570054D02*
X136574999Y-140925001D01*
X136574999Y-140925001D02*
X134250002Y-138600004D01*
X133869999Y-136869999D02*
X133936029Y-136936029D01*
X127650001Y-136869999D02*
X133869999Y-136869999D01*
X126100000Y-138420000D02*
X127650001Y-136869999D01*
X133936029Y-136936029D02*
X133936029Y-120938633D01*
X133936029Y-138286031D02*
X133936029Y-136936029D01*
%TO.N,Net-(C14-Pad2)*%
X126850000Y-131400000D02*
X123100000Y-131400000D01*
X126850000Y-131400000D02*
X130500000Y-131400000D01*
X130500000Y-131400000D02*
X130600000Y-131500000D01*
X121299999Y-132950001D02*
X121299999Y-136499999D01*
X122850000Y-131400000D02*
X121299999Y-132950001D01*
X121299999Y-136499999D02*
X123200000Y-138400000D01*
%TO.N,Net-(C15-Pad2)*%
X127600000Y-124150000D02*
X127600000Y-124355998D01*
X122850000Y-133900000D02*
X126600000Y-133900000D01*
X126600000Y-133900000D02*
X126700000Y-134000000D01*
X132400001Y-130608014D02*
X127700000Y-125908013D01*
X132400001Y-134644001D02*
X132400001Y-130608014D01*
X131594001Y-135450001D02*
X132400001Y-134644001D01*
X126850000Y-133900000D02*
X128400001Y-135450001D01*
X128400001Y-135450001D02*
X131594001Y-135450001D01*
X127700000Y-125908013D02*
X127700000Y-124200000D01*
D32*
%TO.N,Net-(C16-Pad2)*%
X105033600Y-83055000D02*
X107755000Y-83055000D01*
X107755000Y-83055000D02*
X108350000Y-83650000D01*
X108350000Y-83650000D02*
X110600000Y-83650000D01*
X98700000Y-87075000D02*
X100525000Y-87075000D01*
X100525000Y-87075000D02*
X104500000Y-83100000D01*
%TO.N,Net-(C16-Pad1)*%
X110679200Y-81395000D02*
X108855000Y-81395000D01*
X108855000Y-81395000D02*
X108350000Y-81900000D01*
X108350000Y-81900000D02*
X105350000Y-81900000D01*
X110679200Y-81395000D02*
X110679200Y-79479200D01*
X110679200Y-79479200D02*
X110600000Y-79558400D01*
%TO.N,Net-(C17-Pad2)*%
X92086400Y-82163600D02*
X92100000Y-82150000D01*
X92100000Y-82150000D02*
X94350000Y-82150000D01*
X94524800Y-82073400D02*
X97176600Y-82073400D01*
X97176600Y-82073400D02*
X97350000Y-81900000D01*
X99240501Y-84587441D02*
X99240501Y-82840501D01*
X97809490Y-86018452D02*
X99240501Y-84587441D01*
X98067532Y-87840510D02*
X97809490Y-87582468D01*
X97809490Y-87582468D02*
X97809490Y-86018452D01*
X105334490Y-87840510D02*
X98067532Y-87840510D01*
X106100000Y-87075000D02*
X105334490Y-87840510D01*
X99240501Y-82840501D02*
X98100000Y-81700000D01*
%TO.N,Net-(C17-Pad1)*%
X92086400Y-78069200D02*
X92086400Y-80136400D01*
X92086400Y-80136400D02*
X92100000Y-80150000D01*
X92100000Y-80150000D02*
X94600000Y-80150000D01*
X94524800Y-80023400D02*
X96973400Y-80023400D01*
X96973400Y-80023400D02*
X97600000Y-80650000D01*
D33*
%TO.N,Net-(C18-Pad1)*%
X118246601Y-132517401D02*
X116664002Y-134100000D01*
X118246601Y-125539401D02*
X118246601Y-132517401D01*
X116850000Y-124142800D02*
X118246601Y-125539401D01*
X116664002Y-134100000D02*
X116500000Y-134100000D01*
X116850000Y-124142800D02*
X122557200Y-124142800D01*
X122557200Y-124142800D02*
X122700000Y-124000000D01*
X122700000Y-124000000D02*
X122600000Y-124100000D01*
X119800000Y-117100000D02*
X122500000Y-119800000D01*
X122500000Y-119800000D02*
X122500000Y-124000000D01*
%TO.N,Net-(C19-Pad1)*%
X111616600Y-131773400D02*
X111616600Y-124316600D01*
X111616600Y-124316600D02*
X111600000Y-124300000D01*
X116696600Y-131773400D02*
X112126600Y-131773400D01*
X112126600Y-131773400D02*
X112000000Y-131900000D01*
X115146599Y-133323401D02*
X115146599Y-135017401D01*
X115146599Y-135017401D02*
X120829198Y-140700000D01*
X116696600Y-131773400D02*
X115146599Y-133323401D01*
X120829198Y-140700000D02*
X123400000Y-140700000D01*
D32*
%TO.N,Net-(C24-Pad2)*%
X162935000Y-71925000D02*
X162875000Y-71925000D01*
X162875000Y-71925000D02*
X160800000Y-74000000D01*
%TO.N,Net-(C25-Pad1)*%
X167320056Y-60495000D02*
X170400000Y-63574944D01*
X160395000Y-60495000D02*
X167320056Y-60495000D01*
X170400000Y-63574944D02*
X170400000Y-64900000D01*
X170400000Y-64900000D02*
X170400000Y-69600000D01*
X170400000Y-69600000D02*
X168100000Y-71900000D01*
X168100000Y-71900000D02*
X168100000Y-74400000D01*
X166959490Y-73259490D02*
X163740510Y-73259490D01*
X168100000Y-74400000D02*
X166959490Y-73259490D01*
X163740510Y-73259490D02*
X163000000Y-74000000D01*
D33*
%TO.N,Net-(J3-Pad1)*%
X105151998Y-137200000D02*
X98400000Y-137200000D01*
X124729999Y-142370001D02*
X110321999Y-142370001D01*
X126100000Y-141000000D02*
X124729999Y-142370001D01*
X98400000Y-137200000D02*
X96000000Y-137200000D01*
X110321999Y-142370001D02*
X105151998Y-137200000D01*
X98761602Y-137200000D02*
X98400000Y-137200000D01*
D32*
%TO.N,CLK0*%
X133789573Y-119282476D02*
X131559499Y-117052401D01*
X135050000Y-124550000D02*
X135003549Y-124596451D01*
X139150000Y-124550000D02*
X135050000Y-124550000D01*
X131559499Y-117052401D02*
X135003549Y-120496451D01*
X135003549Y-120496451D02*
X135003549Y-124596451D01*
X139703361Y-137405488D02*
X136198937Y-133901063D01*
X135003549Y-124596451D02*
X135003549Y-132705675D01*
X143520502Y-138200559D02*
X143520503Y-139099669D01*
X135003549Y-132705675D02*
X136198937Y-133901063D01*
X139703361Y-137405488D02*
X142725431Y-137405488D01*
X151051478Y-140248522D02*
X152500000Y-138800000D01*
X142725431Y-137405488D02*
X143520502Y-138200559D01*
X143520503Y-139099669D02*
X144669356Y-140248522D01*
X144669356Y-140248522D02*
X151051478Y-140248522D01*
X100951200Y-116300000D02*
X101500000Y-116300000D01*
X100172600Y-117078600D02*
X100951200Y-116300000D01*
X99435100Y-117078600D02*
X100172600Y-117078600D01*
X132840510Y-113732468D02*
X131559499Y-115013479D01*
X132840510Y-112467532D02*
X132840510Y-113732468D01*
X122664501Y-111864501D02*
X132237479Y-111864501D01*
X113663610Y-109136890D02*
X119936890Y-109136890D01*
X113128490Y-109672010D02*
X113663610Y-109136890D01*
X113128490Y-111086888D02*
X113128490Y-109672010D01*
X112824468Y-111390910D02*
X113128490Y-111086888D01*
X106449444Y-111390910D02*
X112824468Y-111390910D01*
X131559499Y-115013479D02*
X131559499Y-117052401D01*
X119936890Y-109136890D02*
X122664501Y-111864501D01*
X132237479Y-111864501D02*
X132840510Y-112467532D01*
X103000000Y-116300000D02*
X103000000Y-114840354D01*
X103000000Y-114840354D02*
X106449444Y-111390910D01*
%TO.N,CLK1*%
X105571400Y-117728600D02*
X105600000Y-117700000D01*
X105160100Y-117728600D02*
X105571400Y-117728600D01*
X137859499Y-135202401D02*
X137859499Y-133254011D01*
X149059499Y-139740501D02*
X148805488Y-139994512D01*
X150100000Y-138700000D02*
X148805488Y-139994512D01*
X143774512Y-138095345D02*
X143774512Y-138994454D01*
X139808575Y-137151477D02*
X142830644Y-137151477D01*
X137859499Y-135202401D02*
X139808575Y-137151477D01*
X137859499Y-133197599D02*
X137859499Y-135202401D01*
X142830644Y-137151477D02*
X143774512Y-138095345D01*
X140190501Y-130866597D02*
X137859499Y-133197599D01*
X144774570Y-139994512D02*
X148805488Y-139994512D01*
X138242902Y-121600000D02*
X140190501Y-123547599D01*
X143774512Y-138994454D02*
X144774570Y-139994512D01*
X135700000Y-121600000D02*
X138242902Y-121600000D01*
X140190501Y-124309499D02*
X144209499Y-124309499D01*
X140190501Y-123547599D02*
X140190501Y-124309499D01*
X140190501Y-124309499D02*
X140190501Y-130866597D01*
X144209499Y-124309499D02*
X144400000Y-124500000D01*
X126690998Y-115436499D02*
X132886017Y-121631518D01*
X118897519Y-115436499D02*
X126690998Y-115436499D01*
X116605418Y-117728600D02*
X118897519Y-115436499D01*
X105160100Y-117728600D02*
X116605418Y-117728600D01*
%TO.N,CLK2*%
X149600000Y-124500000D02*
X149400000Y-124500000D01*
X139940501Y-135202401D02*
X139940501Y-133197599D01*
X139978601Y-135240501D02*
X139940501Y-135202401D01*
X144100501Y-135240501D02*
X139978601Y-135240501D01*
X147560000Y-138700000D02*
X144100501Y-135240501D01*
X145440501Y-127697599D02*
X139940501Y-133197599D01*
X141400000Y-117600000D02*
X145440501Y-121640501D01*
X141400000Y-117600000D02*
X134100000Y-117600000D01*
X149650000Y-124550000D02*
X145731002Y-124550000D01*
X145440501Y-124540501D02*
X145440501Y-127697599D01*
X145450000Y-124550000D02*
X145440501Y-124540501D01*
X149650000Y-124550000D02*
X145450000Y-124550000D01*
X145440501Y-121640501D02*
X145440501Y-124540501D01*
%TO.N,Net-(J10-Pad15)*%
X179924600Y-67579200D02*
X184620800Y-67579200D01*
X184620800Y-67579200D02*
X184700000Y-67500000D01*
%TO.N,Net-(J10-Pad3)*%
X184005000Y-98110000D02*
X178610000Y-98110000D01*
X178610000Y-98110000D02*
X176400000Y-100320000D01*
X176400000Y-100320000D02*
X176400000Y-101700000D01*
%TO.N,Net-(J11-PadRN)*%
X154854546Y-62404490D02*
X152095510Y-62404490D01*
X155610510Y-74804490D02*
X155610510Y-63160454D01*
X151505000Y-78910000D02*
X155610510Y-74804490D01*
X155610510Y-63160454D02*
X154854546Y-62404490D01*
X152095510Y-62404490D02*
X151700000Y-62800000D01*
%TO.N,Net-(Q1-Pad3)*%
X132200000Y-111200000D02*
X132200000Y-107100000D01*
X133094521Y-112094521D02*
X131500000Y-110500000D01*
X131500000Y-110500000D02*
X130500000Y-110500000D01*
X132200000Y-116500000D02*
X133094521Y-115605479D01*
X133094521Y-115605479D02*
X133094521Y-112094521D01*
%TO.N,Net-(Q1-Pad2)*%
X136119200Y-113515200D02*
X136119200Y-113580800D01*
X136400000Y-113700000D02*
X136500000Y-113800000D01*
X134200000Y-115550000D02*
X134200000Y-115400000D01*
X134200000Y-115400000D02*
X136000000Y-113600000D01*
%TO.N,Net-(R10-Pad2)*%
X102400000Y-87025000D02*
X102400000Y-87000000D01*
X102400000Y-87000000D02*
X104900000Y-84500000D01*
%TO.N,Net-(R11-Pad2)*%
X94900000Y-85977044D02*
X97700000Y-83177044D01*
X94900000Y-87075000D02*
X94900000Y-85977044D01*
X97700000Y-83177044D02*
X97700000Y-83100000D01*
%TO.N,Net-(R21-Pad2)*%
X167530000Y-111265000D02*
X167530000Y-107670000D01*
X167530000Y-107670000D02*
X170000000Y-105200000D01*
X170000000Y-105200000D02*
X169100000Y-105200000D01*
X169100000Y-105200000D02*
X167600000Y-103700000D01*
%TO.N,Net-(R22-Pad2)*%
X167530000Y-91885000D02*
X167530000Y-95430000D01*
X167530000Y-95430000D02*
X170000000Y-97900000D01*
X170000000Y-97900000D02*
X169400000Y-97900000D01*
X169400000Y-97900000D02*
X167600000Y-99700000D01*
%TD*%
M02*
